{
.appVersion = "3151";
.formatVersion = 3;
DisplayStrings = (
"·"
);
axes = (
{
name = Weight;
tag = wght;
}
);
classes = (
{
automatic = 1;
code = "A Aacute Abreve Acircumflex Adieresis Adotbelow Agrave Amacron Aogonek Aring Aringacute Atilde AE AEacute B C Cacute Ccaron Ccedilla Ccedillaacute Ccircumflex Cdotaccent D Eth Dcaron Dcroat Ddotbelow Dmacronbelow E Eacute Ebreve Ecaron Ecedillabreve Ecircumflex Edieresis Edotaccent Edotbelow Egrave Emacron Emacronacute Emacrongrave Eogonek Etilde F G Gbreve Gcaron Gcircumflex Gcommaaccent Gdotaccent Gmacron H Hbar Hbrevebelow Hcircumflex Hdotbelow I IJ Iacute Ibreve Icircumflex Idieresis Idieresisacute Idotaccent Idotbelow Igrave Imacron Iogonek Itilde J Jacute Jcircumflex K Kcommaaccent L Lacute Lcaron Lcommaaccent Ldot Ldotbelow Lmacronbelow Lslash M Mdotbelow N Nacute Ncaron Ncommaaccent Ndotaccent Ndotbelow Nhookleft Nmacronbelow Ntilde Eng O Oacute Obreve Ocircumflex Odieresis Odotbelow Ograve Ohungarumlaut Omacron Omacronacute Omacrongrave Oogonek Oslash Oslashacute Otilde Otildeacute Otildedieresis OE P Thorn Q R Racute Rcaron Rcommaaccent Rdotbelow Rmacronbelow S Sacute Sacutedotaccent Scaron Scarondotaccent Scedilla Scircumflex Scommaaccent Sdotaccent Sdotbelow Sdotbelowdotaccent Germandbls T Tbar Tcaron Tcedilla Tcommaaccent Tdotbelow Tmacronbelow U Uacute Ubreve Ucircumflex Udieresis Udotbelow Ugrave Uhungarumlaut Umacron Umacrondieresis Uogonek Uring Utilde Utildeacute V W Wacute Wcircumflex Wdieresis Wgrave X Y Yacute Ycircumflex Ydieresis Ydotaccent Ygrave Ymacron Ytilde Z Zacute Zcaron Zdotaccent Zdotbelow Delta Omega";
name = Uppercase;
}
);
customParameters = (
{
name = panose;
value = (
0,
0,
5,
0,
0,
0,
0,
0,
0,
0
);
},
{
name = blueScale;
value = 0.037;
},
{
name = "gasp Table";
value = {
9 = 10;
21 = 7;
65535 = 15;
};
},
{
name = unicodeRanges;
value = (
0,
1
);
},
{
name = codePageRanges;
value = (
"1252"
);
},
{
name = "Use Extension Kerning";
value = 1;
},
{
name = fsType;
value = (
);
}
);

glyphs = (
{
glyphname = A;
kernLeft = A;
kernRight = A;
lastChange = "2023-09-14 04:35:09 +0000";
layers = (
{
anchors = (
{
name = bottom;
pos = (852,0);
},
{
name = ogonek;
pos = (1599,15);
},
{
name = top;
pos = (852,1538);
}
);
background = {
shapes = (
{
closed = 1;
nodes = (
(32,14,ls),
(29,8,o),
(27,2,o),
(27,-3,cs),
(27,-13,o),
(33,-21,o),
(44,-27,cs),
(62,-36,o),
(75,-32,o),
(85,-14,cs),
(411,602,l),
(828,-16,ls),
(834,-26,o),
(844,-31,o),
(853,-31,cs),
(863,-31,o),
(873,-26,o),
(880,-16,cs),
(1293,604,l),
(1619,-14,ls),
(1625,-26,o),
(1633,-32,o),
(1643,-32,cs),
(1648,-32,o),
(1654,-30,o),
(1660,-27,cs),
(1671,-21,o),
(1677,-13,o),
(1677,-3,cs),
(1677,2,o),
(1675,8,o),
(1672,14,cs),
(878,1522,ls),
(872,1533,o),
(861,1538,o),
(850,1538,cs),
(840,1538,o),
(829,1533,o),
(822,1522,c),
(384,686,l),
(380,681,o),
(377,675,o),
(376,670,c)
);
},
{
closed = 1;
nodes = (
(853,55,l),
(441,664,l),
(851,1442,l),
(1261,666,l)
);
}
);
};
layerId = "12AF635E-66FE-4C90-B49C-8787585F2B73";
shapes = (
{
closed = 1;
nodes = (
(82,0,o),
(92,6,o),
(97,16,cs),
(849,1482,l),
(1603,16,ls),
(1608,6,o),
(1618,0,o),
(1630,0,cs),
(1646,0,o),
(1660,13,o),
(1660,30,cs),
(1660,35,o),
(1659,40,o),
(1653,51,cs),
(885,1544,ls),
(869,1576,o),
(829,1576,o),
(813,1544,cs),
(44,44,ls),
(42,40,o),
(40,35,o),
(40,30,cs),
(40,13,o),
(54,0,o),
(70,0,cs)
);
},
{
closed = 1;
nodes = (
(834,-6,o),
(864,-6,o),
(879,17,cs),
(1314,661,ls),
(1317,665,o),
(1319,671,o),
(1319,678,cs),
(1319,694,o),
(1305,708,o),
(1289,708,cs),
(1279,708,o),
(1270,703,o),
(1264,695,cs),
(849,80,l),
(438,691,ls),
(432,699,o),
(423,704,o),
(413,704,cs),
(397,704,o),
(383,690,o),
(383,674,cs),
(383,667,o),
(385,661,o),
(388,657,cs),
(819,17,ls)
);
}
);
width = 1700;
},
{
anchors = (
{
name = _bottom;
pos = (851,0);
},
{
name = _top;
pos = (851,1538);
},
{
name = top;
pos = (851,1538);
}
);
associatedMasterId = "12AF635E-66FE-4C90-B49C-8787585F2B73";
background = {
shapes = (
{
closed = 1;
nodes = (
(31,14,ls),
(28,8,o),
(26,2,o),
(26,-3,cs),
(26,-13,o),
(32,-21,o),
(43,-27,cs),
(61,-36,o),
(74,-32,o),
(84,-14,cs),
(410,602,l),
(827,-16,ls),
(833,-26,o),
(843,-31,o),
(852,-31,cs),
(862,-31,o),
(872,-26,o),
(879,-16,cs),
(1292,604,l),
(1618,-14,ls),
(1624,-26,o),
(1632,-32,o),
(1642,-32,cs),
(1647,-32,o),
(1653,-30,o),
(1659,-27,cs),
(1670,-21,o),
(1676,-13,o),
(1676,-3,cs),
(1676,2,o),
(1674,8,o),
(1671,14,cs),
(877,1522,ls),
(871,1533,o),
(860,1538,o),
(849,1538,cs),
(839,1538,o),
(828,1533,o),
(821,1522,c),
(383,686,l),
(379,681,o),
(376,675,o),
(375,670,c)
);
},
{
closed = 1;
nodes = (
(852,55,l),
(440,664,l),
(850,1442,l),
(1260,666,l)
);
}
);
};
layerId = "E8607AC4-E5C6-46CD-A64C-EE98AF0D5250";
name = "17 août 23 à 14:23";
shapes = (
{
closed = 0;
nodes = (
(58,0,l),
(848,1538,l),
(1638,0,l)
);
},
{
closed = 0;
nodes = (
(1296,665,l),
(848,0,l),
(400,665,l)
);
}
);
width = 1702;
},
{
anchors = (
{
name = _bottom;
pos = (300,0);
},
{
name = _top;
pos = (300,1538);
},
{
name = top;
pos = (300,1538);
}
);
associatedMasterId = "12AF635E-66FE-4C90-B49C-8787585F2B73";
layerId = "FF8F5861-4D4E-4A19-9FC8-D757777B75C1";
width = 600;
},
{
anchors = (
{
name = bottom;
pos = (850,0);
},
{
name = ogonek;
pos = (1481,127);
},
{
name = top;
pos = (850,1538);
}
);
background = {
shapes = (
{
closed = 1;
nodes = (
(30,14,ls),
(27,8,o),
(25,2,o),
(25,-3,cs),
(25,-13,o),
(31,-21,o),
(42,-27,cs),
(60,-36,o),
(73,-32,o),
(83,-14,cs),
(409,602,l),
(826,-16,ls),
(832,-26,o),
(842,-31,o),
(851,-31,cs),
(861,-31,o),
(871,-26,o),
(878,-16,cs),
(1291,604,l),
(1617,-14,ls),
(1623,-26,o),
(1631,-32,o),
(1641,-32,cs),
(1646,-32,o),
(1652,-30,o),
(1658,-27,cs),
(1669,-21,o),
(1675,-13,o),
(1675,-3,cs),
(1675,2,o),
(1673,8,o),
(1670,14,cs),
(876,1522,ls),
(870,1533,o),
(859,1538,o),
(848,1538,cs),
(838,1538,o),
(827,1533,o),
(820,1522,c),
(382,686,l),
(378,681,o),
(375,675,o),
(374,670,c)
);
},
{
closed = 1;
nodes = (
(851,55,l),
(439,664,l),
(849,1442,l),
(1259,666,l)
);
}
);
};
layerId = m004;
shapes = (
{
closed = 1;
nodes = (
(233,1,o),
(280,30,o),
(303,75,cs),
(847,1134,l),
(1391,74,ls),
(1414,29,o),
(1461,0,o),
(1514,0,cs),
(1592,0,o),
(1654,63,o),
(1654,140,cs),
(1654,164,o),
(1648,187,o),
(1638,207,cs),
(987,1474,ls),
(923,1599,o),
(771,1599,o),
(707,1474,cs),
(56,208,ls),
(46,188,o),
(40,165,o),
(40,141,cs),
(40,64,o),
(102,1,o),
(180,1,cs)
);
},
{
closed = 1;
nodes = (
(791,-22,o),
(903,-22,o),
(964,68,cs),
(1326,606,ls),
(1341,628,o),
(1351,656,o),
(1351,686,cs),
(1351,763,o),
(1288,826,o),
(1211,826,cs),
(1163,826,o),
(1121,802,o),
(1096,765,cs),
(847,396,l),
(609,748,ls),
(584,785,o),
(542,809,o),
(494,809,cs),
(417,809,o),
(354,746,o),
(354,669,cs),
(354,639,o),
(364,611,o),
(379,589,cs),
(730,68,ls)
);
}
);
width = 1694;
},
{
anchors = (
{
name = _bottom;
pos = (851,0);
},
{
name = _top;
pos = (851,1538);
},
{
name = top;
pos = (851,1538);
}
);
associatedMasterId = m004;
background = {
shapes = (
{
closed = 1;
nodes = (
(31,14,ls),
(28,8,o),
(26,2,o),
(26,-3,cs),
(26,-13,o),
(32,-21,o),
(43,-27,cs),
(61,-36,o),
(74,-32,o),
(84,-14,cs),
(410,602,l),
(827,-16,ls),
(833,-26,o),
(843,-31,o),
(852,-31,cs),
(862,-31,o),
(872,-26,o),
(879,-16,cs),
(1292,604,l),
(1618,-14,ls),
(1624,-26,o),
(1632,-32,o),
(1642,-32,cs),
(1647,-32,o),
(1653,-30,o),
(1659,-27,cs),
(1670,-21,o),
(1676,-13,o),
(1676,-3,cs),
(1676,2,o),
(1674,8,o),
(1671,14,cs),
(877,1522,ls),
(871,1533,o),
(860,1538,o),
(849,1538,cs),
(839,1538,o),
(828,1533,o),
(821,1522,c),
(383,686,l),
(379,681,o),
(376,675,o),
(375,670,c)
);
},
{
closed = 1;
nodes = (
(852,55,l),
(440,664,l),
(850,1442,l),
(1260,666,l)
);
}
);
};
layerId = "B25C972D-7510-49A5-8386-48E3DF46A208";
name = "17 août 23 à 14:23";
shapes = (
{
closed = 0;
nodes = (
(58,0,l),
(848,1538,l),
(1638,0,l)
);
},
{
closed = 0;
nodes = (
(1296,665,l),
(848,0,l),
(400,665,l)
);
}
);
width = 1702;
}
);
note = A;
unicode = 65;
},
{
glyphname = B;
kernLeft = H;
kernRight = B;
lastChange = "2023-09-14 04:35:09 +0000";
layers = (
{
anchors = (
{
name = _bottom;
pos = (719,0);
},
{
name = _top;
pos = (719,1538);
},
{
name = top;
pos = (719,1538);
}
);
associatedMasterId = m004;
background = {
hints = (
{
horizontal = 1;
place = (-31, 62);
place = (-31, 62);
type = Stem;
},
{
horizontal = 1;
place = (526, 62);
place = (526, 62);
type = Stem;
},
{
horizontal = 1;
place = (1155, 62);
place = (1155, 62);
type = Stem;
},
{
horizontal = 1;
place = (1477, 61);
place = (1477, 61);
type = Stem;
},
{
place = (174, 62);
place = (174, 62);
type = Stem;
},
{
place = (1245, 62);
place = (1245, 62);
type = Stem;
}
);
shapes = (
{
closed = 1;
nodes = (
(174,0,ls),
(174,-21,o),
(184,-31,o),
(205,-31,cs),
(684,-31,ls),
(856,-31,o),
(1003,30,o),
(1124,151,cs),
(1246,273,o),
(1307,420,o),
(1307,592,cs),
(1307,775,o),
(1228,940,o),
(1100,1057,c),
(1093,1190,o),
(1041,1304,o),
(943,1397,cs),
(846,1491,o),
(729,1538,o),
(594,1538,cs),
(205,1538,ls),
(184,1538,o),
(174,1528,o),
(174,1507,cs)
);
},
{
closed = 1;
nodes = (
(236,1217,l),
(236,1477,l),
(594,1477,ls),
(703,1477,o),
(799,1442,o),
(880,1372,cs),
(962,1303,o),
(1013,1215,o),
(1032,1110,c),
(927,1181,o),
(811,1217,o),
(684,1217,cs)
);
},
{
closed = 1;
nodes = (
(236,588,l),
(236,1155,l),
(684,1155,ls),
(816,1155,o),
(934,1113,o),
(1038,1028,c),
(1037,907,o),
(993,803,o),
(906,717,cs),
(819,631,o),
(715,588,o),
(594,588,cs)
);
},
{
closed = 1;
nodes = (
(236,31,l),
(236,526,l),
(594,526,ls),
(722,526,o),
(834,569,o),
(931,655,cs),
(1028,742,o),
(1083,848,o),
(1096,973,c),
(1195,866,o),
(1245,739,o),
(1245,592,cs),
(1245,437,o),
(1190,305,o),
(1080,195,cs),
(970,86,o),
(838,31,o),
(684,31,cs)
);
}
);
};
layerId = "E32FE344-3A96-44CA-B9C3-14A61411E5CC";
name = "18 août 23 à 00:15";
shapes = (
{
closed = 0;
nodes = (
(204,1147,l),
(707,1147,ls),
(1024,1147,o),
(1281,890,o),
(1281,573,cs),
(1281,256,o),
(1024,0,o),
(707,0,cs),
(204,0,l),
(204,1538,l),
(595,1538,ls),
(874,1538,o),
(1100,1312,o),
(1100,1033,cs),
(1100,753,o),
(874,527,o),
(595,527,cs),
(204,527,l)
);
}
);
width = 1439;
},
{
anchors = (
{
name = bottom;
pos = (659,0);
},
{
name = center;
pos = (659,769);
},
{
name = top;
pos = (659,1538);
}
);
associatedMasterId = "12AF635E-66FE-4C90-B49C-8787585F2B73";
background = {
hints = (
{
horizontal = 1;
place = (-31, 62);
place = (-31, 62);
type = Stem;
},
{
horizontal = 1;
place = (526, 62);
place = (526, 62);
type = Stem;
},
{
horizontal = 1;
place = (1155, 62);
place = (1155, 62);
type = Stem;
},
{
horizontal = 1;
place = (1477, 61);
place = (1477, 61);
type = Stem;
},
{
place = (174, 62);
place = (174, 62);
type = Stem;
},
{
place = (1245, 62);
place = (1245, 62);
type = Stem;
}
);
shapes = (
{
closed = 1;
nodes = (
(113,0,ls),
(113,-21,o),
(123,-31,o),
(144,-31,cs),
(623,-31,ls),
(795,-31,o),
(942,30,o),
(1063,151,cs),
(1185,273,o),
(1246,420,o),
(1246,592,cs),
(1246,775,o),
(1167,940,o),
(1039,1057,c),
(1032,1190,o),
(980,1304,o),
(882,1397,cs),
(785,1491,o),
(668,1538,o),
(533,1538,cs),
(144,1538,ls),
(123,1538,o),
(113,1528,o),
(113,1507,cs)
);
},
{
closed = 1;
nodes = (
(175,1217,l),
(175,1477,l),
(533,1477,ls),
(642,1477,o),
(738,1442,o),
(819,1372,cs),
(901,1303,o),
(952,1215,o),
(971,1110,c),
(866,1181,o),
(750,1217,o),
(623,1217,cs)
);
},
{
closed = 1;
nodes = (
(175,588,l),
(175,1155,l),
(623,1155,ls),
(755,1155,o),
(873,1113,o),
(977,1028,c),
(976,907,o),
(932,803,o),
(845,717,cs),
(758,631,o),
(654,588,o),
(533,588,cs)
);
},
{
closed = 1;
nodes = (
(175,31,l),
(175,526,l),
(533,526,ls),
(661,526,o),
(773,569,o),
(870,655,cs),
(967,742,o),
(1022,848,o),
(1035,973,c),
(1134,866,o),
(1184,739,o),
(1184,592,cs),
(1184,437,o),
(1129,305,o),
(1019,195,cs),
(909,86,o),
(777,31,o),
(623,31,cs)
);
}
);
};
layerId = "FBACD670-023F-4DA2-BCEE-AEAD051D879F";
name = "21 août 23 à 06:08";
shapes = (
{
closed = 1;
nodes = (
(635,0,ls),
(971,0,o),
(1244,272,o),
(1244,609,cs),
(1244,801,o),
(1154,973,o),
(1015,1085,c),
(1016,1010,l),
(1121,911,o),
(1184,770,o),
(1184,609,cs),
(1184,297,o),
(946,60,o),
(635,60,cs),
(203,60,l),
(203,1478,l),
(534,1478,ls),
(788,1478,o),
(979,1287,o),
(979,1033,cs),
(979,778,o),
(788,587,o),
(534,587,cs),
(190,587,ls),
(173,587,o),
(160,574,o),
(160,557,cs),
(160,540,o),
(173,527,o),
(190,527,cs),
(534,527,ls),
(813,527,o),
(1039,753,o),
(1039,1033,cs),
(1039,1312,o),
(813,1538,o),
(534,1538,cs),
(175,1538,ls),
(157,1538,o),
(143,1524,o),
(143,1506,cs),
(143,32,ls),
(143,14,o),
(157,0,o),
(175,0,cs)
);
}
);
width = 1344;
},
{
anchors = (
{
name = bottom;
pos = (659,0);
},
{
name = center;
pos = (659,769);
},
{
name = top;
pos = (659,1538);
}
);
background = {
hints = (
{
horizontal = 1;
place = (-31, 62);
place = (-31, 62);
type = Stem;
},
{
horizontal = 1;
place = (526, 62);
place = (526, 62);
type = Stem;
},
{
horizontal = 1;
place = (1155, 62);
place = (1155, 62);
type = Stem;
},
{
horizontal = 1;
place = (1477, 61);
place = (1477, 61);
type = Stem;
},
{
place = (174, 62);
place = (174, 62);
type = Stem;
},
{
place = (1245, 62);
place = (1245, 62);
type = Stem;
}
);
shapes = (
{
closed = 1;
nodes = (
(113,0,ls),
(113,-21,o),
(123,-31,o),
(144,-31,cs),
(623,-31,ls),
(795,-31,o),
(942,30,o),
(1063,151,cs),
(1185,273,o),
(1246,420,o),
(1246,592,cs),
(1246,775,o),
(1167,940,o),
(1039,1057,c),
(1032,1190,o),
(980,1304,o),
(882,1397,cs),
(785,1491,o),
(668,1538,o),
(533,1538,cs),
(144,1538,ls),
(123,1538,o),
(113,1528,o),
(113,1507,cs)
);
},
{
closed = 1;
nodes = (
(175,1217,l),
(175,1477,l),
(533,1477,ls),
(642,1477,o),
(738,1442,o),
(819,1372,cs),
(901,1303,o),
(952,1215,o),
(971,1110,c),
(866,1181,o),
(750,1217,o),
(623,1217,cs)
);
},
{
closed = 1;
nodes = (
(175,588,l),
(175,1155,l),
(623,1155,ls),
(755,1155,o),
(873,1113,o),
(977,1028,c),
(976,907,o),
(932,803,o),
(845,717,cs),
(758,631,o),
(654,588,o),
(533,588,cs)
);
},
{
closed = 1;
nodes = (
(175,31,l),
(175,526,l),
(533,526,ls),
(661,526,o),
(773,569,o),
(870,655,cs),
(967,742,o),
(1022,848,o),
(1035,973,c),
(1134,866,o),
(1184,739,o),
(1184,592,cs),
(1184,437,o),
(1129,305,o),
(1019,195,cs),
(909,86,o),
(777,31,o),
(623,31,cs)
);
}
);
};
layerId = "12AF635E-66FE-4C90-B49C-8787585F2B73";
name = Light;
shapes = (
{
closed = 1;
nodes = (
(635,0,ls),
(971,0,o),
(1244,272,o),
(1244,609,cs),
(1244,945,o),
(971,1218,o),
(635,1218,cs),
(190,1218,ls),
(173,1218,o),
(160,1205,o),
(160,1188,cs),
(160,1171,o),
(173,1158,o),
(190,1158,cs),
(635,1158,ls),
(946,1158,o),
(1184,920,o),
(1184,609,cs),
(1184,297,o),
(946,60,o),
(635,60,cs),
(203,60,l),
(203,1478,l),
(534,1478,ls),
(788,1478,o),
(979,1287,o),
(979,1033,cs),
(979,778,o),
(788,587,o),
(534,587,cs),
(190,587,ls),
(173,587,o),
(160,574,o),
(160,557,cs),
(160,540,o),
(173,527,o),
(190,527,cs),
(534,527,ls),
(813,527,o),
(1039,753,o),
(1039,1033,cs),
(1039,1312,o),
(813,1538,o),
(534,1538,cs),
(175,1538,ls),
(157,1538,o),
(143,1524,o),
(143,1506,cs),
(143,32,ls),
(143,14,o),
(157,0,o),
(175,0,cs)
);
}
);
width = 1344;
},
{
anchors = (
{
name = bottom;
pos = (726,0);
},
{
name = center;
pos = (726,769);
},
{
name = top;
pos = (726,1538);
}
);
associatedMasterId = m004;
background = {
hints = (
{
horizontal = 1;
place = (-31, 62);
place = (-31, 62);
type = Stem;
},
{
horizontal = 1;
place = (526, 62);
place = (526, 62);
type = Stem;
},
{
horizontal = 1;
place = (1155, 62);
place = (1155, 62);
type = Stem;
},
{
horizontal = 1;
place = (1477, 61);
place = (1477, 61);
type = Stem;
},
{
place = (174, 62);
place = (174, 62);
type = Stem;
},
{
place = (1245, 62);
place = (1245, 62);
type = Stem;
}
);
shapes = (
{
closed = 1;
nodes = (
(180,0,ls),
(180,-21,o),
(190,-31,o),
(211,-31,cs),
(690,-31,ls),
(862,-31,o),
(1009,30,o),
(1130,151,cs),
(1252,273,o),
(1313,420,o),
(1313,592,cs),
(1313,775,o),
(1234,940,o),
(1106,1057,c),
(1099,1190,o),
(1047,1304,o),
(949,1397,cs),
(852,1491,o),
(735,1538,o),
(600,1538,cs),
(211,1538,ls),
(190,1538,o),
(180,1528,o),
(180,1507,cs)
);
},
{
closed = 1;
nodes = (
(242,1217,l),
(242,1477,l),
(600,1477,ls),
(709,1477,o),
(805,1442,o),
(886,1372,cs),
(968,1303,o),
(1019,1215,o),
(1038,1110,c),
(933,1181,o),
(817,1217,o),
(690,1217,cs)
);
},
{
closed = 1;
nodes = (
(242,588,l),
(242,1155,l),
(690,1155,ls),
(822,1155,o),
(940,1113,o),
(1044,1028,c),
(1043,907,o),
(999,803,o),
(912,717,cs),
(825,631,o),
(721,588,o),
(600,588,cs)
);
},
{
closed = 1;
nodes = (
(242,31,l),
(242,526,l),
(600,526,ls),
(728,526,o),
(840,569,o),
(937,655,cs),
(1034,742,o),
(1089,848,o),
(1102,973,c),
(1201,866,o),
(1251,739,o),
(1251,592,cs),
(1251,437,o),
(1196,305,o),
(1086,195,cs),
(976,86,o),
(844,31,o),
(690,31,cs)
);
}
);
};
layerId = "A11A8383-2124-4268-9705-1A0B847FD868";
name = "21 août 23 à 06:08";
shapes = (
{
closed = 1;
nodes = (
(753,0,ls),
(1070,0,o),
(1327,256,o),
(1327,573,cs),
(1327,823,o),
(1167,1036,o),
(943,1115,c),
(939,804,l),
(1001,756,o),
(1047,680,o),
(1047,573,cs),
(1047,372,o),
(884,280,o),
(753,280,cs),
(420,280,l),
(420,1258,l),
(601,1258,ls),
(731,1258,o),
(826,1196,o),
(826,1033,cs),
(826,869,o),
(731,807,o),
(601,807,cs),
(336,807,ls),
(259,807,o),
(196,744,o),
(196,667,cs),
(196,590,o),
(259,527,o),
(336,527,cs),
(601,527,ls),
(880,527,o),
(1106,753,o),
(1106,1033,cs),
(1106,1312,o),
(880,1538,o),
(601,1538,cs),
(262,1538,ls),
(191,1538,o),
(140,1487,o),
(140,1416,cs),
(140,122,ls),
(140,51,o),
(191,0,o),
(262,0,cs)
);
}
);
width = 1427;
},
{
anchors = (
{
name = bottom;
pos = (726,0);
},
{
name = center;
pos = (726,769);
},
{
name = top;
pos = (726,1538);
}
);
background = {
hints = (
{
horizontal = 1;
place = (-31, 62);
place = (-31, 62);
type = Stem;
},
{
horizontal = 1;
place = (526, 62);
place = (526, 62);
type = Stem;
},
{
horizontal = 1;
place = (1155, 62);
place = (1155, 62);
type = Stem;
},
{
horizontal = 1;
place = (1477, 61);
place = (1477, 61);
type = Stem;
},
{
place = (174, 62);
place = (174, 62);
type = Stem;
},
{
place = (1245, 62);
place = (1245, 62);
type = Stem;
}
);
shapes = (
{
closed = 1;
nodes = (
(180,0,ls),
(180,-21,o),
(190,-31,o),
(211,-31,cs),
(690,-31,ls),
(862,-31,o),
(1009,30,o),
(1130,151,cs),
(1252,273,o),
(1313,420,o),
(1313,592,cs),
(1313,775,o),
(1234,940,o),
(1106,1057,c),
(1099,1190,o),
(1047,1304,o),
(949,1397,cs),
(852,1491,o),
(735,1538,o),
(600,1538,cs),
(211,1538,ls),
(190,1538,o),
(180,1528,o),
(180,1507,cs)
);
},
{
closed = 1;
nodes = (
(242,1217,l),
(242,1477,l),
(600,1477,ls),
(709,1477,o),
(805,1442,o),
(886,1372,cs),
(968,1303,o),
(1019,1215,o),
(1038,1110,c),
(933,1181,o),
(817,1217,o),
(690,1217,cs)
);
},
{
closed = 1;
nodes = (
(242,588,l),
(242,1155,l),
(690,1155,ls),
(822,1155,o),
(940,1113,o),
(1044,1028,c),
(1043,907,o),
(999,803,o),
(912,717,cs),
(825,631,o),
(721,588,o),
(600,588,cs)
);
},
{
closed = 1;
nodes = (
(242,31,l),
(242,526,l),
(600,526,ls),
(728,526,o),
(840,569,o),
(937,655,cs),
(1034,742,o),
(1089,848,o),
(1102,973,c),
(1201,866,o),
(1251,739,o),
(1251,592,cs),
(1251,437,o),
(1196,305,o),
(1086,195,cs),
(976,86,o),
(844,31,o),
(690,31,cs)
);
}
);
};
layerId = m004;
name = Bold;
shapes = (
{
closed = 1;
nodes = (
(753,0,ls),
(1070,0,o),
(1327,256,o),
(1327,573,cs),
(1327,890,o),
(1070,1147,o),
(753,1147,cs),
(336,1147,ls),
(259,1147,o),
(196,1084,o),
(196,1007,cs),
(196,930,o),
(259,867,o),
(336,867,cs),
(753,867,ls),
(884,867,o),
(1047,774,o),
(1047,573,cs),
(1047,372,o),
(884,280,o),
(753,280,cs),
(420,280,l),
(420,1258,l),
(601,1258,ls),
(731,1258,o),
(826,1196,o),
(826,1033,cs),
(826,869,o),
(731,807,o),
(601,807,cs),
(336,807,ls),
(259,807,o),
(196,744,o),
(196,667,cs),
(196,590,o),
(259,527,o),
(336,527,cs),
(601,527,ls),
(880,527,o),
(1106,753,o),
(1106,1033,cs),
(1106,1312,o),
(880,1538,o),
(601,1538,cs),
(262,1538,ls),
(191,1538,o),
(140,1487,o),
(140,1416,cs),
(140,122,ls),
(140,51,o),
(191,0,o),
(262,0,cs)
);
}
);
width = 1427;
}
);
note = B;
unicode = 66;
},
{
glyphname = C;
kernLeft = O;
kernRight = C;
lastChange = "2023-09-14 04:35:09 +0000";
layers = (
{
anchors = (
{
name = bottom;
pos = (825,-9);
},
{
name = top;
pos = (899,1542);
}
);
background = {
hints = (
{
horizontal = 1;
place = (-33, 62);
place = (-33, 62);
type = Stem;
},
{
horizontal = 1;
place = (1481, 61);
place = (1481, 61);
type = Stem;
},
{
place = (78, 61);
place = (78, 61);
type = Stem;
}
);
shapes = (
{
closed = 1;
nodes = (
(147,1028,o),
(111,896,o),
(111,754,cs),
(111,612,o),
(147,480,o),
(219,358,cs),
(289,238,o),
(383,143,o),
(502,74,cs),
(625,3,o),
(757,-33,o),
(899,-33,cs),
(996,-33,o),
(1091,-15,o),
(1182,20,cs),
(1271,55,o),
(1351,103,o),
(1422,166,cs),
(1429,173,o),
(1433,181,o),
(1433,188,cs),
(1434,195,o),
(1431,202,o),
(1424,209,cs),
(1411,224,o),
(1396,224,o),
(1381,211,cs),
(1315,154,o),
(1241,109,o),
(1159,78,cs),
(1076,45,o),
(989,29,o),
(899,29,cs),
(768,29,o),
(646,62,o),
(533,127,cs),
(424,191,o),
(337,278,o),
(273,389,cs),
(206,501,o),
(172,622,o),
(172,753,cs),
(173,884,o),
(206,1007,o),
(273,1120,cs),
(337,1229,o),
(424,1316,o),
(533,1380,cs),
(646,1447,o),
(768,1481,o),
(899,1481,cs),
(989,1481,o),
(1076,1465,o),
(1159,1432,cs),
(1240,1400,o),
(1314,1355,o),
(1379,1298,cs),
(1394,1285,o),
(1409,1286,o),
(1422,1302,cs),
(1428,1309,o),
(1431,1316,o),
(1431,1323,cs),
(1431,1331,o),
(1427,1339,o),
(1419,1346,cs),
(1348,1407,o),
(1269,1455,o),
(1182,1489,cs),
(1090,1524,o),
(996,1542,o),
(899,1542,cs),
(757,1543,o),
(625,1507,o),
(502,1434,cs),
(383,1364,o),
(288,1270,o),
(219,1151,cs)
);
}
);
};
layerId = "12AF635E-66FE-4C90-B49C-8787585F2B73";
shapes = (
{
closed = 1;
nodes = (
(1102,-30,o),
(1286,44,o),
(1426,167,cs),
(1433,173,o),
(1436,181,o),
(1436,190,cs),
(1436,206,o),
(1423,220,o),
(1406,220,cs),
(1399,220,o),
(1392,217,o),
(1387,212,cs),
(1255,96,o),
(1090,30,o),
(900,30,cs),
(482,30,o),
(160,350,o),
(160,767,cs),
(160,1184,o),
(482,1508,o),
(900,1508,cs),
(1100,1508,o),
(1272,1434,o),
(1406,1307,cs),
(1411,1302,o),
(1418,1299,o),
(1426,1299,cs),
(1443,1299,o),
(1456,1312,o),
(1456,1329,cs),
(1456,1337,o),
(1453,1345,o),
(1447,1351,cs),
(1305,1485,o),
(1112,1568,o),
(900,1568,cs),
(457,1568,o),
(100,1209,o),
(100,767,cs),
(100,325,o),
(457,-30,o),
(900,-30,cs)
);
}
);
width = 1546;
},
{
anchors = (
{
name = bottom;
pos = (784,-30);
},
{
name = top;
pos = (899,1538);
}
);
background = {
hints = (
{
horizontal = 1;
place = (-33, 62);
place = (-33, 62);
type = Stem;
},
{
horizontal = 1;
place = (1481, 61);
place = (1481, 61);
type = Stem;
},
{
place = (78, 61);
place = (78, 61);
type = Stem;
}
);
shapes = (
{
closed = 1;
nodes = (
(147,1028,o),
(111,896,o),
(111,754,cs),
(111,612,o),
(147,480,o),
(219,358,cs),
(289,238,o),
(383,143,o),
(502,74,cs),
(625,3,o),
(757,-33,o),
(899,-33,cs),
(996,-33,o),
(1091,-15,o),
(1182,20,cs),
(1271,55,o),
(1351,103,o),
(1422,166,cs),
(1429,173,o),
(1433,181,o),
(1433,188,cs),
(1434,195,o),
(1431,202,o),
(1424,209,cs),
(1411,224,o),
(1396,224,o),
(1381,211,cs),
(1315,154,o),
(1241,109,o),
(1159,78,cs),
(1076,45,o),
(989,29,o),
(899,29,cs),
(768,29,o),
(646,62,o),
(533,127,cs),
(424,191,o),
(337,278,o),
(273,389,cs),
(206,501,o),
(172,622,o),
(172,753,cs),
(173,884,o),
(206,1007,o),
(273,1120,cs),
(337,1229,o),
(424,1316,o),
(533,1380,cs),
(646,1447,o),
(768,1481,o),
(899,1481,cs),
(989,1481,o),
(1076,1465,o),
(1159,1432,cs),
(1240,1400,o),
(1314,1355,o),
(1379,1298,cs),
(1394,1285,o),
(1409,1286,o),
(1422,1302,cs),
(1428,1309,o),
(1431,1316,o),
(1431,1323,cs),
(1431,1331,o),
(1427,1339,o),
(1419,1346,cs),
(1348,1407,o),
(1269,1455,o),
(1182,1489,cs),
(1090,1524,o),
(996,1542,o),
(899,1542,cs),
(757,1543,o),
(625,1507,o),
(502,1434,cs),
(383,1364,o),
(288,1270,o),
(219,1151,cs)
);
}
);
};
layerId = m004;
shapes = (
{
closed = 1;
nodes = (
(1112,-30,o),
(1304,52,o),
(1447,186,cs),
(1474,212,o),
(1491,248,o),
(1491,288,cs),
(1491,365,o),
(1429,428,o),
(1351,428,cs),
(1314,428,o),
(1281,414,o),
(1256,390,cs),
(1149,290,o),
(1055,250,o),
(900,250,cs),
(573,250,o),
(380,441,o),
(380,767,cs),
(380,1093,o),
(573,1288,o),
(900,1288,cs),
(1062,1288,o),
(1160,1243,o),
(1268,1134,cs),
(1293,1109,o),
(1328,1093,o),
(1367,1093,cs),
(1445,1093,o),
(1507,1155,o),
(1507,1233,cs),
(1507,1271,o),
(1492,1306,o),
(1467,1331,cs),
(1323,1477,o),
(1122,1568,o),
(900,1568,cs),
(457,1568,o),
(100,1209,o),
(100,767,cs),
(100,325,o),
(457,-30,o),
(900,-30,cs)
);
}
);
width = 1567;
},
{
anchors = (
{
name = _bottom;
pos = (773,0);
},
{
name = _top;
pos = (773,1538);
},
{
name = top;
pos = (773,1538);
}
);
associatedMasterId = "12AF635E-66FE-4C90-B49C-8787585F2B73";
background = {
hints = (
{
horizontal = 1;
place = (-33, 62);
place = (-33, 62);
type = Stem;
},
{
horizontal = 1;
place = (1481, 61);
place = (1481, 61);
type = Stem;
},
{
place = (78, 61);
place = (78, 61);
type = Stem;
}
);
shapes = (
{
closed = 1;
nodes = (
(147,1028,o),
(111,896,o),
(111,754,cs),
(111,612,o),
(147,480,o),
(219,358,cs),
(289,238,o),
(383,143,o),
(502,74,cs),
(625,3,o),
(757,-33,o),
(899,-33,cs),
(996,-33,o),
(1091,-15,o),
(1182,20,cs),
(1271,55,o),
(1351,103,o),
(1422,166,cs),
(1429,173,o),
(1433,181,o),
(1433,188,cs),
(1434,195,o),
(1431,202,o),
(1424,209,cs),
(1411,224,o),
(1396,224,o),
(1381,211,cs),
(1315,154,o),
(1241,109,o),
(1159,78,cs),
(1076,45,o),
(989,29,o),
(899,29,cs),
(768,29,o),
(646,62,o),
(533,127,cs),
(424,191,o),
(337,278,o),
(273,389,cs),
(206,501,o),
(172,622,o),
(172,753,cs),
(173,884,o),
(206,1007,o),
(273,1120,cs),
(337,1229,o),
(424,1316,o),
(533,1380,cs),
(646,1447,o),
(768,1481,o),
(899,1481,cs),
(989,1481,o),
(1076,1465,o),
(1159,1432,cs),
(1240,1400,o),
(1314,1355,o),
(1379,1298,cs),
(1394,1285,o),
(1409,1286,o),
(1422,1302,cs),
(1428,1309,o),
(1431,1316,o),
(1431,1323,cs),
(1431,1331,o),
(1427,1339,o),
(1419,1346,cs),
(1348,1407,o),
(1269,1455,o),
(1182,1489,cs),
(1090,1524,o),
(996,1542,o),
(899,1542,cs),
(757,1543,o),
(625,1507,o),
(502,1434,cs),
(383,1364,o),
(288,1270,o),
(219,1151,cs)
);
}
);
};
layerId = "A4A39F8B-2AAE-4F3E-BCAF-D521C8BFFE2C";
name = "17 août 23 à 23:00";
shapes = (
{
closed = 0;
nodes = (
(1467,1331,l),
(1323,1477,o),
(1122,1568,o),
(900,1568,cs),
(457,1568,o),
(100,1209,o),
(100,767,cs),
(100,325,o),
(457,-30,o),
(900,-30,cs),
(1112,-30,o),
(1304,52,o),
(1447,186,c)
);
}
);
width = 1546;
},
{
anchors = (
{
name = _bottom;
pos = (773,0);
},
{
name = _top;
pos = (773,1538);
},
{
name = top;
pos = (773,1538);
}
);
associatedMasterId = m004;
background = {
hints = (
{
horizontal = 1;
place = (-33, 62);
place = (-33, 62);
type = Stem;
},
{
horizontal = 1;
place = (1481, 61);
place = (1481, 61);
type = Stem;
},
{
place = (78, 61);
place = (78, 61);
type = Stem;
}
);
shapes = (
{
closed = 1;
nodes = (
(147,1028,o),
(111,896,o),
(111,754,cs),
(111,612,o),
(147,480,o),
(219,358,cs),
(289,238,o),
(383,143,o),
(502,74,cs),
(625,3,o),
(757,-33,o),
(899,-33,cs),
(996,-33,o),
(1091,-15,o),
(1182,20,cs),
(1271,55,o),
(1351,103,o),
(1422,166,cs),
(1429,173,o),
(1433,181,o),
(1433,188,cs),
(1434,195,o),
(1431,202,o),
(1424,209,cs),
(1411,224,o),
(1396,224,o),
(1381,211,cs),
(1315,154,o),
(1241,109,o),
(1159,78,cs),
(1076,45,o),
(989,29,o),
(899,29,cs),
(768,29,o),
(646,62,o),
(533,127,cs),
(424,191,o),
(337,278,o),
(273,389,cs),
(206,501,o),
(172,622,o),
(172,753,cs),
(173,884,o),
(206,1007,o),
(273,1120,cs),
(337,1229,o),
(424,1316,o),
(533,1380,cs),
(646,1447,o),
(768,1481,o),
(899,1481,cs),
(989,1481,o),
(1076,1465,o),
(1159,1432,cs),
(1240,1400,o),
(1314,1355,o),
(1379,1298,cs),
(1394,1285,o),
(1409,1286,o),
(1422,1302,cs),
(1428,1309,o),
(1431,1316,o),
(1431,1323,cs),
(1431,1331,o),
(1427,1339,o),
(1419,1346,cs),
(1348,1407,o),
(1269,1455,o),
(1182,1489,cs),
(1090,1524,o),
(996,1542,o),
(899,1542,cs),
(757,1543,o),
(625,1507,o),
(502,1434,cs),
(383,1364,o),
(288,1270,o),
(219,1151,cs)
);
}
);
};
layerId = "8FE8E950-FC65-40CD-9090-7DABC2EB6F02";
name = "17 août 23 à 23:01";
shapes = (
{
closed = 0;
nodes = (
(1467,1331,l),
(1323,1477,o),
(1122,1568,o),
(900,1568,cs),
(457,1568,o),
(100,1209,o),
(100,767,cs),
(100,325,o),
(457,-30,o),
(900,-30,cs),
(1112,-30,o),
(1304,52,o),
(1447,186,c)
);
}
);
width = 1546;
}
);
note = C;
unicode = 67;
},
{
glyphname = D;
kernLeft = H;
kernRight = O;
lastChange = "2023-09-14 04:35:09 +0000";
layers = (
{
anchors = (
{
name = bottom;
pos = (631,0);
},
{
name = center;
pos = (631,769);
},
{
name = top;
pos = (564,1538);
}
);
background = {
hints = (
{
horizontal = 1;
place = (-31, 62);
place = (-31, 62);
type = Stem;
},
{
horizontal = 1;
place = (1477, 61);
place = (1477, 61);
type = Stem;
},
{
place = (190, 62);
place = (190, 62);
type = Stem;
},
{
place = (1247, 62);
place = (1247, 62);
type = Stem;
}
);
shapes = (
{
closed = 1;
nodes = (
(126,0,ls),
(126,-21,o),
(136,-31,o),
(157,-31,cs),
(462,-31,ls),
(727,-31,o),
(935,54,o),
(1058,198,cs),
(1181,343,o),
(1245,533,o),
(1245,754,cs),
(1245,978,o),
(1186,1164,o),
(1063,1308,cs),
(942,1453,o),
(733,1538,o),
(462,1538,cs),
(157,1538,ls),
(138,1538,o),
(126,1526,o),
(126,1507,cs)
);
},
{
closed = 1;
nodes = (
(188,31,l),
(188,1477,l),
(462,1477,ls),
(717,1477,o),
(909,1398,o),
(1020,1262,cs),
(1131,1127,o),
(1183,959,o),
(1183,754,cs),
(1183,551,o),
(1129,380,o),
(1016,244,cs),
(903,109,o),
(710,31,o),
(462,31,cs)
);
}
);
};
layerId = "12AF635E-66FE-4C90-B49C-8787585F2B73";
shapes = (
{
closed = 1;
nodes = (
(540,0,ls),
(960,0,o),
(1247,303,o),
(1247,769,cs),
(1247,1233,o),
(960,1538,o),
(540,1538,cs),
(172,1538,ls),
(154,1538,o),
(140,1524,o),
(140,1506,cs),
(140,32,ls),
(140,14,o),
(154,0,o),
(172,0,cs)
);
},
{
closed = 1;
nodes = (
(200,1478,l),
(540,1478,ls),
(934,1478,o),
(1187,1209,o),
(1187,769,cs),
(1187,327,o),
(934,60,o),
(540,60,cs),
(200,60,l)
);
}
);
width = 1347;
},
{
anchors = (
{
name = _bottom;
pos = (695,0);
},
{
name = _top;
pos = (695,1538);
},
{
name = top;
pos = (695,1538);
}
);
associatedMasterId = "12AF635E-66FE-4C90-B49C-8787585F2B73";
background = {
hints = (
{
horizontal = 1;
place = (-31, 62);
place = (-31, 62);
type = Stem;
},
{
horizontal = 1;
place = (1477, 61);
place = (1477, 61);
type = Stem;
},
{
place = (190, 62);
place = (190, 62);
type = Stem;
},
{
place = (1247, 62);
place = (1247, 62);
type = Stem;
}
);
shapes = (
{
closed = 1;
nodes = (
(190,0,ls),
(190,-21,o),
(200,-31,o),
(221,-31,cs),
(526,-31,ls),
(791,-31,o),
(999,54,o),
(1122,198,cs),
(1245,343,o),
(1309,533,o),
(1309,754,cs),
(1309,978,o),
(1250,1164,o),
(1127,1308,cs),
(1006,1453,o),
(797,1538,o),
(526,1538,cs),
(221,1538,ls),
(202,1538,o),
(190,1526,o),
(190,1507,cs)
);
},
{
closed = 1;
nodes = (
(252,31,l),
(252,1477,l),
(526,1477,ls),
(781,1477,o),
(973,1398,o),
(1084,1262,cs),
(1195,1127,o),
(1247,959,o),
(1247,754,cs),
(1247,551,o),
(1193,380,o),
(1080,244,cs),
(967,109,o),
(774,31,o),
(526,31,cs)
);
}
);
};
layerId = "51CC7EDA-BE15-4C4A-B2EC-6E70C4E9B52C";
name = "17 août 23 à 16:08";
shapes = (
{
closed = 1;
nodes = (
(549,1538,ls),
(974,1538,o),
(1318,1193,o),
(1318,769,cs),
(1318,343,o),
(974,0,o),
(549,0,cs),
(204,0,l),
(204,1538,l)
);
}
);
width = 1390;
},
{
anchors = (
{
name = bottom;
pos = (771,0);
},
{
name = center;
pos = (771,769);
},
{
name = top;
pos = (673,1538);
}
);
background = {
hints = (
{
horizontal = 1;
place = (-31, 62);
place = (-31, 62);
type = Stem;
},
{
horizontal = 1;
place = (1477, 61);
place = (1477, 61);
type = Stem;
},
{
place = (190, 62);
place = (190, 62);
type = Stem;
},
{
place = (1247, 62);
place = (1247, 62);
type = Stem;
}
);
shapes = (
{
closed = 1;
nodes = (
(126,0,ls),
(126,-21,o),
(136,-31,o),
(157,-31,cs),
(462,-31,ls),
(727,-31,o),
(935,54,o),
(1058,198,cs),
(1181,343,o),
(1245,533,o),
(1245,754,cs),
(1245,978,o),
(1186,1164,o),
(1063,1308,cs),
(942,1453,o),
(733,1538,o),
(462,1538,cs),
(157,1538,ls),
(138,1538,o),
(126,1526,o),
(126,1507,cs)
);
},
{
closed = 1;
nodes = (
(188,31,l),
(188,1477,l),
(462,1477,ls),
(717,1477,o),
(909,1398,o),
(1020,1262,cs),
(1131,1127,o),
(1183,959,o),
(1183,754,cs),
(1183,551,o),
(1129,380,o),
(1016,244,cs),
(903,109,o),
(710,31,o),
(462,31,cs)
);
}
);
};
layerId = m004;
shapes = (
{
closed = 1;
nodes = (
(735,0,ls),
(1155,0,o),
(1442,303,o),
(1442,769,cs),
(1442,1233,o),
(1155,1538,o),
(735,1538,cs),
(262,1538,ls),
(191,1538,o),
(140,1487,o),
(140,1416,cs),
(140,122,ls),
(140,51,o),
(191,0,o),
(262,0,cs)
);
},
{
closed = 1;
nodes = (
(420,1258,l),
(735,1258,ls),
(1034,1258,o),
(1162,1122,o),
(1162,769,cs),
(1162,415,o),
(1035,280,o),
(735,280,cs),
(420,280,l)
);
}
);
width = 1542;
},
{
anchors = (
{
name = _bottom;
pos = (695,0);
},
{
name = _top;
pos = (695,1538);
},
{
name = top;
pos = (695,1538);
}
);
associatedMasterId = m004;
background = {
hints = (
{
horizontal = 1;
place = (-31, 62);
place = (-31, 62);
type = Stem;
},
{
horizontal = 1;
place = (1477, 61);
place = (1477, 61);
type = Stem;
},
{
place = (190, 62);
place = (190, 62);
type = Stem;
},
{
place = (1247, 62);
place = (1247, 62);
type = Stem;
}
);
shapes = (
{
closed = 1;
nodes = (
(190,0,ls),
(190,-21,o),
(200,-31,o),
(221,-31,cs),
(526,-31,ls),
(791,-31,o),
(999,54,o),
(1122,198,cs),
(1245,343,o),
(1309,533,o),
(1309,754,cs),
(1309,978,o),
(1250,1164,o),
(1127,1308,cs),
(1006,1453,o),
(797,1538,o),
(526,1538,cs),
(221,1538,ls),
(202,1538,o),
(190,1526,o),
(190,1507,cs)
);
},
{
closed = 1;
nodes = (
(252,31,l),
(252,1477,l),
(526,1477,ls),
(781,1477,o),
(973,1398,o),
(1084,1262,cs),
(1195,1127,o),
(1247,959,o),
(1247,754,cs),
(1247,551,o),
(1193,380,o),
(1080,244,cs),
(967,109,o),
(774,31,o),
(526,31,cs)
);
}
);
};
layerId = "140CF33D-A32C-4E14-9C58-839BCE2BA2D8";
name = "17 août 23 à 16:08";
shapes = (
{
closed = 1;
nodes = (
(549,1538,ls),
(974,1538,o),
(1318,1193,o),
(1318,769,cs),
(1318,343,o),
(974,0,o),
(549,0,cs),
(204,0,l),
(204,1538,l)
);
}
);
width = 1390;
},
{
anchors = (
{
name = _bottom;
pos = (695,0);
},
{
name = _top;
pos = (695,1538);
},
{
name = top;
pos = (695,1538);
}
);
associatedMasterId = m004;
background = {
hints = (
{
horizontal = 1;
place = (-31, 62);
place = (-31, 62);
type = Stem;
},
{
horizontal = 1;
place = (1477, 61);
place = (1477, 61);
type = Stem;
},
{
place = (190, 62);
place = (190, 62);
type = Stem;
},
{
place = (1247, 62);
place = (1247, 62);
type = Stem;
}
);
shapes = (
{
closed = 1;
nodes = (
(190,0,ls),
(190,-21,o),
(200,-31,o),
(221,-31,cs),
(526,-31,ls),
(791,-31,o),
(999,54,o),
(1122,198,cs),
(1245,343,o),
(1309,533,o),
(1309,754,cs),
(1309,978,o),
(1250,1164,o),
(1127,1308,cs),
(1006,1453,o),
(797,1538,o),
(526,1538,cs),
(221,1538,ls),
(202,1538,o),
(190,1526,o),
(190,1507,cs)
);
},
{
closed = 1;
nodes = (
(252,31,l),
(252,1477,l),
(526,1477,ls),
(781,1477,o),
(973,1398,o),
(1084,1262,cs),
(1195,1127,o),
(1247,959,o),
(1247,754,cs),
(1247,551,o),
(1193,380,o),
(1080,244,cs),
(967,109,o),
(774,31,o),
(526,31,cs)
);
}
);
};
layerId = "44EA250F-3516-41A0-9DD0-79C3BB3544B2";
name = "17 août 23 à 23:03";
shapes = (
{
closed = 1;
nodes = (
(604,1538,ls),
(1024,1538,o),
(1311,1233,o),
(1311,769,cs),
(1311,303,o),
(1024,0,o),
(604,0,cs),
(204,0,l),
(204,1538,l)
);
}
);
width = 1390;
},
{
anchors = (
{
name = _bottom;
pos = (695,0);
},
{
name = _top;
pos = (695,1538);
},
{
name = top;
pos = (695,1538);
}
);
associatedMasterId = "12AF635E-66FE-4C90-B49C-8787585F2B73";
background = {
hints = (
{
horizontal = 1;
place = (-31, 62);
place = (-31, 62);
type = Stem;
},
{
horizontal = 1;
place = (1477, 61);
place = (1477, 61);
type = Stem;
},
{
place = (190, 62);
place = (190, 62);
type = Stem;
},
{
place = (1247, 62);
place = (1247, 62);
type = Stem;
}
);
shapes = (
{
closed = 1;
nodes = (
(190,0,ls),
(190,-21,o),
(200,-31,o),
(221,-31,cs),
(526,-31,ls),
(791,-31,o),
(999,54,o),
(1122,198,cs),
(1245,343,o),
(1309,533,o),
(1309,754,cs),
(1309,978,o),
(1250,1164,o),
(1127,1308,cs),
(1006,1453,o),
(797,1538,o),
(526,1538,cs),
(221,1538,ls),
(202,1538,o),
(190,1526,o),
(190,1507,cs)
);
},
{
closed = 1;
nodes = (
(252,31,l),
(252,1477,l),
(526,1477,ls),
(781,1477,o),
(973,1398,o),
(1084,1262,cs),
(1195,1127,o),
(1247,959,o),
(1247,754,cs),
(1247,551,o),
(1193,380,o),
(1080,244,cs),
(967,109,o),
(774,31,o),
(526,31,cs)
);
}
);
};
layerId = "6D1D00E6-B499-4642-93EC-03C7C0A3F965";
name = "17 août 23 à 23:03";
shapes = (
{
closed = 1;
nodes = (
(604,1538,ls),
(1024,1538,o),
(1311,1233,o),
(1311,769,cs),
(1311,303,o),
(1024,0,o),
(604,0,cs),
(204,0,l),
(204,1538,l)
);
}
);
width = 1390;
}
);
note = D;
unicode = 68;
},
{
glyphname = Eth;
kernRight = O;
lastChange = "2023-09-14 04:35:09 +0000";
layers = (
{
layerId = "12AF635E-66FE-4C90-B49C-8787585F2B73";
shapes = (
{
closed = 1;
nodes = (
(610,788,ls),
(627,788,o),
(640,801,o),
(640,818,cs),
(640,835,o),
(627,848,o),
(610,848,cs),
(70,848,ls),
(53,848,o),
(40,835,o),
(40,818,cs),
(40,801,o),
(53,788,o),
(70,788,cs)
);
},
{
pos = (6,0);
ref = D;
}
);
width = 1353;
},
{
layerId = m004;
shapes = (
{
closed = 1;
nodes = (
(720,700,ls),
(797,700,o),
(860,763,o),
(860,840,cs),
(860,917,o),
(797,980,o),
(720,980,cs),
(180,980,ls),
(103,980,o),
(40,917,o),
(40,840,cs),
(40,763,o),
(103,700,o),
(180,700,cs)
);
},
{
pos = (29,0);
ref = D;
}
);
width = 1571;
}
);
metricRight = D;
unicode = 208;
},
{
glyphname = E;
kernLeft = H;
kernRight = E;
lastChange = "2023-09-14 04:35:09 +0000";
layers = (
{
anchors = (
{
name = bottom;
pos = (583,0);
},
{
name = ogonek;
pos = (1013,10);
},
{
name = top;
pos = (662,1538);
},
{
name = topleft;
pos = (20,1538);
}
);
background = {
hints = (
{
horizontal = 1;
place = (-31, 62);
place = (-31, 62);
type = Stem;
},
{
horizontal = 1;
place = (555, 61);
place = (555, 61);
type = Stem;
},
{
horizontal = 1;
place = (1477, 61);
place = (1477, 61);
type = Stem;
},
{
place = (172, 61);
place = (172, 61);
type = Stem;
}
);
shapes = (
{
closed = 1;
nodes = (
(138,0,ls),
(138,-21,o),
(148,-31,o),
(169,-31,cs),
(1090,-31,ls),
(1111,-31,o),
(1121,-21,o),
(1121,0,cs),
(1121,21,o),
(1111,31,o),
(1090,31,cs),
(199,31,l),
(199,555,l),
(1090,555,ls),
(1111,555,o),
(1121,565,o),
(1121,585,cs),
(1121,606,o),
(1111,616,o),
(1090,616,cs),
(242,616,l),
(1113,1485,ls),
(1119,1491,o),
(1122,1498,o),
(1122,1505,cs),
(1122,1510,o),
(1121,1514,o),
(1119,1519,cs),
(1113,1532,o),
(1103,1538,o),
(1090,1538,cs),
(169,1538,ls),
(148,1538,o),
(138,1528,o),
(138,1507,cs)
);
},
{
closed = 1;
nodes = (
(1017,1477,l),
(199,659,l),
(199,1477,l)
);
}
);
};
layerId = "12AF635E-66FE-4C90-B49C-8787585F2B73";
shapes = (
{
closed = 1;
nodes = (
(1133,0,ls),
(1150,0,o),
(1163,13,o),
(1163,30,cs),
(1163,47,o),
(1150,60,o),
(1133,60,cs),
(200,60,l),
(200,1478,l),
(1048,1478,l),
(143,573,l),
(143,575,l),
(1093,575,ls),
(1110,575,o),
(1123,588,o),
(1123,605,cs),
(1123,622,o),
(1110,635,o),
(1093,635,cs),
(289,635,l),
(1116,1462,ls),
(1147,1493,o),
(1127,1538,o),
(1084,1538,cs),
(172,1538,ls),
(154,1538,o),
(140,1524,o),
(140,1506,cs),
(140,32,ls),
(140,14,o),
(154,0,o),
(172,0,cs)
);
}
);
width = 1283;
},
{
anchors = (
{
name = bottom;
pos = (707,0);
},
{
name = ogonek;
pos = (1069,106);
},
{
name = top;
pos = (713,1538);
},
{
name = topleft;
pos = (20,1538);
}
);
background = {
hints = (
{
horizontal = 1;
place = (-31, 62);
place = (-31, 62);
type = Stem;
},
{
horizontal = 1;
place = (555, 61);
place = (555, 61);
type = Stem;
},
{
horizontal = 1;
place = (1477, 61);
place = (1477, 61);
type = Stem;
},
{
place = (172, 61);
place = (172, 61);
type = Stem;
}
);
shapes = (
{
closed = 1;
nodes = (
(248,0,ls),
(248,-21,o),
(258,-31,o),
(279,-31,cs),
(1200,-31,ls),
(1221,-31,o),
(1231,-21,o),
(1231,0,cs),
(1231,21,o),
(1221,31,o),
(1200,31,cs),
(309,31,l),
(309,555,l),
(1200,555,ls),
(1221,555,o),
(1231,565,o),
(1231,585,cs),
(1231,606,o),
(1221,616,o),
(1200,616,cs),
(352,616,l),
(1223,1485,ls),
(1229,1491,o),
(1232,1498,o),
(1232,1505,cs),
(1232,1510,o),
(1231,1514,o),
(1229,1519,cs),
(1223,1532,o),
(1213,1538,o),
(1200,1538,cs),
(279,1538,ls),
(258,1538,o),
(248,1528,o),
(248,1507,cs)
);
},
{
closed = 1;
nodes = (
(1127,1477,l),
(309,659,l),
(309,1477,l)
);
}
);
};
layerId = m004;
shapes = (
{
closed = 1;
nodes = (
(1210,0,ls),
(1287,0,o),
(1350,63,o),
(1350,140,cs),
(1350,217,o),
(1287,280,o),
(1210,280,cs),
(420,280,l),
(420,1258,l),
(892,1258,l),
(144,502,l),
(144,569,l),
(1191,565,ls),
(1268,565,o),
(1331,628,o),
(1331,705,cs),
(1331,782,o),
(1268,844,o),
(1191,845,cs),
(890,849,l),
(1280,1245,ls),
(1398,1365,o),
(1325,1538,o),
(1157,1538,cs),
(262,1538,ls),
(191,1538,o),
(140,1487,o),
(140,1416,cs),
(140,122,ls),
(140,51,o),
(191,0,o),
(262,0,cs)
);
}
);
width = 1470;
},
{
anchors = (
{
name = _bottom;
pos = (686,0);
},
{
name = _top;
pos = (686,1538);
},
{
name = top;
pos = (686,1538);
}
);
associatedMasterId = "12AF635E-66FE-4C90-B49C-8787585F2B73";
background = {
hints = (
{
horizontal = 1;
place = (-31, 62);
place = (-31, 62);
type = Stem;
},
{
horizontal = 1;
place = (555, 61);
place = (555, 61);
type = Stem;
},
{
horizontal = 1;
place = (1477, 61);
place = (1477, 61);
type = Stem;
},
{
place = (172, 61);
place = (172, 61);
type = Stem;
}
);
shapes = (
{
closed = 1;
nodes = (
(172,0,ls),
(172,-21,o),
(182,-31,o),
(203,-31,cs),
(1124,-31,ls),
(1145,-31,o),
(1155,-21,o),
(1155,0,cs),
(1155,21,o),
(1145,31,o),
(1124,31,cs),
(233,31,l),
(233,555,l),
(1124,555,ls),
(1145,555,o),
(1155,565,o),
(1155,585,cs),
(1155,606,o),
(1145,616,o),
(1124,616,cs),
(276,616,l),
(1147,1485,ls),
(1153,1491,o),
(1156,1498,o),
(1156,1505,cs),
(1156,1510,o),
(1155,1514,o),
(1153,1519,cs),
(1147,1532,o),
(1137,1538,o),
(1124,1538,cs),
(203,1538,ls),
(182,1538,o),
(172,1528,o),
(172,1507,cs)
);
},
{
closed = 1;
nodes = (
(1051,1477,l),
(233,659,l),
(233,1477,l)
);
}
);
};
layerId = "5AC490D1-C3F3-4CD4-AA60-2B3C3B0708F0";
name = "17 août 23 à 23:04";
shapes = (
{
closed = 0;
nodes = (
(1194,0,l),
(204,0,l),
(204,1538,l),
(1154,1538,l),
(204,588,l),
(1147,588,l)
);
}
);
width = 1372;
},
{
anchors = (
{
name = _bottom;
pos = (686,0);
},
{
name = _top;
pos = (686,1538);
},
{
name = top;
pos = (686,1538);
}
);
associatedMasterId = m004;
background = {
hints = (
{
horizontal = 1;
place = (-31, 62);
place = (-31, 62);
type = Stem;
},
{
horizontal = 1;
place = (555, 61);
place = (555, 61);
type = Stem;
},
{
horizontal = 1;
place = (1477, 61);
place = (1477, 61);
type = Stem;
},
{
place = (172, 61);
place = (172, 61);
type = Stem;
}
);
shapes = (
{
closed = 1;
nodes = (
(172,0,ls),
(172,-21,o),
(182,-31,o),
(203,-31,cs),
(1124,-31,ls),
(1145,-31,o),
(1155,-21,o),
(1155,0,cs),
(1155,21,o),
(1145,31,o),
(1124,31,cs),
(233,31,l),
(233,555,l),
(1124,555,ls),
(1145,555,o),
(1155,565,o),
(1155,585,cs),
(1155,606,o),
(1145,616,o),
(1124,616,cs),
(276,616,l),
(1147,1485,ls),
(1153,1491,o),
(1156,1498,o),
(1156,1505,cs),
(1156,1510,o),
(1155,1514,o),
(1153,1519,cs),
(1147,1532,o),
(1137,1538,o),
(1124,1538,cs),
(203,1538,ls),
(182,1538,o),
(172,1528,o),
(172,1507,cs)
);
},
{
closed = 1;
nodes = (
(1051,1477,l),
(233,659,l),
(233,1477,l)
);
}
);
};
layerId = "8E9FB247-D6ED-4B84-9A69-9B7AC8E2CFF2";
name = "17 août 23 à 23:04";
shapes = (
{
closed = 0;
nodes = (
(1194,0,l),
(204,0,l),
(204,1538,l),
(1154,1538,l),
(204,588,l),
(1147,588,l)
);
}
);
width = 1372;
}
);
note = E;
unicode = 69;
},
{
glyphname = F;
kernLeft = H;
kernRight = F;
lastChange = "2023-09-14 04:35:09 +0000";
layers = (
{
anchors = (
{
name = bottom;
pos = (616,0);
},
{
name = top;
pos = (616,1538);
}
);
background = {
hints = (
{
horizontal = 1;
place = (-31, 21);
target = up;
type = BottomGhost;
},
{
horizontal = 1;
place = (555, 61);
place = (555, 61);
type = Stem;
},
{
horizontal = 1;
place = (1477, 61);
place = (1477, 61);
type = Stem;
},
{
place = (172, 61);
place = (172, 61);
type = Stem;
}
);
shapes = (
{
closed = 1;
nodes = (
(138,0,ls),
(138,-21,o),
(148,-31,o),
(168,-31,cs),
(189,-31,o),
(199,-21,o),
(199,0,cs),
(199,555,l),
(1090,555,ls),
(1111,555,o),
(1121,565,o),
(1121,585,cs),
(1121,606,o),
(1111,616,o),
(1090,616,cs),
(242,616,l),
(1113,1485,ls),
(1119,1491,o),
(1122,1498,o),
(1122,1505,cs),
(1122,1510,o),
(1121,1514,o),
(1119,1519,cs),
(1113,1532,o),
(1103,1538,o),
(1090,1538,cs),
(169,1538,ls),
(148,1538,o),
(138,1528,o),
(138,1507,cs)
);
},
{
closed = 1;
nodes = (
(1017,1477,l),
(199,659,l),
(199,1477,l)
);
}
);
};
layerId = "12AF635E-66FE-4C90-B49C-8787585F2B73";
shapes = (
{
closed = 1;
nodes = (
(187,-3,o),
(200,10,o),
(200,27,cs),
(200,1478,l),
(1048,1478,l),
(144,574,l),
(144,578,l),
(1095,578,ls),
(1112,578,o),
(1125,591,o),
(1125,608,cs),
(1125,625,o),
(1112,638,o),
(1095,638,cs),
(292,638,l),
(1116,1462,ls),
(1147,1493,o),
(1127,1538,o),
(1084,1538,cs),
(172,1538,ls),
(154,1538,o),
(140,1524,o),
(140,1506,cs),
(140,27,ls),
(140,10,o),
(153,-3,o),
(170,-3,cs)
);
}
);
width = 1251;
},
{
anchors = (
{
name = bottom;
pos = (716,0);
},
{
name = top;
pos = (716,1538);
}
);
background = {
hints = (
{
horizontal = 1;
place = (-31, 21);
target = up;
type = BottomGhost;
},
{
horizontal = 1;
place = (555, 61);
place = (555, 61);
type = Stem;
},
{
horizontal = 1;
place = (1477, 61);
place = (1477, 61);
type = Stem;
},
{
place = (172, 61);
place = (172, 61);
type = Stem;
}
);
shapes = (
{
closed = 1;
nodes = (
(248,0,ls),
(248,-21,o),
(258,-31,o),
(278,-31,cs),
(299,-31,o),
(309,-21,o),
(309,0,cs),
(309,555,l),
(1200,555,ls),
(1221,555,o),
(1231,565,o),
(1231,585,cs),
(1231,606,o),
(1221,616,o),
(1200,616,cs),
(352,616,l),
(1223,1485,ls),
(1229,1491,o),
(1232,1498,o),
(1232,1505,cs),
(1232,1510,o),
(1231,1514,o),
(1229,1519,cs),
(1223,1532,o),
(1213,1538,o),
(1200,1538,cs),
(279,1538,ls),
(258,1538,o),
(248,1528,o),
(248,1507,cs)
);
},
{
closed = 1;
nodes = (
(1127,1477,l),
(309,659,l),
(309,1477,l)
);
}
);
};
layerId = m004;
shapes = (
{
closed = 1;
nodes = (
(357,0,o),
(420,63,o),
(420,140,cs),
(420,1258,l),
(892,1258,l),
(175,541,l),
(175,573,l),
(1128,577,ls),
(1237,577,o),
(1300,625,o),
(1300,713,cs),
(1300,790,o),
(1237,853,o),
(1160,853,cs),
(883,853,l),
(1273,1243,ls),
(1393,1363,o),
(1319,1538,o),
(1150,1538,cs),
(262,1538,ls),
(191,1538,o),
(140,1487,o),
(140,1416,cs),
(140,140,ls),
(140,63,o),
(203,0,o),
(280,0,cs)
);
}
);
width = 1452;
},
{
anchors = (
{
name = _bottom;
pos = (686,0);
},
{
name = _top;
pos = (686,1538);
},
{
name = top;
pos = (686,1538);
}
);
associatedMasterId = "12AF635E-66FE-4C90-B49C-8787585F2B73";
background = {
hints = (
{
horizontal = 1;
place = (-31, 21);
target = up;
type = BottomGhost;
},
{
horizontal = 1;
place = (555, 61);
place = (555, 61);
type = Stem;
},
{
horizontal = 1;
place = (1477, 61);
place = (1477, 61);
type = Stem;
},
{
place = (172, 61);
place = (172, 61);
type = Stem;
}
);
shapes = (
{
closed = 1;
nodes = (
(172,0,ls),
(172,-21,o),
(182,-31,o),
(202,-31,cs),
(223,-31,o),
(233,-21,o),
(233,0,cs),
(233,555,l),
(1124,555,ls),
(1145,555,o),
(1155,565,o),
(1155,585,cs),
(1155,606,o),
(1145,616,o),
(1124,616,cs),
(276,616,l),
(1147,1485,ls),
(1153,1491,o),
(1156,1498,o),
(1156,1505,cs),
(1156,1510,o),
(1155,1514,o),
(1153,1519,cs),
(1147,1532,o),
(1137,1538,o),
(1124,1538,cs),
(203,1538,ls),
(182,1538,o),
(172,1528,o),
(172,1507,cs)
);
},
{
closed = 1;
nodes = (
(1051,1477,l),
(233,659,l),
(233,1477,l)
);
}
);
};
layerId = "528D6580-132F-4E13-8998-DBED0BB790A5";
name = "17 août 23 à 23:10";
shapes = (
{
closed = 0;
nodes = (
(204,0,l),
(204,1538,l),
(1154,1538,l),
(204,588,l),
(1147,588,l)
);
}
);
width = 1372;
},
{
anchors = (
{
name = _bottom;
pos = (686,0);
},
{
name = _top;
pos = (686,1538);
},
{
name = top;
pos = (686,1538);
}
);
associatedMasterId = m004;
background = {
hints = (
{
horizontal = 1;
place = (-31, 21);
target = up;
type = BottomGhost;
},
{
horizontal = 1;
place = (555, 61);
place = (555, 61);
type = Stem;
},
{
horizontal = 1;
place = (1477, 61);
place = (1477, 61);
type = Stem;
},
{
place = (172, 61);
place = (172, 61);
type = Stem;
}
);
shapes = (
{
closed = 1;
nodes = (
(172,0,ls),
(172,-21,o),
(182,-31,o),
(202,-31,cs),
(223,-31,o),
(233,-21,o),
(233,0,cs),
(233,555,l),
(1124,555,ls),
(1145,555,o),
(1155,565,o),
(1155,585,cs),
(1155,606,o),
(1145,616,o),
(1124,616,cs),
(276,616,l),
(1147,1485,ls),
(1153,1491,o),
(1156,1498,o),
(1156,1505,cs),
(1156,1510,o),
(1155,1514,o),
(1153,1519,cs),
(1147,1532,o),
(1137,1538,o),
(1124,1538,cs),
(203,1538,ls),
(182,1538,o),
(172,1528,o),
(172,1507,cs)
);
},
{
closed = 1;
nodes = (
(1051,1477,l),
(233,659,l),
(233,1477,l)
);
}
);
};
layerId = "C254EF2B-1529-47D8-9958-A8C7B1E6B125";
name = "17 août 23 à 23:10";
shapes = (
{
closed = 0;
nodes = (
(204,0,l),
(204,1538,l),
(1154,1538,l),
(204,588,l),
(1147,588,l)
);
}
);
width = 1372;
}
);
note = F;
unicode = 70;
},
{
glyphname = G;
kernLeft = O;
kernRight = G;
lastChange = "2023-09-14 04:35:09 +0000";
layers = (
{
anchors = (
{
name = bottom;
pos = (900,0);
},
{
name = top;
pos = (900,1538);
}
);
background = {
hints = (
{
horizontal = 1;
place = (-33, 62);
place = (-33, 62);
type = Stem;
},
{
horizontal = 1;
place = (723, 61);
place = (723, 61);
type = Stem;
},
{
horizontal = 1;
place = (1481, 61);
place = (1481, 61);
type = Stem;
},
{
place = (127, 61);
place = (127, 61);
type = Stem;
},
{
place = (1622, 61);
place = (1622, 61);
type = Stem;
}
);
shapes = (
{
closed = 1;
nodes = (
(1583,-23,ls),
(1597,-36,o),
(1611,-36,o),
(1625,-21,cs),
(1640,-7,o),
(1639,8,o),
(1624,23,cs),
(1450,193,l),
(1480,224,o),
(1509,258,o),
(1536,295,cs),
(1634,433,o),
(1683,586,o),
(1683,754,cs),
(1683,773,o),
(1672,784,o),
(1653,784,cs),
(825,784,ls),
(812,784,o),
(802,778,o),
(797,765,cs),
(792,753,o),
(794,742,o),
(805,733,c),
(1360,193,l),
(1231,84,o),
(1083,29,o),
(915,29,cs),
(783,29,o),
(661,61,o),
(550,126,cs),
(439,191,o),
(350,279,o),
(285,390,cs),
(220,501,o),
(188,623,o),
(188,754,cs),
(188,886,o),
(220,1008,o),
(285,1119,cs),
(350,1230,o),
(438,1318,o),
(549,1383,cs),
(660,1448,o),
(782,1481,o),
(915,1481,cs),
(1006,1481,o),
(1093,1464,o),
(1177,1430,cs),
(1261,1397,o),
(1334,1353,o),
(1395,1298,cs),
(1410,1285,o),
(1424,1285,o),
(1438,1300,cs),
(1452,1315,o),
(1451,1330,o),
(1436,1343,cs),
(1369,1405,o),
(1289,1454,o),
(1198,1489,cs),
(1107,1524,o),
(1013,1542,o),
(915,1542,cs),
(772,1542,o),
(640,1507,o),
(519,1436,cs),
(398,1366,o),
(303,1271,o),
(232,1150,cs),
(162,1029,o),
(127,898,o),
(127,755,cs),
(127,612,o),
(162,480,o),
(232,359,cs),
(303,238,o),
(398,143,o),
(519,72,cs),
(640,2,o),
(772,-33,o),
(915,-33,cs),
(1101,-32,o),
(1264,29,o),
(1405,150,c)
);
},
{
closed = 1;
nodes = (
(901,723,l),
(1622,723,l),
(1615,580,o),
(1570,449,o),
(1487,332,cs),
(1461,297,o),
(1434,265,o),
(1405,236,c)
);
}
);
};
layerId = m004;
shapes = (
{
closed = 1;
nodes = (
(1338,-30,o),
(1693,319,o),
(1699,756,cs),
(1700,830,o),
(1641,898,o),
(1559,898,cs),
(1482,898,o),
(1420,836,o),
(1419,760,cs),
(1415,438,o),
(1223,250,o),
(900,250,cs),
(573,250,o),
(380,441,o),
(380,767,cs),
(380,1093,o),
(573,1288,o),
(900,1288,cs),
(1062,1288,o),
(1160,1243,o),
(1268,1134,cs),
(1293,1109,o),
(1328,1093,o),
(1367,1093,cs),
(1445,1093,o),
(1507,1155,o),
(1507,1233,cs),
(1507,1271,o),
(1492,1306,o),
(1467,1331,cs),
(1323,1477,o),
(1122,1568,o),
(900,1568,cs),
(457,1568,o),
(100,1209,o),
(100,767,cs),
(100,325,o),
(457,-30,o),
(900,-30,cs)
);
},
{
closed = 1;
nodes = (
(1566,-54,o),
(1629,9,o),
(1629,86,cs),
(1629,127,o),
(1611,165,o),
(1583,190,cs),
(1104,618,l),
(1559,618,ls),
(1636,618,o),
(1699,681,o),
(1699,758,cs),
(1699,835,o),
(1636,898,o),
(1559,898,cs),
(842,898,ls),
(662,898,o),
(587,706,o),
(722,585,cs),
(1395,-18,ls),
(1420,-40,o),
(1453,-54,o),
(1489,-54,cs)
);
}
);
width = 1799;
},
{
anchors = (
{
name = _bottom;
pos = (923,0);
},
{
name = _top;
pos = (923,1538);
},
{
name = top;
pos = (923,1538);
}
);
associatedMasterId = m004;
background = {
hints = (
{
horizontal = 1;
place = (-33, 62);
place = (-33, 62);
type = Stem;
},
{
horizontal = 1;
place = (723, 61);
place = (723, 61);
type = Stem;
},
{
horizontal = 1;
place = (1481, 61);
place = (1481, 61);
type = Stem;
},
{
place = (127, 61);
place = (127, 61);
type = Stem;
},
{
place = (1622, 61);
place = (1622, 61);
type = Stem;
}
);
shapes = (
{
closed = 1;
nodes = (
(1583,-23,ls),
(1597,-36,o),
(1611,-36,o),
(1625,-21,cs),
(1640,-7,o),
(1639,8,o),
(1624,23,cs),
(1450,193,l),
(1480,224,o),
(1509,258,o),
(1536,295,cs),
(1634,433,o),
(1683,586,o),
(1683,754,cs),
(1683,773,o),
(1672,784,o),
(1653,784,cs),
(825,784,ls),
(812,784,o),
(802,778,o),
(797,765,cs),
(792,753,o),
(794,742,o),
(805,733,c),
(1360,193,l),
(1231,84,o),
(1083,29,o),
(915,29,cs),
(783,29,o),
(661,61,o),
(550,126,cs),
(439,191,o),
(350,279,o),
(285,390,cs),
(220,501,o),
(188,623,o),
(188,754,cs),
(188,886,o),
(220,1008,o),
(285,1119,cs),
(350,1230,o),
(438,1318,o),
(549,1383,cs),
(660,1448,o),
(782,1481,o),
(915,1481,cs),
(1006,1481,o),
(1093,1464,o),
(1177,1430,cs),
(1261,1397,o),
(1334,1353,o),
(1395,1298,cs),
(1410,1285,o),
(1424,1285,o),
(1438,1300,cs),
(1452,1315,o),
(1451,1330,o),
(1436,1343,cs),
(1369,1405,o),
(1289,1454,o),
(1198,1489,cs),
(1107,1524,o),
(1013,1542,o),
(915,1542,cs),
(772,1542,o),
(640,1507,o),
(519,1436,cs),
(398,1366,o),
(303,1271,o),
(232,1150,cs),
(162,1029,o),
(127,898,o),
(127,755,cs),
(127,612,o),
(162,480,o),
(232,359,cs),
(303,238,o),
(398,143,o),
(519,72,cs),
(640,2,o),
(772,-33,o),
(915,-33,cs),
(1101,-32,o),
(1264,29,o),
(1405,150,c)
);
},
{
closed = 1;
nodes = (
(901,723,l),
(1622,723,l),
(1615,580,o),
(1570,449,o),
(1487,332,cs),
(1461,297,o),
(1434,265,o),
(1405,236,c)
);
}
);
};
layerId = "D72E8596-168C-4264-9BF6-1BCB54B9617F";
name = "17 août 23 à 23:17";
shapes = (
{
closed = 0;
nodes = (
(1467,1331,l),
(1323,1477,o),
(1122,1568,o),
(900,1568,cs),
(457,1568,o),
(100,1209,o),
(100,767,cs),
(100,325,o),
(457,-30,o),
(900,-30,cs),
(1338,-30,o),
(1693,319,o),
(1699,756,c),
(828,756,l),
(1584,0,l)
);
}
);
width = 1847;
},
{
anchors = (
{
name = _bottom;
pos = (923,0);
},
{
name = _top;
pos = (923,1538);
},
{
name = top;
pos = (923,1538);
}
);
associatedMasterId = m004;
background = {
hints = (
{
horizontal = 1;
place = (-33, 62);
place = (-33, 62);
type = Stem;
},
{
horizontal = 1;
place = (723, 61);
place = (723, 61);
type = Stem;
},
{
horizontal = 1;
place = (1481, 61);
place = (1481, 61);
type = Stem;
},
{
place = (127, 61);
place = (127, 61);
type = Stem;
},
{
place = (1622, 61);
place = (1622, 61);
type = Stem;
}
);
shapes = (
{
closed = 1;
nodes = (
(1583,-23,ls),
(1597,-36,o),
(1611,-36,o),
(1625,-21,cs),
(1640,-7,o),
(1639,8,o),
(1624,23,cs),
(1450,193,l),
(1480,224,o),
(1509,258,o),
(1536,295,cs),
(1634,433,o),
(1683,586,o),
(1683,754,cs),
(1683,773,o),
(1672,784,o),
(1653,784,cs),
(825,784,ls),
(812,784,o),
(802,778,o),
(797,765,cs),
(792,753,o),
(794,742,o),
(805,733,c),
(1360,193,l),
(1231,84,o),
(1083,29,o),
(915,29,cs),
(783,29,o),
(661,61,o),
(550,126,cs),
(439,191,o),
(350,279,o),
(285,390,cs),
(220,501,o),
(188,623,o),
(188,754,cs),
(188,886,o),
(220,1008,o),
(285,1119,cs),
(350,1230,o),
(438,1318,o),
(549,1383,cs),
(660,1448,o),
(782,1481,o),
(915,1481,cs),
(1006,1481,o),
(1093,1464,o),
(1177,1430,cs),
(1261,1397,o),
(1334,1353,o),
(1395,1298,cs),
(1410,1285,o),
(1424,1285,o),
(1438,1300,cs),
(1452,1315,o),
(1451,1330,o),
(1436,1343,cs),
(1369,1405,o),
(1289,1454,o),
(1198,1489,cs),
(1107,1524,o),
(1013,1542,o),
(915,1542,cs),
(772,1542,o),
(640,1507,o),
(519,1436,cs),
(398,1366,o),
(303,1271,o),
(232,1150,cs),
(162,1029,o),
(127,898,o),
(127,755,cs),
(127,612,o),
(162,480,o),
(232,359,cs),
(303,238,o),
(398,143,o),
(519,72,cs),
(640,2,o),
(772,-33,o),
(915,-33,cs),
(1101,-32,o),
(1264,29,o),
(1405,150,c)
);
},
{
closed = 1;
nodes = (
(901,723,l),
(1622,723,l),
(1615,580,o),
(1570,449,o),
(1487,332,cs),
(1461,297,o),
(1434,265,o),
(1405,236,c)
);
}
);
};
layerId = "B1DF5033-7FF4-4C1F-A100-9E00C2B2EA2D";
name = "17 août 23 à 23:23";
shapes = (
{
closed = 1;
nodes = (
(1810,169,o),
(1825,135,o),
(1825,97,cs),
(1825,20,o),
(1762,-43,o),
(1685,-43,cs),
(1645,-43,o),
(1609,-26,o),
(1584,0,cs),
(982,624,ls),
(867,744,o),
(940,914,o),
(1106,914,cs),
(1570,914,ls),
(1644,914,o),
(1700,858,o),
(1694,783,cs),
(1647,234,o),
(1307,-30,o),
(900,-30,cs),
(457,-30,o),
(100,325,o),
(100,767,cs),
(100,1209,o),
(457,1568,o),
(900,1568,cs),
(1122,1568,o),
(1323,1477,o),
(1467,1331,cs),
(1492,1306,o),
(1507,1271,o),
(1507,1233,cs),
(1507,1155,o),
(1445,1093,o),
(1367,1093,cs),
(1328,1093,o),
(1293,1109,o),
(1268,1134,cs),
(1160,1243,o),
(1062,1288,o),
(900,1288,cs),
(573,1288,o),
(380,1093,o),
(380,767,cs),
(380,441,o),
(573,250,o),
(900,250,cs),
(1163,250,o),
(1333,346,o),
(1394,634,c),
(1362,634,l),
(1786,194,ls)
);
}
);
width = 1847;
},
{
anchors = (
{
name = _bottom;
pos = (923,0);
},
{
name = _top;
pos = (923,1538);
},
{
name = top;
pos = (923,1538);
}
);
associatedMasterId = "12AF635E-66FE-4C90-B49C-8787585F2B73";
background = {
hints = (
{
horizontal = 1;
place = (-33, 62);
place = (-33, 62);
type = Stem;
},
{
horizontal = 1;
place = (723, 61);
place = (723, 61);
type = Stem;
},
{
horizontal = 1;
place = (1481, 61);
place = (1481, 61);
type = Stem;
},
{
place = (127, 61);
place = (127, 61);
type = Stem;
},
{
place = (1622, 61);
place = (1622, 61);
type = Stem;
}
);
shapes = (
{
closed = 1;
nodes = (
(1583,-23,ls),
(1597,-36,o),
(1611,-36,o),
(1625,-21,cs),
(1640,-7,o),
(1639,8,o),
(1624,23,cs),
(1450,193,l),
(1480,224,o),
(1509,258,o),
(1536,295,cs),
(1634,433,o),
(1683,586,o),
(1683,754,cs),
(1683,773,o),
(1672,784,o),
(1653,784,cs),
(825,784,ls),
(812,784,o),
(802,778,o),
(797,765,cs),
(792,753,o),
(794,742,o),
(805,733,c),
(1360,193,l),
(1231,84,o),
(1083,29,o),
(915,29,cs),
(783,29,o),
(661,61,o),
(550,126,cs),
(439,191,o),
(350,279,o),
(285,390,cs),
(220,501,o),
(188,623,o),
(188,754,cs),
(188,886,o),
(220,1008,o),
(285,1119,cs),
(350,1230,o),
(438,1318,o),
(549,1383,cs),
(660,1448,o),
(782,1481,o),
(915,1481,cs),
(1006,1481,o),
(1093,1464,o),
(1177,1430,cs),
(1261,1397,o),
(1334,1353,o),
(1395,1298,cs),
(1410,1285,o),
(1424,1285,o),
(1438,1300,cs),
(1452,1315,o),
(1451,1330,o),
(1436,1343,cs),
(1369,1405,o),
(1289,1454,o),
(1198,1489,cs),
(1107,1524,o),
(1013,1542,o),
(915,1542,cs),
(772,1542,o),
(640,1507,o),
(519,1436,cs),
(398,1366,o),
(303,1271,o),
(232,1150,cs),
(162,1029,o),
(127,898,o),
(127,755,cs),
(127,612,o),
(162,480,o),
(232,359,cs),
(303,238,o),
(398,143,o),
(519,72,cs),
(640,2,o),
(772,-33,o),
(915,-33,cs),
(1101,-32,o),
(1264,29,o),
(1405,150,c)
);
},
{
closed = 1;
nodes = (
(901,723,l),
(1622,723,l),
(1615,580,o),
(1570,449,o),
(1487,332,cs),
(1461,297,o),
(1434,265,o),
(1405,236,c)
);
}
);
};
layerId = "081D73AD-A605-403F-8362-3AF93D5BB7E0";
name = "17 août 23 à 23:24";
shapes = (
{
closed = 1;
nodes = (
(1613,56,o),
(1616,49,o),
(1616,40,cs),
(1616,24,o),
(1603,10,o),
(1586,10,cs),
(1578,10,o),
(1570,14,o),
(1565,19,cs),
(904,680,ls),
(873,711,o),
(893,756,o),
(936,756,cs),
(1666,756,ls),
(1685,756,o),
(1699,742,o),
(1698,723,cs),
(1675,302,o),
(1327,-30,o),
(900,-30,cs),
(457,-30,o),
(100,325,o),
(100,767,cs),
(100,1209,o),
(457,1568,o),
(900,1568,cs),
(1112,1568,o),
(1305,1485,o),
(1447,1351,cs),
(1453,1345,o),
(1456,1337,o),
(1456,1329,cs),
(1456,1312,o),
(1443,1299,o),
(1426,1299,cs),
(1418,1299,o),
(1411,1302,o),
(1406,1307,cs),
(1272,1434,o),
(1100,1508,o),
(900,1508,cs),
(482,1508,o),
(160,1184,o),
(160,767,cs),
(160,350,o),
(482,30,o),
(900,30,cs),
(1293,30,o),
(1601,314,o),
(1636,696,c),
(973,696,l),
(1607,62,ls)
);
}
);
width = 1847;
},
{
anchors = (
{
name = _bottom;
pos = (923,0);
},
{
name = _top;
pos = (923,1538);
},
{
name = top;
pos = (923,1538);
}
);
associatedMasterId = "12AF635E-66FE-4C90-B49C-8787585F2B73";
background = {
hints = (
{
horizontal = 1;
place = (-33, 62);
place = (-33, 62);
type = Stem;
},
{
horizontal = 1;
place = (723, 61);
place = (723, 61);
type = Stem;
},
{
horizontal = 1;
place = (1481, 61);
place = (1481, 61);
type = Stem;
},
{
place = (127, 61);
place = (127, 61);
type = Stem;
},
{
place = (1622, 61);
place = (1622, 61);
type = Stem;
}
);
shapes = (
{
closed = 1;
nodes = (
(1583,-23,ls),
(1597,-36,o),
(1611,-36,o),
(1625,-21,cs),
(1640,-7,o),
(1639,8,o),
(1624,23,cs),
(1450,193,l),
(1480,224,o),
(1509,258,o),
(1536,295,cs),
(1634,433,o),
(1683,586,o),
(1683,754,cs),
(1683,773,o),
(1672,784,o),
(1653,784,cs),
(825,784,ls),
(812,784,o),
(802,778,o),
(797,765,cs),
(792,753,o),
(794,742,o),
(805,733,c),
(1360,193,l),
(1231,84,o),
(1083,29,o),
(915,29,cs),
(783,29,o),
(661,61,o),
(550,126,cs),
(439,191,o),
(350,279,o),
(285,390,cs),
(220,501,o),
(188,623,o),
(188,754,cs),
(188,886,o),
(220,1008,o),
(285,1119,cs),
(350,1230,o),
(438,1318,o),
(549,1383,cs),
(660,1448,o),
(782,1481,o),
(915,1481,cs),
(1006,1481,o),
(1093,1464,o),
(1177,1430,cs),
(1261,1397,o),
(1334,1353,o),
(1395,1298,cs),
(1410,1285,o),
(1424,1285,o),
(1438,1300,cs),
(1452,1315,o),
(1451,1330,o),
(1436,1343,cs),
(1369,1405,o),
(1289,1454,o),
(1198,1489,cs),
(1107,1524,o),
(1013,1542,o),
(915,1542,cs),
(772,1542,o),
(640,1507,o),
(519,1436,cs),
(398,1366,o),
(303,1271,o),
(232,1150,cs),
(162,1029,o),
(127,898,o),
(127,755,cs),
(127,612,o),
(162,480,o),
(232,359,cs),
(303,238,o),
(398,143,o),
(519,72,cs),
(640,2,o),
(772,-33,o),
(915,-33,cs),
(1101,-32,o),
(1264,29,o),
(1405,150,c)
);
},
{
closed = 1;
nodes = (
(901,723,l),
(1622,723,l),
(1615,580,o),
(1570,449,o),
(1487,332,cs),
(1461,297,o),
(1434,265,o),
(1405,236,c)
);
}
);
};
layerId = "1EFF8700-76F8-4395-B57A-67CC7299E7FB";
name = "17 août 23 à 23:26";
shapes = (
{
closed = 1;
nodes = (
(925,696,l),
(1636,696,l),
(1601,314,o),
(1293,30,o),
(900,30,cs),
(482,30,o),
(160,350,o),
(160,767,cs),
(160,1184,o),
(482,1508,o),
(900,1508,cs),
(1100,1508,o),
(1272,1434,o),
(1406,1307,cs),
(1411,1302,o),
(1418,1299,o),
(1426,1299,cs),
(1443,1299,o),
(1456,1312,o),
(1456,1329,cs),
(1456,1337,o),
(1453,1345,o),
(1447,1351,cs),
(1305,1485,o),
(1112,1568,o),
(900,1568,cs),
(457,1568,o),
(100,1209,o),
(100,767,cs),
(100,325,o),
(457,-30,o),
(900,-30,cs),
(1338,-30,o),
(1693,319,o),
(1699,756,c),
(765,756,l),
(1620,11,ls),
(1625,6,o),
(1632,3,o),
(1639,3,cs),
(1656,3,o),
(1669,17,o),
(1669,33,cs),
(1669,42,o),
(1665,50,o),
(1659,56,cs)
);
}
);
width = 1847;
},
{
anchors = (
{
name = bottom;
pos = (899,0);
},
{
name = top;
pos = (899,1538);
}
);
background = {
hints = (
{
horizontal = 1;
place = (-33, 62);
place = (-33, 62);
type = Stem;
},
{
horizontal = 1;
place = (723, 61);
place = (723, 61);
type = Stem;
},
{
horizontal = 1;
place = (1481, 61);
place = (1481, 61);
type = Stem;
},
{
place = (127, 61);
place = (127, 61);
type = Stem;
},
{
place = (1622, 61);
place = (1622, 61);
type = Stem;
}
);
shapes = (
{
closed = 1;
nodes = (
(1583,-23,ls),
(1597,-36,o),
(1611,-36,o),
(1625,-21,cs),
(1640,-7,o),
(1639,8,o),
(1624,23,cs),
(1450,193,l),
(1480,224,o),
(1509,258,o),
(1536,295,cs),
(1634,433,o),
(1683,586,o),
(1683,754,cs),
(1683,773,o),
(1672,784,o),
(1653,784,cs),
(825,784,ls),
(812,784,o),
(802,778,o),
(797,765,cs),
(792,753,o),
(794,742,o),
(805,733,c),
(1360,193,l),
(1231,84,o),
(1083,29,o),
(915,29,cs),
(783,29,o),
(661,61,o),
(550,126,cs),
(439,191,o),
(350,279,o),
(285,390,cs),
(220,501,o),
(188,623,o),
(188,754,cs),
(188,886,o),
(220,1008,o),
(285,1119,cs),
(350,1230,o),
(438,1318,o),
(549,1383,cs),
(660,1448,o),
(782,1481,o),
(915,1481,cs),
(1006,1481,o),
(1093,1464,o),
(1177,1430,cs),
(1261,1397,o),
(1334,1353,o),
(1395,1298,cs),
(1410,1285,o),
(1424,1285,o),
(1438,1300,cs),
(1452,1315,o),
(1451,1330,o),
(1436,1343,cs),
(1369,1405,o),
(1289,1454,o),
(1198,1489,cs),
(1107,1524,o),
(1013,1542,o),
(915,1542,cs),
(772,1542,o),
(640,1507,o),
(519,1436,cs),
(398,1366,o),
(303,1271,o),
(232,1150,cs),
(162,1029,o),
(127,898,o),
(127,755,cs),
(127,612,o),
(162,480,o),
(232,359,cs),
(303,238,o),
(398,143,o),
(519,72,cs),
(640,2,o),
(772,-33,o),
(915,-33,cs),
(1101,-32,o),
(1264,29,o),
(1405,150,c)
);
},
{
closed = 1;
nodes = (
(901,723,l),
(1622,723,l),
(1615,580,o),
(1570,449,o),
(1487,332,cs),
(1461,297,o),
(1434,265,o),
(1405,236,c)
);
}
);
};
layerId = "12AF635E-66FE-4C90-B49C-8787585F2B73";
name = Light;
shapes = (
{
closed = 1;
nodes = (
(1329,-30,o),
(1678,304,o),
(1698,728,cs),
(1699,745,o),
(1685,759,o),
(1668,759,cs),
(1652,759,o),
(1639,747,o),
(1638,731,cs),
(1620,331,o),
(1305,30,o),
(900,30,cs),
(482,30,o),
(160,350,o),
(160,767,cs),
(160,1184,o),
(482,1508,o),
(900,1508,cs),
(1100,1508,o),
(1272,1434,o),
(1406,1307,cs),
(1411,1302,o),
(1418,1299,o),
(1426,1299,cs),
(1443,1299,o),
(1456,1312,o),
(1456,1329,cs),
(1456,1337,o),
(1453,1345,o),
(1447,1351,cs),
(1305,1485,o),
(1112,1568,o),
(900,1568,cs),
(457,1568,o),
(100,1209,o),
(100,767,cs),
(100,325,o),
(457,-30,o),
(900,-30,cs)
);
},
{
closed = 1;
nodes = (
(1598,13,o),
(1611,27,o),
(1611,43,cs),
(1611,52,o),
(1608,59,o),
(1602,65,cs),
(968,699,l),
(1667,699,ls),
(1684,699,o),
(1697,712,o),
(1697,729,cs),
(1697,746,o),
(1684,759,o),
(1667,759,cs),
(931,759,ls),
(888,759,o),
(868,714,o),
(899,683,cs),
(1560,22,ls),
(1565,17,o),
(1573,13,o),
(1581,13,cs)
);
}
);
width = 1798;
},
{
anchors = (
{
name = _bottom;
pos = (923,0);
},
{
name = _top;
pos = (923,1538);
},
{
name = top;
pos = (923,1538);
}
);
associatedMasterId = "12AF635E-66FE-4C90-B49C-8787585F2B73";
background = {
hints = (
{
horizontal = 1;
place = (-33, 62);
place = (-33, 62);
type = Stem;
},
{
horizontal = 1;
place = (723, 61);
place = (723, 61);
type = Stem;
},
{
horizontal = 1;
place = (1481, 61);
place = (1481, 61);
type = Stem;
},
{
place = (127, 61);
place = (127, 61);
type = Stem;
},
{
place = (1622, 61);
place = (1622, 61);
type = Stem;
}
);
shapes = (
{
closed = 1;
nodes = (
(1583,-23,ls),
(1597,-36,o),
(1611,-36,o),
(1625,-21,cs),
(1640,-7,o),
(1639,8,o),
(1624,23,cs),
(1450,193,l),
(1480,224,o),
(1509,258,o),
(1536,295,cs),
(1634,433,o),
(1683,586,o),
(1683,754,cs),
(1683,773,o),
(1672,784,o),
(1653,784,cs),
(825,784,ls),
(812,784,o),
(802,778,o),
(797,765,cs),
(792,753,o),
(794,742,o),
(805,733,c),
(1360,193,l),
(1231,84,o),
(1083,29,o),
(915,29,cs),
(783,29,o),
(661,61,o),
(550,126,cs),
(439,191,o),
(350,279,o),
(285,390,cs),
(220,501,o),
(188,623,o),
(188,754,cs),
(188,886,o),
(220,1008,o),
(285,1119,cs),
(350,1230,o),
(438,1318,o),
(549,1383,cs),
(660,1448,o),
(782,1481,o),
(915,1481,cs),
(1006,1481,o),
(1093,1464,o),
(1177,1430,cs),
(1261,1397,o),
(1334,1353,o),
(1395,1298,cs),
(1410,1285,o),
(1424,1285,o),
(1438,1300,cs),
(1452,1315,o),
(1451,1330,o),
(1436,1343,cs),
(1369,1405,o),
(1289,1454,o),
(1198,1489,cs),
(1107,1524,o),
(1013,1542,o),
(915,1542,cs),
(772,1542,o),
(640,1507,o),
(519,1436,cs),
(398,1366,o),
(303,1271,o),
(232,1150,cs),
(162,1029,o),
(127,898,o),
(127,755,cs),
(127,612,o),
(162,480,o),
(232,359,cs),
(303,238,o),
(398,143,o),
(519,72,cs),
(640,2,o),
(772,-33,o),
(915,-33,cs),
(1101,-32,o),
(1264,29,o),
(1405,150,c)
);
},
{
closed = 1;
nodes = (
(901,723,l),
(1622,723,l),
(1615,580,o),
(1570,449,o),
(1487,332,cs),
(1461,297,o),
(1434,265,o),
(1405,236,c)
);
}
);
};
layerId = "AD099D33-B9CD-4A81-A55B-71318F6B4A6B";
name = "17 août 23 à 23:26";
shapes = (
{
closed = 0;
nodes = (
(1467,1331,l),
(1323,1477,o),
(1122,1568,o),
(900,1568,cs),
(457,1568,o),
(100,1209,o),
(100,767,cs),
(100,325,o),
(457,-30,o),
(900,-30,cs),
(1338,-30,o),
(1693,319,o),
(1699,756,c),
(828,756,l),
(1584,0,l)
);
}
);
width = 1847;
}
);
note = G;
unicode = 71;
},
{
glyphname = H;
kernLeft = H;
kernRight = H;
lastChange = "2023-09-14 04:35:09 +0000";
layers = (
{
anchors = (
{
name = bottom;
pos = (686,0);
},
{
name = center;
pos = (686,769);
},
{
name = top;
pos = (686,1538);
},
{
name = topleft;
pos = (20,1538);
}
);
background = {
hints = (
{
horizontal = 1;
place = (-31, 21);
target = up;
type = BottomGhost;
},
{
horizontal = 1;
place = (559, 62);
place = (559, 62);
type = Stem;
},
{
place = (244, 61);
place = (244, 61);
type = Stem;
},
{
place = (1206, 62);
place = (1206, 62);
type = Stem;
}
);
shapes = (
{
closed = 1;
nodes = (
(210,0,ls),
(210,-16,o),
(224,-31,o),
(240,-31,cs),
(257,-31,o),
(271,-16,o),
(271,0,cs),
(271,559,l),
(1172,559,l),
(1172,0,ls),
(1172,-21,o),
(1182,-31,o),
(1203,-31,cs),
(1224,-31,o),
(1234,-21,o),
(1234,0,cs),
(1234,1507,ls),
(1234,1528,o),
(1224,1538,o),
(1203,1538,cs),
(1182,1538,o),
(1172,1528,o),
(1172,1507,cs),
(1172,666,l),
(746,1098,l),
(731,1111,o),
(716,1111,o),
(703,1098,cs),
(271,666,l),
(271,1507,l),
(273,1548,o),
(208,1546,o),
(210,1507,c)
);
},
{
closed = 1;
nodes = (
(1129,621,l),
(314,621,l),
(724,1032,l)
);
}
);
};
layerId = "12AF635E-66FE-4C90-B49C-8787585F2B73";
shapes = (
{
closed = 1;
nodes = (
(1207,562,l),
(1207,628,l),
(708,1128,ls),
(695,1141,o),
(677,1141,o),
(664,1128,cs),
(160,624,l),
(160,562,l)
);
},
{
closed = 1;
nodes = (
(187,-3,o),
(200,10,o),
(200,27,cs),
(200,1511,ls),
(200,1528,o),
(187,1541,o),
(170,1541,cs),
(153,1541,o),
(140,1528,o),
(140,1511,cs),
(140,27,ls),
(140,10,o),
(153,-3,o),
(170,-3,cs)
);
},
{
closed = 1;
nodes = (
(686,1066,l),
(1129,622,l),
(242,622,l)
);
},
{
closed = 1;
nodes = (
(1218,-3,o),
(1231,10,o),
(1231,27,cs),
(1231,1511,ls),
(1231,1528,o),
(1218,1541,o),
(1201,1541,cs),
(1184,1541,o),
(1171,1528,o),
(1171,1511,cs),
(1171,27,ls),
(1171,10,o),
(1184,-3,o),
(1201,-3,cs)
);
}
);
width = 1371;
},
{
anchors = (
{
name = bottom;
pos = (796,0);
},
{
name = center;
pos = (796,769);
},
{
name = top;
pos = (796,1538);
},
{
name = topleft;
pos = (20,1538);
}
);
background = {
hints = (
{
horizontal = 1;
place = (-31, 21);
target = up;
type = BottomGhost;
},
{
horizontal = 1;
place = (559, 62);
place = (559, 62);
type = Stem;
},
{
place = (244, 61);
place = (244, 61);
type = Stem;
},
{
place = (1206, 62);
place = (1206, 62);
type = Stem;
}
);
shapes = (
{
closed = 1;
nodes = (
(320,0,ls),
(320,-16,o),
(334,-31,o),
(350,-31,cs),
(367,-31,o),
(381,-16,o),
(381,0,cs),
(381,559,l),
(1282,559,l),
(1282,0,ls),
(1282,-21,o),
(1292,-31,o),
(1313,-31,cs),
(1334,-31,o),
(1344,-21,o),
(1344,0,cs),
(1344,1507,ls),
(1344,1528,o),
(1334,1538,o),
(1313,1538,cs),
(1292,1538,o),
(1282,1528,o),
(1282,1507,cs),
(1282,666,l),
(856,1098,l),
(841,1111,o),
(826,1111,o),
(813,1098,cs),
(381,666,l),
(381,1507,l),
(383,1548,o),
(318,1546,o),
(320,1507,c)
);
},
{
closed = 1;
nodes = (
(1239,621,l),
(424,621,l),
(834,1032,l)
);
}
);
};
layerId = m004;
shapes = (
{
closed = 1;
nodes = (
(1354,452,l),
(1354,747,l),
(883,1219,ls),
(833,1270,o),
(759,1269,o),
(709,1219,cs),
(237,747,l),
(237,452,l)
);
},
{
closed = 1;
nodes = (
(357,0,o),
(420,63,o),
(420,140,cs),
(420,1398,ls),
(420,1475,o),
(357,1538,o),
(280,1538,cs),
(203,1538,o),
(140,1475,o),
(140,1398,cs),
(140,140,ls),
(140,63,o),
(203,0,o),
(280,0,cs)
);
},
{
closed = 1;
nodes = (
(796,910,l),
(973,732,l),
(618,732,l)
);
},
{
closed = 1;
nodes = (
(1388,0,o),
(1451,63,o),
(1451,140,cs),
(1451,1398,ls),
(1451,1475,o),
(1388,1538,o),
(1311,1538,cs),
(1234,1538,o),
(1171,1475,o),
(1171,1398,cs),
(1171,140,ls),
(1171,63,o),
(1234,0,o),
(1311,0,cs)
);
}
);
width = 1591;
},
{
anchors = (
{
name = _bottom;
pos = (754,0);
},
{
name = _top;
pos = (754,1538);
},
{
name = top;
pos = (754,1538);
}
);
associatedMasterId = "12AF635E-66FE-4C90-B49C-8787585F2B73";
background = {
hints = (
{
horizontal = 1;
place = (-31, 21);
target = up;
type = BottomGhost;
},
{
horizontal = 1;
place = (559, 62);
place = (559, 62);
type = Stem;
},
{
place = (244, 61);
place = (244, 61);
type = Stem;
},
{
place = (1206, 62);
place = (1206, 62);
type = Stem;
}
);
shapes = (
{
closed = 1;
nodes = (
(244,0,ls),
(244,-16,o),
(258,-31,o),
(274,-31,cs),
(291,-31,o),
(305,-16,o),
(305,0,cs),
(305,559,l),
(1206,559,l),
(1206,0,ls),
(1206,-21,o),
(1216,-31,o),
(1237,-31,cs),
(1258,-31,o),
(1268,-21,o),
(1268,0,cs),
(1268,1507,ls),
(1268,1528,o),
(1258,1538,o),
(1237,1538,cs),
(1216,1538,o),
(1206,1528,o),
(1206,1507,cs),
(1206,666,l),
(780,1098,l),
(765,1111,o),
(750,1111,o),
(737,1098,cs),
(305,666,l),
(305,1507,l),
(307,1548,o),
(242,1546,o),
(244,1507,c)
);
},
{
closed = 1;
nodes = (
(1163,621,l),
(348,621,l),
(758,1032,l)
);
}
);
};
layerId = "63024789-3F83-4289-BDE0-BD62D686B326";
name = "17 août 23 à 23:21";
shapes = (
{
closed = 0;
nodes = (
(204,0,l),
(204,1538,l)
);
},
{
closed = 0;
nodes = (
(1235,0,l),
(1235,1538,l)
);
},
{
closed = 1;
nodes = (
(204,592,l),
(1235,592,l),
(720,1108,l)
);
}
);
width = 1509;
},
{
anchors = (
{
name = _bottom;
pos = (754,0);
},
{
name = _top;
pos = (754,1538);
},
{
name = top;
pos = (754,1538);
}
);
associatedMasterId = m004;
background = {
hints = (
{
horizontal = 1;
place = (-31, 21);
target = up;
type = BottomGhost;
},
{
horizontal = 1;
place = (559, 62);
place = (559, 62);
type = Stem;
},
{
place = (244, 61);
place = (244, 61);
type = Stem;
},
{
place = (1206, 62);
place = (1206, 62);
type = Stem;
}
);
shapes = (
{
closed = 1;
nodes = (
(244,0,ls),
(244,-16,o),
(258,-31,o),
(274,-31,cs),
(291,-31,o),
(305,-16,o),
(305,0,cs),
(305,559,l),
(1206,559,l),
(1206,0,ls),
(1206,-21,o),
(1216,-31,o),
(1237,-31,cs),
(1258,-31,o),
(1268,-21,o),
(1268,0,cs),
(1268,1507,ls),
(1268,1528,o),
(1258,1538,o),
(1237,1538,cs),
(1216,1538,o),
(1206,1528,o),
(1206,1507,cs),
(1206,666,l),
(780,1098,l),
(765,1111,o),
(750,1111,o),
(737,1098,cs),
(305,666,l),
(305,1507,l),
(307,1548,o),
(242,1546,o),
(244,1507,c)
);
},
{
closed = 1;
nodes = (
(1163,621,l),
(348,621,l),
(758,1032,l)
);
}
);
};
layerId = "F5DDA098-E8A2-4420-B624-3B5A0E8EB72A";
name = "17 août 23 à 23:21";
shapes = (
{
closed = 0;
nodes = (
(204,0,l),
(204,1538,l)
);
},
{
closed = 0;
nodes = (
(1235,0,l),
(1235,1538,l)
);
},
{
closed = 1;
nodes = (
(204,592,l),
(1235,592,l),
(720,1108,l)
);
}
);
width = 1509;
}
);
note = H;
unicode = 72;
},
{
glyphname = Hbar;
lastChange = "2023-09-14 04:35:09 +0000";
layers = (
{
layerId = "12AF635E-66FE-4C90-B49C-8787585F2B73";
shapes = (
{
closed = 1;
nodes = (
(1355,1086,ls),
(1372,1086,o),
(1385,1099,o),
(1385,1116,cs),
(1385,1133,o),
(1372,1146,o),
(1355,1146,cs),
(40,1146,ls),
(23,1146,o),
(10,1133,o),
(10,1116,cs),
(10,1099,o),
(23,1086,o),
(40,1086,cs)
);
},
{
pos = (12,0);
ref = H;
}
);
width = 1395;
},
{
layerId = m004;
shapes = (
{
closed = 1;
nodes = (
(1685,998,ls),
(1762,998,o),
(1825,1061,o),
(1825,1138,cs),
(1825,1215,o),
(1762,1278,o),
(1685,1278,cs),
(150,1278,ls),
(73,1278,o),
(10,1215,o),
(10,1138,cs),
(10,1061,o),
(73,998,o),
(150,998,cs)
);
},
{
pos = (122,0);
ref = H;
}
);
width = 1835;
}
);
unicode = 294;
},
{
glyphname = I;
kernLeft = I;
kernRight = I;
lastChange = "2023-09-14 04:35:09 +0000";
layers = (
{
anchors = (
{
name = bottom;
pos = (413,0);
},
{
name = ogonek;
pos = (620,18);
},
{
name = top;
pos = (413,1538);
},
{
name = topleft;
pos = (27,1538);
}
);
background = {
hints = (
{
horizontal = 1;
place = (-31, 62);
place = (-31, 62);
type = Stem;
},
{
horizontal = 1;
place = (1477, 61);
place = (1477, 61);
type = Stem;
},
{
place = (375, 61);
place = (375, 61);
type = Stem;
}
);
shapes = (
{
closed = 1;
nodes = (
(382,31,l),
(173,31,ls),
(152,31,o),
(142,21,o),
(142,0,cs),
(142,-21,o),
(152,-31,o),
(173,-31,cs),
(652,-31,ls),
(673,-31,o),
(683,-21,o),
(683,0,cs),
(683,21,o),
(673,31,o),
(652,31,cs),
(443,31,l),
(443,1477,l),
(652,1477,ls),
(673,1477,o),
(683,1487,o),
(683,1507,cs),
(683,1528,o),
(673,1538,o),
(652,1538,cs),
(173,1538,ls),
(152,1538,o),
(142,1528,o),
(142,1507,cs),
(142,1487,o),
(152,1477,o),
(173,1477,cs),
(382,1477,l)
);
}
);
};
layerId = "12AF635E-66FE-4C90-B49C-8787585F2B73";
shapes = (
{
closed = 1;
nodes = (
(430,27,o),
(443,40,o),
(443,57,cs),
(443,1481,ls),
(443,1498,o),
(430,1511,o),
(413,1511,cs),
(396,1511,o),
(383,1498,o),
(383,1481,cs),
(383,57,ls),
(383,40,o),
(396,27,o),
(413,27,cs)
);
},
{
closed = 1;
nodes = (
(657,0,ls),
(674,0,o),
(687,13,o),
(687,30,cs),
(687,47,o),
(674,60,o),
(657,60,cs),
(170,60,ls),
(153,60,o),
(140,47,o),
(140,30,cs),
(140,13,o),
(153,0,o),
(170,0,cs)
);
},
{
closed = 1;
nodes = (
(657,1478,ls),
(674,1478,o),
(687,1491,o),
(687,1508,cs),
(687,1525,o),
(674,1538,o),
(657,1538,cs),
(170,1538,ls),
(153,1538,o),
(140,1525,o),
(140,1508,cs),
(140,1491,o),
(153,1478,o),
(170,1478,cs)
);
}
);
width = 827;
},
{
anchors = (
{
name = bottom;
pos = (550,0);
},
{
name = ogonek;
pos = (781,120);
},
{
name = top;
pos = (550,1538);
},
{
name = topleft;
pos = (164,1538);
}
);
background = {
hints = (
{
horizontal = 1;
place = (-31, 62);
place = (-31, 62);
type = Stem;
},
{
horizontal = 1;
place = (1477, 61);
place = (1477, 61);
type = Stem;
},
{
place = (375, 61);
place = (375, 61);
type = Stem;
}
);
shapes = (
{
closed = 1;
nodes = (
(519,31,l),
(310,31,ls),
(289,31,o),
(279,21,o),
(279,0,cs),
(279,-21,o),
(289,-31,o),
(310,-31,cs),
(789,-31,ls),
(810,-31,o),
(820,-21,o),
(820,0,cs),
(820,21,o),
(810,31,o),
(789,31,cs),
(580,31,l),
(580,1477,l),
(789,1477,ls),
(810,1477,o),
(820,1487,o),
(820,1507,cs),
(820,1528,o),
(810,1538,o),
(789,1538,cs),
(310,1538,ls),
(289,1538,o),
(279,1528,o),
(279,1507,cs),
(279,1487,o),
(289,1477,o),
(310,1477,cs),
(519,1477,l)
);
}
);
};
layerId = m004;
shapes = (
{
closed = 1;
nodes = (
(627,0,o),
(690,63,o),
(690,140,cs),
(690,1398,ls),
(690,1475,o),
(627,1538,o),
(550,1538,cs),
(473,1538,o),
(410,1475,o),
(410,1398,cs),
(410,140,ls),
(410,63,o),
(473,0,o),
(550,0,cs)
);
},
{
closed = 1;
nodes = (
(821,0,ls),
(898,0,o),
(961,63,o),
(961,140,cs),
(961,217,o),
(898,280,o),
(821,280,cs),
(280,280,ls),
(203,280,o),
(140,217,o),
(140,140,cs),
(140,63,o),
(203,0,o),
(280,0,cs)
);
},
{
closed = 1;
nodes = (
(821,1258,ls),
(898,1258,o),
(961,1321,o),
(961,1398,cs),
(961,1475,o),
(898,1538,o),
(821,1538,cs),
(280,1538,ls),
(203,1538,o),
(140,1475,o),
(140,1398,cs),
(140,1321,o),
(203,1258,o),
(280,1258,cs)
);
}
);
width = 1101;
},
{
anchors = (
{
name = _bottom;
pos = (405,0);
},
{
name = _top;
pos = (405,1538);
},
{
name = top;
pos = (405,1538);
}
);
associatedMasterId = m004;
background = {
hints = (
{
horizontal = 1;
place = (-31, 62);
place = (-31, 62);
type = Stem;
},
{
horizontal = 1;
place = (1477, 61);
place = (1477, 61);
type = Stem;
},
{
place = (375, 61);
place = (375, 61);
type = Stem;
}
);
shapes = (
{
closed = 1;
nodes = (
(375,31,l),
(166,31,ls),
(145,31,o),
(135,21,o),
(135,0,cs),
(135,-21,o),
(145,-31,o),
(166,-31,cs),
(645,-31,ls),
(666,-31,o),
(676,-21,o),
(676,0,cs),
(676,21,o),
(666,31,o),
(645,31,cs),
(436,31,l),
(436,1477,l),
(645,1477,ls),
(666,1477,o),
(676,1487,o),
(676,1507,cs),
(676,1528,o),
(666,1538,o),
(645,1538,cs),
(166,1538,ls),
(145,1538,o),
(135,1528,o),
(135,1507,cs),
(135,1487,o),
(145,1477,o),
(166,1477,cs),
(375,1477,l)
);
}
);
};
layerId = "60F0A9F2-D874-4C97-B509-DA71F13FCDDC";
name = "18 août 23 à 00:16";
shapes = (
{
closed = 0;
nodes = (
(406,0,l),
(406,1538,l)
);
},
{
closed = 0;
nodes = (
(136,1538,l),
(677,1538,l)
);
},
{
closed = 0;
nodes = (
(136,0,l),
(677,0,l)
);
}
);
width = 811;
},
{
anchors = (
{
name = _bottom;
pos = (405,0);
},
{
name = _top;
pos = (405,1538);
},
{
name = top;
pos = (405,1538);
}
);
associatedMasterId = "12AF635E-66FE-4C90-B49C-8787585F2B73";
background = {
hints = (
{
horizontal = 1;
place = (-31, 62);
place = (-31, 62);
type = Stem;
},
{
horizontal = 1;
place = (1477, 61);
place = (1477, 61);
type = Stem;
},
{
place = (375, 61);
place = (375, 61);
type = Stem;
}
);
shapes = (
{
closed = 1;
nodes = (
(375,31,l),
(166,31,ls),
(145,31,o),
(135,21,o),
(135,0,cs),
(135,-21,o),
(145,-31,o),
(166,-31,cs),
(645,-31,ls),
(666,-31,o),
(676,-21,o),
(676,0,cs),
(676,21,o),
(666,31,o),
(645,31,cs),
(436,31,l),
(436,1477,l),
(645,1477,ls),
(666,1477,o),
(676,1487,o),
(676,1507,cs),
(676,1528,o),
(666,1538,o),
(645,1538,cs),
(166,1538,ls),
(145,1538,o),
(135,1528,o),
(135,1507,cs),
(135,1487,o),
(145,1477,o),
(166,1477,cs),
(375,1477,l)
);
}
);
};
layerId = "55B8DFE6-C68F-49F1-9575-7C29F2024E90";
name = "18 août 23 à 00:16";
shapes = (
{
closed = 0;
nodes = (
(406,0,l),
(406,1538,l)
);
},
{
closed = 0;
nodes = (
(136,1538,l),
(677,1538,l)
);
},
{
closed = 0;
nodes = (
(136,0,l),
(677,0,l)
);
}
);
width = 811;
}
);
note = I;
unicode = 73;
},
{
glyphname = J;
kernLeft = J;
kernRight = H;
lastChange = "2023-09-14 04:35:09 +0000";
layers = (
{
anchors = (
{
name = bottom;
pos = (519,0);
},
{
name = top;
pos = (559,1538);
}
);
background = {
hints = (
{
horizontal = 1;
place = (-31, 62);
place = (-31, 62);
type = Stem;
},
{
horizontal = 1;
place = (1477, 61);
place = (1477, 61);
type = Stem;
},
{
place = (219, 62);
place = (219, 62);
type = Stem;
},
{
place = (977, 61);
place = (977, 61);
type = Stem;
}
);
shapes = (
{
closed = 1;
nodes = (
(949,1507,ls),
(950,1528,o),
(940,1538,o),
(919,1538,cs),
(163,1538,ls),
(149,1538,o),
(139,1531,o),
(134,1518,cs),
(129,1505,o),
(131,1494,o),
(140,1485,cs),
(888,739,l),
(888,377,ls),
(888,268,o),
(855,183,o),
(789,122,cs),
(723,61,o),
(640,31,o),
(540,31,cs),
(444,31,o),
(362,65,o),
(294,132,cs),
(226,200,o),
(192,282,o),
(192,377,cs),
(192,418,o),
(130,418,o),
(130,377,cs),
(130,265,o),
(170,169,o),
(250,89,cs),
(330,9,o),
(427,-31,o),
(540,-31,cs),
(657,-31,o),
(755,6,o),
(832,79,cs),
(910,152,o),
(949,252,o),
(949,377,cs)
);
},
{
closed = 1;
nodes = (
(888,825,l),
(237,1477,l),
(888,1477,l)
);
}
);
};
layerId = "12AF635E-66FE-4C90-B49C-8787585F2B73";
shapes = (
{
closed = 1;
nodes = (
(930,334,o),
(943,347,o),
(943,364,cs),
(943,1506,ls),
(943,1524,o),
(929,1538,o),
(911,1538,cs),
(174,1538,ls),
(131,1538,o),
(111,1493,o),
(142,1462,cs),
(889,716,ls),
(895,710,o),
(902,707,o),
(910,707,cs),
(926,707,o),
(940,721,o),
(940,737,cs),
(940,745,o),
(937,752,o),
(931,758,cs),
(210,1478,l),
(883,1478,l),
(883,364,ls),
(883,345,o),
(896,334,o),
(913,334,cs)
);
},
{
closed = 1;
nodes = (
(744,-30,o),
(928,145,o),
(943,364,cs),
(944,381,o),
(930,396,o),
(913,396,cs),
(897,396,o),
(884,384,o),
(883,368,cs),
(871,177,o),
(716,30,o),
(521,30,cs),
(327,30,o),
(172,176,o),
(160,367,cs),
(159,383,o),
(146,395,o),
(130,395,cs),
(113,395,o),
(99,380,o),
(100,363,cs),
(115,144,o),
(299,-30,o),
(521,-30,cs)
);
}
);
width = 1083;
},
{
anchors = (
{
name = bottom;
pos = (630,0);
},
{
name = top;
pos = (670,1538);
}
);
background = {
hints = (
{
horizontal = 1;
place = (-31, 62);
place = (-31, 62);
type = Stem;
},
{
horizontal = 1;
place = (1477, 61);
place = (1477, 61);
type = Stem;
},
{
place = (219, 62);
place = (219, 62);
type = Stem;
},
{
place = (977, 61);
place = (977, 61);
type = Stem;
}
);
shapes = (
{
closed = 1;
nodes = (
(1060,1507,ls),
(1061,1528,o),
(1051,1538,o),
(1030,1538,cs),
(274,1538,ls),
(260,1538,o),
(250,1531,o),
(245,1518,cs),
(240,1505,o),
(242,1494,o),
(251,1485,cs),
(999,739,l),
(999,377,ls),
(999,268,o),
(966,183,o),
(900,122,cs),
(834,61,o),
(751,31,o),
(651,31,cs),
(555,31,o),
(473,65,o),
(405,132,cs),
(337,200,o),
(303,282,o),
(303,377,cs),
(303,418,o),
(241,418,o),
(241,377,cs),
(241,265,o),
(281,169,o),
(361,89,cs),
(441,9,o),
(538,-31,o),
(651,-31,cs),
(768,-31,o),
(866,6,o),
(943,79,cs),
(1021,152,o),
(1060,252,o),
(1060,377,cs)
);
},
{
closed = 1;
nodes = (
(999,825,l),
(348,1477,l),
(999,1477,l)
);
}
);
};
layerId = m004;
shapes = (
{
closed = 1;
nodes = (
(1101,363,o),
(1164,426,o),
(1164,503,cs),
(1164,1416,ls),
(1164,1487,o),
(1113,1538,o),
(1042,1538,cs),
(329,1538,ls),
(160,1538,o),
(86,1363,o),
(206,1243,cs),
(906,543,ls),
(931,518,o),
(966,502,o),
(1005,502,cs),
(1082,502,o),
(1145,565,o),
(1145,642,cs),
(1145,681,o),
(1129,716,o),
(1104,741,cs),
(587,1258,l),
(884,1258,l),
(884,503,ls),
(884,426,o),
(947,363,o),
(1024,363,cs)
);
},
{
closed = 1;
nodes = (
(925,-30,o),
(1164,209,o),
(1164,502,cs),
(1164,579,o),
(1101,642,o),
(1024,642,cs),
(947,642,o),
(884,579,o),
(884,502,cs),
(884,344,o),
(790,250,o),
(632,250,cs),
(475,250,o),
(380,344,o),
(380,502,cs),
(380,579,o),
(317,642,o),
(240,642,cs),
(163,642,o),
(100,579,o),
(100,502,cs),
(100,209,o),
(340,-30,o),
(632,-30,cs)
);
}
);
width = 1304;
},
{
anchors = (
{
name = _bottom;
pos = (608,0);
},
{
name = _top;
pos = (608,1538);
},
{
name = top;
pos = (608,1538);
}
);
associatedMasterId = m004;
background = {
hints = (
{
horizontal = 1;
place = (-31, 62);
place = (-31, 62);
type = Stem;
},
{
horizontal = 1;
place = (1477, 61);
place = (1477, 61);
type = Stem;
},
{
place = (219, 62);
place = (219, 62);
type = Stem;
},
{
place = (977, 61);
place = (977, 61);
type = Stem;
}
);
shapes = (
{
closed = 1;
nodes = (
(1038,1507,ls),
(1039,1528,o),
(1029,1538,o),
(1008,1538,cs),
(252,1538,ls),
(238,1538,o),
(228,1531,o),
(223,1518,cs),
(218,1505,o),
(220,1494,o),
(229,1485,cs),
(977,739,l),
(977,377,ls),
(977,268,o),
(944,183,o),
(878,122,cs),
(812,61,o),
(729,31,o),
(629,31,cs),
(533,31,o),
(451,65,o),
(383,132,cs),
(315,200,o),
(281,282,o),
(281,377,cs),
(281,418,o),
(219,418,o),
(219,377,cs),
(219,265,o),
(259,169,o),
(339,89,cs),
(419,9,o),
(516,-31,o),
(629,-31,cs),
(746,-31,o),
(844,6,o),
(921,79,cs),
(999,152,o),
(1038,252,o),
(1038,377,cs)
);
},
{
closed = 1;
nodes = (
(977,825,l),
(326,1477,l),
(977,1477,l)
);
}
);
};
layerId = "B764166B-360F-4F7D-A449-824226BAEB0F";
name = "18 août 23 à 08:55";
shapes = (
{
closed = 0;
nodes = (
(1002,763,l),
(227,1538,l),
(1002,1538,l),
(1002,362,ls),
(1002,146,o),
(826,-30,o),
(610,-30,cs),
(395,-30,o),
(218,146,o),
(218,362,c)
);
}
);
width = 1216;
},
{
anchors = (
{
name = _bottom;
pos = (608,0);
},
{
name = _top;
pos = (608,1538);
},
{
name = top;
pos = (608,1538);
}
);
associatedMasterId = "12AF635E-66FE-4C90-B49C-8787585F2B73";
background = {
hints = (
{
horizontal = 1;
place = (-31, 62);
place = (-31, 62);
type = Stem;
},
{
horizontal = 1;
place = (1477, 61);
place = (1477, 61);
type = Stem;
},
{
place = (219, 62);
place = (219, 62);
type = Stem;
},
{
place = (977, 61);
place = (977, 61);
type = Stem;
}
);
shapes = (
{
closed = 1;
nodes = (
(1038,1507,ls),
(1039,1528,o),
(1029,1538,o),
(1008,1538,cs),
(252,1538,ls),
(238,1538,o),
(228,1531,o),
(223,1518,cs),
(218,1505,o),
(220,1494,o),
(229,1485,cs),
(977,739,l),
(977,377,ls),
(977,268,o),
(944,183,o),
(878,122,cs),
(812,61,o),
(729,31,o),
(629,31,cs),
(533,31,o),
(451,65,o),
(383,132,cs),
(315,200,o),
(281,282,o),
(281,377,cs),
(281,418,o),
(219,418,o),
(219,377,cs),
(219,265,o),
(259,169,o),
(339,89,cs),
(419,9,o),
(516,-31,o),
(629,-31,cs),
(746,-31,o),
(844,6,o),
(921,79,cs),
(999,152,o),
(1038,252,o),
(1038,377,cs)
);
},
{
closed = 1;
nodes = (
(977,825,l),
(326,1477,l),
(977,1477,l)
);
}
);
};
layerId = "B7EB4814-F7B7-486C-BB2B-E467C43862B2";
name = "18 août 23 à 08:55";
shapes = (
{
closed = 0;
nodes = (
(1002,763,l),
(227,1538,l),
(1002,1538,l),
(1002,362,ls),
(1002,146,o),
(826,-30,o),
(610,-30,cs),
(395,-30,o),
(218,146,o),
(218,362,c)
);
}
);
width = 1216;
}
);
note = J;
unicode = 74;
},
{
glyphname = K;
kernLeft = H;
kernRight = K;
lastChange = "2023-09-14 04:35:09 +0000";
layers = (
{
anchors = (
{
name = bottom;
pos = (747,0);
},
{
name = top;
pos = (747,1538);
}
);
background = {
hints = (
{
horizontal = 1;
place = (-31, 21);
target = up;
type = BottomGhost;
},
{
place = (276, 62);
place = (276, 62);
type = Stem;
},
{
horizontal = 1;
place = (-32, 21);
target = up;
type = BottomGhost;
}
);
shapes = (
{
closed = 1;
nodes = (
(212,0,ls),
(212,-21,o),
(222,-31,o),
(243,-31,cs),
(264,-31,o),
(274,-21,o),
(274,0,cs),
(274,436,l),
(671,899,l),
(1374,-18,ls),
(1381,-27,o),
(1388,-32,o),
(1397,-32,cs),
(1403,-33,o),
(1410,-30,o),
(1417,-25,cs),
(1426,-18,o),
(1431,-11,o),
(1431,-2,cs),
(1431,4,o),
(1428,11,o),
(1423,18,cs),
(712,946,l),
(1175,1487,ls),
(1189,1504,o),
(1188,1518,o),
(1172,1531,cs),
(1165,1537,o),
(1158,1540,o),
(1151,1540,cs),
(1144,1540,o),
(1137,1536,o),
(1130,1528,cs),
(673,997,l),
(268,1526,ls),
(261,1535,o),
(253,1539,o),
(244,1539,cs),
(241,1539,o),
(237,1538,o),
(233,1537,cs),
(219,1532,o),
(212,1522,o),
(212,1507,cs)
);
},
{
closed = 1;
nodes = (
(632,948,l),
(274,530,l),
(274,1417,l)
);
}
);
};
layerId = "12AF635E-66FE-4C90-B49C-8787585F2B73";
shapes = (
{
closed = 1;
nodes = (
(187,0,o),
(200,13,o),
(200,30,cs),
(200,1454,l),
(1380,11,ls),
(1385,4,o),
(1393,0,o),
(1403,0,cs),
(1419,0,o),
(1433,13,o),
(1433,30,cs),
(1433,37,o),
(1430,44,o),
(1425,50,cs),
(225,1518,ls),
(214,1532,o),
(200,1538,o),
(186,1538,cs),
(162,1538,o),
(140,1519,o),
(140,1488,cs),
(140,30,ls),
(140,13,o),
(153,0,o),
(170,0,cs)
);
},
{
closed = 1;
nodes = (
(181,431,o),
(188,434,o),
(193,439,cs),
(1131,1488,ls),
(1136,1493,o),
(1139,1500,o),
(1139,1508,cs),
(1139,1524,o),
(1125,1538,o),
(1109,1538,cs),
(1101,1538,o),
(1093,1535,o),
(1088,1530,cs),
(150,481,ls),
(145,476,o),
(143,469,o),
(143,461,cs),
(143,445,o),
(156,431,o),
(173,431,cs)
);
}
);
width = 1503;
},
{
anchors = (
{
name = bottom;
pos = (887,0);
},
{
name = top;
pos = (887,1538);
}
);
background = {
hints = (
{
horizontal = 1;
place = (-31, 21);
target = up;
type = BottomGhost;
},
{
place = (276, 62);
place = (276, 62);
type = Stem;
},
{
horizontal = 1;
place = (-32, 21);
target = up;
type = BottomGhost;
}
);
shapes = (
{
closed = 1;
nodes = (
(352,0,ls),
(352,-21,o),
(362,-31,o),
(383,-31,cs),
(404,-31,o),
(414,-21,o),
(414,0,cs),
(414,436,l),
(811,899,l),
(1514,-18,ls),
(1521,-27,o),
(1528,-32,o),
(1537,-32,cs),
(1543,-33,o),
(1550,-30,o),
(1557,-25,cs),
(1566,-18,o),
(1571,-11,o),
(1571,-2,cs),
(1571,4,o),
(1568,11,o),
(1563,18,cs),
(852,946,l),
(1315,1487,ls),
(1329,1504,o),
(1328,1518,o),
(1312,1531,cs),
(1305,1537,o),
(1298,1540,o),
(1291,1540,cs),
(1284,1540,o),
(1277,1536,o),
(1270,1528,cs),
(813,997,l),
(408,1526,ls),
(401,1535,o),
(393,1539,o),
(384,1539,cs),
(381,1539,o),
(377,1538,o),
(373,1537,cs),
(359,1532,o),
(352,1522,o),
(352,1507,cs)
);
},
{
closed = 1;
nodes = (
(772,948,l),
(414,530,l),
(414,1417,l)
);
}
);
};
layerId = m004;
shapes = (
{
closed = 1;
nodes = (
(357,0,o),
(420,63,o),
(420,140,cs),
(420,1076,l),
(1263,49,ls),
(1288,18,o),
(1327,-1,o),
(1370,-1,cs),
(1448,-1,o),
(1510,61,o),
(1510,139,cs),
(1510,173,o),
(1498,204,o),
(1478,228,cs),
(468,1461,ls),
(425,1514,o),
(370,1538,o),
(317,1538,cs),
(225,1538,o),
(140,1464,o),
(140,1344,cs),
(140,140,ls),
(140,63,o),
(203,0,o),
(280,0,cs)
);
},
{
closed = 1;
nodes = (
(349,279,o),
(386,297,o),
(412,325,cs),
(1299,1304,ls),
(1321,1329,o),
(1335,1362,o),
(1335,1398,cs),
(1335,1475,o),
(1272,1538,o),
(1195,1538,cs),
(1154,1538,o),
(1116,1520,o),
(1091,1492,cs),
(204,513,ls),
(182,488,o),
(168,455,o),
(168,419,cs),
(168,342,o),
(231,279,o),
(308,279,cs)
);
}
);
width = 1580;
},
{
anchors = (
{
name = _bottom;
pos = (811,0);
},
{
name = _top;
pos = (811,1538);
},
{
name = top;
pos = (811,1538);
}
);
associatedMasterId = m004;
background = {
hints = (
{
horizontal = 1;
place = (-31, 21);
target = up;
type = BottomGhost;
},
{
place = (276, 62);
place = (276, 62);
type = Stem;
},
{
horizontal = 1;
place = (-32, 21);
target = up;
type = BottomGhost;
}
);
shapes = (
{
closed = 1;
nodes = (
(276,0,ls),
(276,-21,o),
(286,-31,o),
(307,-31,cs),
(328,-31,o),
(338,-21,o),
(338,0,cs),
(338,436,l),
(735,899,l),
(1438,-18,ls),
(1445,-27,o),
(1452,-32,o),
(1461,-32,cs),
(1467,-33,o),
(1474,-30,o),
(1481,-25,cs),
(1490,-18,o),
(1495,-11,o),
(1495,-2,cs),
(1495,4,o),
(1492,11,o),
(1487,18,cs),
(776,946,l),
(1239,1487,ls),
(1253,1504,o),
(1252,1518,o),
(1236,1531,cs),
(1229,1537,o),
(1222,1540,o),
(1215,1540,cs),
(1208,1540,o),
(1201,1536,o),
(1194,1528,cs),
(737,997,l),
(332,1526,ls),
(325,1535,o),
(317,1539,o),
(308,1539,cs),
(305,1539,o),
(301,1538,o),
(297,1537,cs),
(283,1532,o),
(276,1522,o),
(276,1507,cs)
);
},
{
closed = 1;
nodes = (
(696,948,l),
(338,530,l),
(338,1417,l)
);
}
);
};
layerId = "CCB3D6D4-2ACD-475E-90F7-734F6A4B992F";
name = "18 août 23 à 08:55";
shapes = (
{
closed = 0;
nodes = (
(204,0,l),
(204,1538,l),
(1461,0,l)
);
},
{
closed = 0;
nodes = (
(1241,1539,l),
(204,378,l)
);
}
);
width = 1622;
},
{
anchors = (
{
name = _bottom;
pos = (811,0);
},
{
name = _top;
pos = (811,1538);
},
{
name = top;
pos = (811,1538);
}
);
associatedMasterId = "12AF635E-66FE-4C90-B49C-8787585F2B73";
background = {
hints = (
{
horizontal = 1;
place = (-31, 21);
target = up;
type = BottomGhost;
},
{
place = (276, 62);
place = (276, 62);
type = Stem;
},
{
horizontal = 1;
place = (-32, 21);
target = up;
type = BottomGhost;
}
);
shapes = (
{
closed = 1;
nodes = (
(276,0,ls),
(276,-21,o),
(286,-31,o),
(307,-31,cs),
(328,-31,o),
(338,-21,o),
(338,0,cs),
(338,436,l),
(735,899,l),
(1438,-18,ls),
(1445,-27,o),
(1452,-32,o),
(1461,-32,cs),
(1467,-33,o),
(1474,-30,o),
(1481,-25,cs),
(1490,-18,o),
(1495,-11,o),
(1495,-2,cs),
(1495,4,o),
(1492,11,o),
(1487,18,cs),
(776,946,l),
(1239,1487,ls),
(1253,1504,o),
(1252,1518,o),
(1236,1531,cs),
(1229,1537,o),
(1222,1540,o),
(1215,1540,cs),
(1208,1540,o),
(1201,1536,o),
(1194,1528,cs),
(737,997,l),
(332,1526,ls),
(325,1535,o),
(317,1539,o),
(308,1539,cs),
(305,1539,o),
(301,1538,o),
(297,1537,cs),
(283,1532,o),
(276,1522,o),
(276,1507,cs)
);
},
{
closed = 1;
nodes = (
(696,948,l),
(338,530,l),
(338,1417,l)
);
}
);
};
layerId = "52280D7E-42F6-4465-9E26-E21EDEE0A022";
name = "18 août 23 à 08:55";
shapes = (
{
closed = 0;
nodes = (
(204,0,l),
(204,1538,l),
(1461,0,l)
);
},
{
closed = 0;
nodes = (
(1241,1539,l),
(204,378,l)
);
}
);
width = 1622;
}
);
note = K;
unicode = 75;
},
{
glyphname = L;
kernLeft = H;
kernRight = L;
lastChange = "2023-09-14 08:15:31 +0000";
layers = (
{
anchors = (
{
name = bottom;
pos = (616,0);
},
{
name = center;
pos = (517,769);
},
{
name = top;
pos = (517,1538);
},
{
name = topright;
pos = (1121,1538);
}
);
background = {
hints = (
{
horizontal = 1;
place = (-31, 62);
place = (-31, 62);
type = Stem;
},
{
place = (276, 62);
place = (276, 62);
type = Stem;
}
);
shapes = (
{
closed = 1;
nodes = (
(168,0,ls),
(168,-21,o),
(178,-31,o),
(199,-31,cs),
(918,-31,l),
(932,-30,o),
(942,-24,o),
(947,-11,cs),
(949,-6,o),
(950,-2,o),
(950,2,cs),
(950,10,o),
(947,17,o),
(941,23,cs),
(230,731,l),
(230,1507,ls),
(230,1528,o),
(220,1538,o),
(199,1538,cs),
(178,1538,o),
(168,1528,o),
(168,1507,cs)
);
},
{
closed = 1;
nodes = (
(844,31,l),
(230,31,l),
(230,645,l)
);
}
);
};
layerId = "12AF635E-66FE-4C90-B49C-8787585F2B73";
shapes = (
{
closed = 1;
nodes = (
(1049,0,ls),
(1092,0,o),
(1112,45,o),
(1081,76,cs),
(199,954,ls),
(193,960,o),
(186,963,o),
(178,963,cs),
(162,963,o),
(148,949,o),
(148,933,cs),
(148,925,o),
(151,918,o),
(157,912,cs),
(1013,60,l),
(200,60,l),
(200,1508,ls),
(200,1525,o),
(187,1538,o),
(170,1538,cs),
(153,1538,o),
(140,1525,o),
(140,1508,cs),
(140,32,ls),
(140,14,o),
(154,0,o),
(172,0,cs)
);
}
);
width = 1136;
},
{
anchors = (
{
name = _bottom;
pos = (624,0);
},
{
name = _top;
pos = (624,1538);
},
{
name = top;
pos = (624,1538);
}
);
associatedMasterId = "12AF635E-66FE-4C90-B49C-8787585F2B73";
background = {
hints = (
{
horizontal = 1;
place = (-31, 62);
place = (-31, 62);
type = Stem;
},
{
place = (276, 62);
place = (276, 62);
type = Stem;
}
);
shapes = (
{
closed = 1;
nodes = (
(276,0,ls),
(276,-21,o),
(286,-31,o),
(307,-31,cs),
(1026,-31,l),
(1040,-30,o),
(1050,-24,o),
(1055,-11,cs),
(1057,-6,o),
(1058,-2,o),
(1058,2,cs),
(1058,10,o),
(1055,17,o),
(1049,23,cs),
(338,731,l),
(338,1507,ls),
(338,1528,o),
(328,1538,o),
(307,1538,cs),
(286,1538,o),
(276,1528,o),
(276,1507,cs)
);
},
{
closed = 1;
nodes = (
(952,31,l),
(338,31,l),
(338,645,l)
);
}
);
};
layerId = "C945FB68-F140-4D61-ACED-8D3E4174BCD5";
name = "18 août 23 à 08:55";
shapes = (
{
closed = 0;
nodes = (
(278,915,l),
(1193,0,l),
(278,0,l),
(278,1538,l)
);
}
);
width = 1249;
},
{
anchors = (
{
name = _bottom;
pos = (624,0);
},
{
name = _top;
pos = (624,1538);
},
{
name = top;
pos = (624,1538);
}
);
associatedMasterId = m004;
background = {
hints = (
{
horizontal = 1;
place = (-31, 62);
place = (-31, 62);
type = Stem;
},
{
place = (276, 62);
place = (276, 62);
type = Stem;
}
);
shapes = (
{
closed = 1;
nodes = (
(276,0,ls),
(276,-21,o),
(286,-31,o),
(307,-31,cs),
(1026,-31,l),
(1040,-30,o),
(1050,-24,o),
(1055,-11,cs),
(1057,-6,o),
(1058,-2,o),
(1058,2,cs),
(1058,10,o),
(1055,17,o),
(1049,23,cs),
(338,731,l),
(338,1507,ls),
(338,1528,o),
(328,1538,o),
(307,1538,cs),
(286,1538,o),
(276,1528,o),
(276,1507,cs)
);
},
{
closed = 1;
nodes = (
(952,31,l),
(338,31,l),
(338,645,l)
);
}
);
};
layerId = "A53FC1B0-06DA-43A6-AB71-89B265D37C72";
name = "18 août 23 à 12:55";
shapes = (
{
closed = 1;
nodes = (
(138,1475,o),
(201,1538,o),
(278,1538,cs),
(355,1538,o),
(418,1475,o),
(418,1398,cs),
(418,280,l),
(689,280,l),
(268,701,ls),
(243,726,o),
(227,761,o),
(227,800,cs),
(227,877,o),
(290,940,o),
(367,940,cs),
(406,940,o),
(441,924,o),
(466,899,cs),
(1365,0,l),
(138,0,l),
(138,1398,ls)
);
}
);
width = 1249;
},
{
anchors = (
{
name = bottom;
pos = (655,0);
},
{
name = center;
pos = (655,769);
},
{
name = top;
pos = (655,1538);
},
{
name = topright;
pos = (1259,1538);
}
);
background = {
hints = (
{
horizontal = 1;
place = (-31, 62);
place = (-31, 62);
type = Stem;
},
{
place = (276, 62);
place = (276, 62);
type = Stem;
}
);
shapes = (
{
closed = 1;
nodes = (
(306,0,ls),
(306,-21,o),
(316,-31,o),
(337,-31,cs),
(1056,-31,l),
(1070,-30,o),
(1080,-24,o),
(1085,-11,cs),
(1087,-6,o),
(1088,-2,o),
(1088,2,cs),
(1088,10,o),
(1085,17,o),
(1079,23,cs),
(368,731,l),
(368,1507,ls),
(368,1528,o),
(358,1538,o),
(337,1538,cs),
(316,1538,o),
(306,1528,o),
(306,1507,cs)
);
},
{
closed = 1;
nodes = (
(982,31,l),
(368,31,l),
(368,645,l)
);
}
);
};
layerId = m004;
name = Bold;
shapes = (
{
closed = 1;
nodes = (
(1045,0,ls),
(1214,0,o),
(1288,175,o),
(1168,295,cs),
(420,1043,ls),
(395,1068,o),
(360,1084,o),
(321,1084,cs),
(244,1084,o),
(181,1021,o),
(181,944,cs),
(181,905,o),
(197,870,o),
(222,845,cs),
(787,280,l),
(420,280,l),
(420,1398,ls),
(420,1475,o),
(357,1538,o),
(280,1538,cs),
(203,1538,o),
(140,1475,o),
(140,1398,cs),
(140,122,ls),
(140,51,o),
(191,0,o),
(262,0,cs)
);
}
);
width = 1267;
}
);
note = L;
unicode = 76;
},
{
glyphname = Lslash;
kernRight = L;
lastChange = "2023-09-14 04:35:09 +0000";
layers = (
{
layerId = "12AF635E-66FE-4C90-B49C-8787585F2B73";
shapes = (
{
closed = 1;
nodes = (
(115,839,o),
(118,840,o),
(121,841,cs),
(851,1089,ls),
(862,1093,o),
(871,1104,o),
(871,1117,cs),
(871,1136,o),
(856,1148,o),
(841,1148,cs),
(837,1148,o),
(834,1147,o),
(831,1146,cs),
(101,898,ls),
(89,894,o),
(81,883,o),
(81,869,cs),
(81,851,o),
(96,839,o),
(111,839,cs)
);
},
{
ref = L;
}
);
width = 1249;
},
{
layerId = m004;
shapes = (
{
closed = 1;
nodes = (
(48,679,o),
(63,682,o),
(77,687,cs),
(893,964,ls),
(948,983,o),
(988,1035,o),
(988,1096,cs),
(988,1174,o),
(925,1236,o),
(848,1236,cs),
(832,1236,o),
(817,1234,o),
(803,1229,cs),
(-13,952,ls),
(-68,933,o),
(-108,881,o),
(-108,819,cs),
(-108,742,o),
(-45,679,o),
(32,679,cs)
);
},
{
ref = L;
}
);
width = 1249;
}
);
unicode = 321;
},
{
glyphname = M;
kernLeft = H;
kernRight = H;
lastChange = "2023-09-14 04:35:09 +0000";
layers = (
{
anchors = (
{
name = bottom;
pos = (779,0);
},
{
name = top;
pos = (779,1538);
}
);
background = {
hints = (
{
horizontal = 1;
place = (-31, 21);
target = up;
type = BottomGhost;
},
{
place = (197, 61);
place = (197, 61);
type = Stem;
},
{
place = (1446, 61);
place = (1446, 61);
type = Stem;
}
);
shapes = (
{
closed = 1;
nodes = (
(133,0,ls),
(133,-16,o),
(147,-31,o),
(163,-31,cs),
(180,-31,o),
(194,-16,o),
(194,0,cs),
(194,434,l),
(788,938,l),
(1382,434,l),
(1382,0,ls),
(1382,-16,o),
(1396,-31,o),
(1412,-31,cs),
(1429,-31,o),
(1443,-16,o),
(1443,0,cs),
(1443,1507,ls),
(1443,1521,o),
(1437,1531,o),
(1425,1536,cs),
(1420,1538,o),
(1416,1539,o),
(1412,1539,cs),
(1405,1539,o),
(1398,1536,o),
(1392,1530,cs),
(788,1018,l),
(184,1530,ls),
(177,1536,o),
(170,1539,o),
(163,1539,cs),
(158,1539,o),
(154,1538,o),
(150,1536,cs),
(139,1530,o),
(133,1520,o),
(133,1507,cs)
);
},
{
closed = 1;
nodes = (
(741,979,l),
(194,514,l),
(194,1442,l)
);
},
{
closed = 1;
nodes = (
(1382,514,l),
(835,979,l),
(1382,1442,l)
);
}
);
};
layerId = "12AF635E-66FE-4C90-B49C-8787585F2B73";
shapes = (
{
closed = 1;
nodes = (
(1403,0,o),
(1416,13,o),
(1416,30,cs),
(1416,1493,ls),
(1416,1520,o),
(1397,1538,o),
(1376,1538,cs),
(1366,1538,o),
(1355,1534,o),
(1346,1526,cs),
(158,507,ls),
(152,502,o),
(148,494,o),
(148,485,cs),
(148,468,o),
(161,455,o),
(178,455,cs),
(185,455,o),
(192,457,o),
(199,463,cs),
(1356,1456,l),
(1356,30,ls),
(1356,13,o),
(1369,0,o),
(1386,0,cs)
);
},
{
closed = 1;
nodes = (
(187,0,o),
(200,13,o),
(200,30,cs),
(200,1456,l),
(1358,462,l),
(1364,458,o),
(1371,455,o),
(1378,455,cs),
(1395,455,o),
(1408,468,o),
(1408,485,cs),
(1408,494,o),
(1404,502,o),
(1398,507,cs),
(210,1526,ls),
(201,1534,o),
(190,1538,o),
(180,1538,cs),
(159,1538,o),
(140,1520,o),
(140,1493,cs),
(140,30,ls),
(140,13,o),
(153,0,o),
(170,0,cs)
);
}
);
width = 1556;
},
{
anchors = (
{
name = bottom;
pos = (889,0);
},
{
name = top;
pos = (889,1538);
}
);
background = {
hints = (
{
horizontal = 1;
place = (-31, 21);
target = up;
type = BottomGhost;
},
{
place = (197, 61);
place = (197, 61);
type = Stem;
},
{
place = (1446, 61);
place = (1446, 61);
type = Stem;
}
);
shapes = (
{
closed = 1;
nodes = (
(213,0,ls),
(213,-16,o),
(227,-31,o),
(243,-31,cs),
(260,-31,o),
(274,-16,o),
(274,0,cs),
(274,434,l),
(868,938,l),
(1462,434,l),
(1462,0,ls),
(1462,-16,o),
(1476,-31,o),
(1492,-31,cs),
(1509,-31,o),
(1523,-16,o),
(1523,0,cs),
(1523,1507,ls),
(1523,1521,o),
(1517,1531,o),
(1505,1536,cs),
(1500,1538,o),
(1496,1539,o),
(1492,1539,cs),
(1485,1539,o),
(1478,1536,o),
(1472,1530,cs),
(868,1018,l),
(264,1530,ls),
(257,1536,o),
(250,1539,o),
(243,1539,cs),
(238,1539,o),
(234,1538,o),
(230,1536,cs),
(219,1530,o),
(213,1520,o),
(213,1507,cs)
);
},
{
closed = 1;
nodes = (
(821,979,l),
(274,514,l),
(274,1442,l)
);
},
{
closed = 1;
nodes = (
(1462,514,l),
(915,979,l),
(1462,1442,l)
);
}
);
};
layerId = m004;
shapes = (
{
closed = 1;
nodes = (
(1575,0,o),
(1638,63,o),
(1638,140,cs),
(1638,1366,ls),
(1638,1471,o),
(1566,1538,o),
(1483,1538,cs),
(1444,1538,o),
(1403,1524,o),
(1365,1491,cs),
(224,513,ls),
(194,487,o),
(176,449,o),
(176,407,cs),
(176,330,o),
(238,267,o),
(316,267,cs),
(351,267,o),
(383,280,o),
(407,301,cs),
(1358,1117,l),
(1358,140,ls),
(1358,63,o),
(1421,0,o),
(1498,0,cs)
);
},
{
closed = 1;
nodes = (
(357,0,o),
(420,63,o),
(420,140,cs),
(420,1117,l),
(1371,301,ls),
(1395,280,o),
(1427,267,o),
(1462,267,cs),
(1540,267,o),
(1602,330,o),
(1602,407,cs),
(1602,449,o),
(1584,487,o),
(1554,513,cs),
(413,1491,ls),
(375,1524,o),
(334,1538,o),
(295,1538,cs),
(212,1538,o),
(140,1471,o),
(140,1366,cs),
(140,140,ls),
(140,63,o),
(203,0,o),
(280,0,cs)
);
}
);
width = 1778;
},
{
anchors = (
{
name = _bottom;
pos = (854,0);
},
{
name = _top;
pos = (854,1538);
},
{
name = top;
pos = (854,1538);
}
);
associatedMasterId = "12AF635E-66FE-4C90-B49C-8787585F2B73";
background = {
hints = (
{
horizontal = 1;
place = (-31, 21);
target = up;
type = BottomGhost;
},
{
place = (197, 61);
place = (197, 61);
type = Stem;
},
{
place = (1446, 61);
place = (1446, 61);
type = Stem;
}
);
shapes = (
{
closed = 1;
nodes = (
(197,0,ls),
(197,-16,o),
(211,-31,o),
(227,-31,cs),
(244,-31,o),
(258,-16,o),
(258,0,cs),
(258,434,l),
(852,938,l),
(1446,434,l),
(1446,0,ls),
(1446,-16,o),
(1460,-31,o),
(1476,-31,cs),
(1493,-31,o),
(1507,-16,o),
(1507,0,cs),
(1507,1507,ls),
(1507,1521,o),
(1501,1531,o),
(1489,1536,cs),
(1484,1538,o),
(1480,1539,o),
(1476,1539,cs),
(1469,1539,o),
(1462,1536,o),
(1456,1530,cs),
(852,1018,l),
(248,1530,ls),
(241,1536,o),
(234,1539,o),
(227,1539,cs),
(222,1539,o),
(218,1538,o),
(214,1536,cs),
(203,1530,o),
(197,1520,o),
(197,1507,cs)
);
},
{
closed = 1;
nodes = (
(805,979,l),
(258,514,l),
(258,1442,l)
);
},
{
closed = 1;
nodes = (
(1446,514,l),
(899,979,l),
(1446,1442,l)
);
}
);
};
layerId = "FFFC5F16-9E1F-4BA3-9B4D-80D8F3040648";
name = "18 août 23 à 08:55";
shapes = (
{
closed = 0;
nodes = (
(204,0,l),
(204,1538,l),
(1482,442,l)
);
},
{
closed = 0;
nodes = (
(204,442,l),
(1482,1538,l),
(1482,0,l)
);
}
);
width = 1708;
},
{
anchors = (
{
name = _bottom;
pos = (854,0);
},
{
name = _top;
pos = (854,1538);
},
{
name = top;
pos = (854,1538);
}
);
associatedMasterId = m004;
background = {
hints = (
{
horizontal = 1;
place = (-31, 21);
target = up;
type = BottomGhost;
},
{
place = (197, 61);
place = (197, 61);
type = Stem;
},
{
place = (1446, 61);
place = (1446, 61);
type = Stem;
}
);
shapes = (
{
closed = 1;
nodes = (
(197,0,ls),
(197,-16,o),
(211,-31,o),
(227,-31,cs),
(244,-31,o),
(258,-16,o),
(258,0,cs),
(258,434,l),
(852,938,l),
(1446,434,l),
(1446,0,ls),
(1446,-16,o),
(1460,-31,o),
(1476,-31,cs),
(1493,-31,o),
(1507,-16,o),
(1507,0,cs),
(1507,1507,ls),
(1507,1521,o),
(1501,1531,o),
(1489,1536,cs),
(1484,1538,o),
(1480,1539,o),
(1476,1539,cs),
(1469,1539,o),
(1462,1536,o),
(1456,1530,cs),
(852,1018,l),
(248,1530,ls),
(241,1536,o),
(234,1539,o),
(227,1539,cs),
(222,1539,o),
(218,1538,o),
(214,1536,cs),
(203,1530,o),
(197,1520,o),
(197,1507,cs)
);
},
{
closed = 1;
nodes = (
(805,979,l),
(258,514,l),
(258,1442,l)
);
},
{
closed = 1;
nodes = (
(1446,514,l),
(899,979,l),
(1446,1442,l)
);
}
);
};
layerId = "FDE62B83-02D6-4EC9-B971-418A658456F6";
name = "18 août 23 à 08:55";
shapes = (
{
closed = 0;
nodes = (
(204,0,l),
(204,1538,l),
(1482,442,l)
);
},
{
closed = 0;
nodes = (
(204,442,l),
(1482,1538,l),
(1482,0,l)
);
}
);
width = 1708;
},
{
anchors = (
{
name = _bottom;
pos = (854,0);
},
{
name = _top;
pos = (854,1538);
},
{
name = top;
pos = (854,1538);
}
);
associatedMasterId = m004;
background = {
hints = (
{
horizontal = 1;
place = (-31, 21);
target = up;
type = BottomGhost;
},
{
place = (197, 61);
place = (197, 61);
type = Stem;
},
{
place = (1446, 61);
place = (1446, 61);
type = Stem;
}
);
shapes = (
{
closed = 1;
nodes = (
(197,0,ls),
(197,-16,o),
(211,-31,o),
(227,-31,cs),
(244,-31,o),
(258,-16,o),
(258,0,cs),
(258,434,l),
(852,938,l),
(1446,434,l),
(1446,0,ls),
(1446,-16,o),
(1460,-31,o),
(1476,-31,cs),
(1493,-31,o),
(1507,-16,o),
(1507,0,cs),
(1507,1507,ls),
(1507,1521,o),
(1501,1531,o),
(1489,1536,cs),
(1484,1538,o),
(1480,1539,o),
(1476,1539,cs),
(1469,1539,o),
(1462,1536,o),
(1456,1530,cs),
(852,1018,l),
(248,1530,ls),
(241,1536,o),
(234,1539,o),
(227,1539,cs),
(222,1539,o),
(218,1538,o),
(214,1536,cs),
(203,1530,o),
(197,1520,o),
(197,1507,cs)
);
},
{
closed = 1;
nodes = (
(805,979,l),
(258,514,l),
(258,1442,l)
);
},
{
closed = 1;
nodes = (
(1446,514,l),
(899,979,l),
(1446,1442,l)
);
}
);
};
layerId = "254139BD-28CF-4105-9A90-C32DDD3738A1";
name = "18 août 23 à 09:49";
shapes = (
{
closed = 0;
nodes = (
(204,0,l),
(204,1538,l),
(1482,442,l)
);
},
{
closed = 0;
nodes = (
(204,442,l),
(1482,1538,l),
(1482,0,l)
);
}
);
width = 1708;
},
{
anchors = (
{
name = _bottom;
pos = (854,0);
},
{
name = _top;
pos = (854,1538);
},
{
name = top;
pos = (854,1538);
}
);
associatedMasterId = "12AF635E-66FE-4C90-B49C-8787585F2B73";
background = {
hints = (
{
horizontal = 1;
place = (-31, 21);
target = up;
type = BottomGhost;
},
{
place = (197, 61);
place = (197, 61);
type = Stem;
},
{
place = (1446, 61);
place = (1446, 61);
type = Stem;
}
);
shapes = (
{
closed = 1;
nodes = (
(197,0,ls),
(197,-16,o),
(211,-31,o),
(227,-31,cs),
(244,-31,o),
(258,-16,o),
(258,0,cs),
(258,434,l),
(852,938,l),
(1446,434,l),
(1446,0,ls),
(1446,-16,o),
(1460,-31,o),
(1476,-31,cs),
(1493,-31,o),
(1507,-16,o),
(1507,0,cs),
(1507,1507,ls),
(1507,1521,o),
(1501,1531,o),
(1489,1536,cs),
(1484,1538,o),
(1480,1539,o),
(1476,1539,cs),
(1469,1539,o),
(1462,1536,o),
(1456,1530,cs),
(852,1018,l),
(248,1530,ls),
(241,1536,o),
(234,1539,o),
(227,1539,cs),
(222,1539,o),
(218,1538,o),
(214,1536,cs),
(203,1530,o),
(197,1520,o),
(197,1507,cs)
);
},
{
closed = 1;
nodes = (
(805,979,l),
(258,514,l),
(258,1442,l)
);
},
{
closed = 1;
nodes = (
(1446,514,l),
(899,979,l),
(1446,1442,l)
);
}
);
};
layerId = "822DBE6D-6BD8-4C0A-BC68-FE5037A8A5A4";
name = "18 août 23 à 09:49";
shapes = (
{
closed = 0;
nodes = (
(204,0,l),
(204,1538,l),
(1482,442,l)
);
},
{
closed = 0;
nodes = (
(204,442,l),
(1482,1538,l),
(1482,0,l)
);
}
);
width = 1708;
}
);
note = M;
unicode = 77;
},
{
glyphname = N;
kernLeft = H;
kernRight = H;
lastChange = "2023-09-14 04:35:09 +0000";
layers = (
{
anchors = (
{
name = bottom;
pos = (694,0);
},
{
name = top;
pos = (694,1538);
}
);
background = {
hints = (
{
horizontal = 1;
place = (-31, 62);
place = (-31, 62);
type = Stem;
},
{
place = (197, 61);
place = (197, 61);
type = Stem;
},
{
place = (1229, 61);
place = (1229, 61);
type = Stem;
}
);
shapes = (
{
closed = 1;
nodes = (
(163,0,ls),
(163,-19,o),
(174,-31,o),
(193,-31,cs),
(1221,-31,ls),
(1244,-31,o),
(1256,-21,o),
(1256,0,cs),
(1256,1507,ls),
(1256,1528,o),
(1246,1538,o),
(1225,1538,cs),
(1205,1538,o),
(1195,1528,o),
(1195,1507,cs),
(1195,98,l),
(218,1524,ls),
(212,1534,o),
(204,1539,o),
(195,1539,cs),
(192,1539,o),
(188,1538,o),
(184,1537,cs),
(170,1532,o),
(163,1522,o),
(163,1507,cs)
);
},
{
closed = 1;
nodes = (
(1168,31,l),
(224,31,l),
(224,1409,l)
);
}
);
};
layerId = "12AF635E-66FE-4C90-B49C-8787585F2B73";
shapes = (
{
closed = 1;
nodes = (
(1217,0,l),
(1239,63,l),
(233,1515,ls),
(203,1558,o),
(140,1539,o),
(140,1486,cs),
(140,32,ls),
(140,14,o),
(154,0,o),
(172,0,cs)
);
},
{
closed = 1;
nodes = (
(200,1457,l),
(1168,60,l),
(200,60,l)
);
},
{
closed = 1;
nodes = (
(1234,0,o),
(1247,13,o),
(1247,30,cs),
(1247,1508,ls),
(1247,1525,o),
(1234,1538,o),
(1217,1538,cs),
(1200,1538,o),
(1187,1525,o),
(1187,1508,cs),
(1187,30,ls),
(1187,13,o),
(1200,0,o),
(1217,0,cs)
);
}
);
width = 1387;
},
{
anchors = (
{
name = bottom;
pos = (808,0);
},
{
name = top;
pos = (808,1538);
}
);
background = {
hints = (
{
horizontal = 1;
place = (-31, 62);
place = (-31, 62);
type = Stem;
},
{
place = (197, 61);
place = (197, 61);
type = Stem;
},
{
place = (1229, 61);
place = (1229, 61);
type = Stem;
}
);
shapes = (
{
closed = 1;
nodes = (
(273,0,ls),
(273,-19,o),
(284,-31,o),
(303,-31,cs),
(1331,-31,ls),
(1354,-31,o),
(1366,-21,o),
(1366,0,cs),
(1366,1507,ls),
(1366,1528,o),
(1356,1538,o),
(1335,1538,cs),
(1315,1538,o),
(1305,1528,o),
(1305,1507,cs),
(1305,98,l),
(328,1524,ls),
(322,1534,o),
(314,1539,o),
(305,1539,cs),
(302,1539,o),
(298,1538,o),
(294,1537,cs),
(280,1532,o),
(273,1522,o),
(273,1507,cs)
);
},
{
closed = 1;
nodes = (
(1278,31,l),
(334,31,l),
(334,1409,l)
);
}
);
};
layerId = m004;
shapes = (
{
closed = 1;
nodes = (
(1335,0,l),
(1434,244,l),
(501,1448,ls),
(376,1610,o),
(140,1541,o),
(140,1336,cs),
(140,122,ls),
(140,51,o),
(191,0,o),
(262,0,cs)
);
},
{
closed = 1;
nodes = (
(420,1096,l),
(1052,280,l),
(420,280,l)
);
},
{
closed = 1;
nodes = (
(1412,0,o),
(1475,63,o),
(1475,140,cs),
(1475,1398,ls),
(1475,1475,o),
(1412,1538,o),
(1335,1538,cs),
(1258,1538,o),
(1195,1475,o),
(1195,1398,cs),
(1195,140,ls),
(1195,63,o),
(1258,0,o),
(1335,0,cs)
);
}
);
width = 1615;
},
{
anchors = (
{
name = _bottom;
pos = (752,0);
},
{
name = _top;
pos = (752,1538);
},
{
name = top;
pos = (752,1538);
}
);
associatedMasterId = m004;
background = {
hints = (
{
horizontal = 1;
place = (-31, 62);
place = (-31, 62);
type = Stem;
},
{
place = (197, 61);
place = (197, 61);
type = Stem;
},
{
place = (1229, 61);
place = (1229, 61);
type = Stem;
}
);
shapes = (
{
closed = 1;
nodes = (
(197,0,ls),
(197,-19,o),
(208,-31,o),
(227,-31,cs),
(1255,-31,ls),
(1278,-31,o),
(1290,-21,o),
(1290,0,cs),
(1290,1507,ls),
(1290,1528,o),
(1280,1538,o),
(1259,1538,cs),
(1239,1538,o),
(1229,1528,o),
(1229,1507,cs),
(1229,98,l),
(252,1524,ls),
(246,1534,o),
(238,1539,o),
(229,1539,cs),
(226,1539,o),
(222,1538,o),
(218,1537,cs),
(204,1532,o),
(197,1522,o),
(197,1507,cs)
);
},
{
closed = 1;
nodes = (
(1202,31,l),
(258,31,l),
(258,1409,l)
);
}
);
};
layerId = "B8FDDAF7-C3DA-44E9-A747-075081605FE8";
name = "18 août 23 à 08:55";
shapes = (
{
closed = 1;
nodes = (
(204,1538,l),
(1259,0,l),
(204,0,l)
);
},
{
closed = 0;
nodes = (
(1259,0,l),
(1259,1538,l)
);
}
);
width = 1505;
},
{
anchors = (
{
name = _bottom;
pos = (752,0);
},
{
name = _top;
pos = (752,1538);
},
{
name = top;
pos = (752,1538);
}
);
associatedMasterId = "12AF635E-66FE-4C90-B49C-8787585F2B73";
background = {
hints = (
{
horizontal = 1;
place = (-31, 62);
place = (-31, 62);
type = Stem;
},
{
place = (197, 61);
place = (197, 61);
type = Stem;
},
{
place = (1229, 61);
place = (1229, 61);
type = Stem;
}
);
shapes = (
{
closed = 1;
nodes = (
(197,0,ls),
(197,-19,o),
(208,-31,o),
(227,-31,cs),
(1255,-31,ls),
(1278,-31,o),
(1290,-21,o),
(1290,0,cs),
(1290,1507,ls),
(1290,1528,o),
(1280,1538,o),
(1259,1538,cs),
(1239,1538,o),
(1229,1528,o),
(1229,1507,cs),
(1229,98,l),
(252,1524,ls),
(246,1534,o),
(238,1539,o),
(229,1539,cs),
(226,1539,o),
(222,1538,o),
(218,1537,cs),
(204,1532,o),
(197,1522,o),
(197,1507,cs)
);
},
{
closed = 1;
nodes = (
(1202,31,l),
(258,31,l),
(258,1409,l)
);
}
);
};
layerId = "98D94E53-70F5-46B5-9D28-69342A076A2F";
name = "18 août 23 à 08:55";
shapes = (
{
closed = 1;
nodes = (
(204,1538,l),
(1259,0,l),
(204,0,l)
);
},
{
closed = 0;
nodes = (
(1259,0,l),
(1259,1538,l)
);
}
);
width = 1505;
}
);
note = N;
unicode = 78;
},
{
glyphname = Nhookleft;
kernLeft = H;
kernRight = H;
lastChange = "2023-09-14 04:35:09 +0000";
layers = (
{
layerId = "12AF635E-66FE-4C90-B49C-8787585F2B73";
shapes = (
{
closed = 1;
nodes = (
(78,-649,o),
(200,-536,o),
(200,-396,cs),
(200,73,l),
(140,69,l),
(140,-396,ls),
(140,-506,o),
(50,-589,o),
(-71,-589,cs),
(-110,-589,o),
(-144,-580,o),
(-178,-563,cs),
(-182,-561,o),
(-186,-560,o),
(-191,-560,cs),
(-208,-560,o),
(-221,-573,o),
(-221,-590,cs),
(-221,-602,o),
(-214,-612,o),
(-204,-617,cs),
(-165,-636,o),
(-119,-649,o),
(-71,-649,cs)
);
},
{
ref = N;
}
);
width = 1387;
},
{
layerId = m004;
shapes = (
{
closed = 1;
nodes = (
(271,-759,o),
(421,-575,o),
(421,-396,cs),
(421,146,l),
(141,146,l),
(141,-396,ls),
(141,-458,o),
(118,-479,o),
(40,-479,cs),
(15,-479,o),
(6,-476,o),
(-17,-465,cs),
(-36,-455,o),
(-57,-450,o),
(-80,-450,cs),
(-157,-450,o),
(-220,-513,o),
(-220,-590,cs),
(-220,-645,o),
(-189,-692,o),
(-143,-715,cs),
(-81,-746,o),
(-17,-759,o),
(40,-759,cs)
);
},
{
ref = N;
}
);
width = 1615;
}
);
unicode = 413;
},
{
glyphname = Eng;
kernLeft = H;
kernRight = H;
lastChange = "2023-09-14 04:35:09 +0000";
layers = (
{
layerId = "12AF635E-66FE-4C90-B49C-8787585F2B73";
shapes = (
{
closed = 1;
nodes = (
(1124,-649,o),
(1246,-536,o),
(1246,-396,cs),
(1246,73,l),
(1186,69,l),
(1186,-396,ls),
(1186,-506,o),
(1096,-589,o),
(975,-589,cs),
(936,-589,o),
(902,-580,o),
(868,-563,cs),
(864,-561,o),
(860,-560,o),
(855,-560,cs),
(838,-560,o),
(825,-573,o),
(825,-590,cs),
(825,-602,o),
(832,-612,o),
(842,-617,cs),
(881,-636,o),
(927,-649,o),
(975,-649,cs)
);
},
{
ref = N;
}
);
width = 1387;
},
{
layerId = m004;
shapes = (
{
closed = 1;
nodes = (
(1325,-759,o),
(1475,-575,o),
(1475,-396,cs),
(1475,146,l),
(1195,146,l),
(1195,-396,ls),
(1195,-458,o),
(1172,-479,o),
(1094,-479,cs),
(1069,-479,o),
(1060,-476,o),
(1037,-465,cs),
(1018,-455,o),
(997,-450,o),
(974,-450,cs),
(897,-450,o),
(834,-513,o),
(834,-590,cs),
(834,-645,o),
(865,-692,o),
(911,-715,cs),
(973,-746,o),
(1037,-759,o),
(1094,-759,cs)
);
},
{
ref = N;
}
);
width = 1615;
}
);
unicode = 330;
},
{
glyphname = O;
kernLeft = O;
kernRight = O;
lastChange = "2023-09-14 04:35:09 +0000";
layers = (
{
anchors = (
{
name = bottom;
pos = (900,0);
},
{
name = center;
pos = (900,769);
},
{
name = ogonek;
pos = (1027,10);
},
{
name = top;
pos = (900,1538);
},
{
name = topleft;
pos = (20,1538);
},
{
name = topright;
pos = (1779,1538);
}
);
background = {
hints = (
{
horizontal = 1;
place = (-33, 62);
place = (-33, 62);
type = Stem;
},
{
horizontal = 1;
place = (1481, 61);
place = (1481, 61);
type = Stem;
},
{
place = (111, 61);
place = (111, 61);
type = Stem;
},
{
place = (1624, 62);
place = (1624, 62);
type = Stem;
}
);
shapes = (
{
closed = 1;
nodes = (
(320,238,o),
(415,143,o),
(536,72,cs),
(657,2,o),
(788,-33,o),
(931,-33,cs),
(1074,-33,o),
(1205,2,o),
(1326,72,cs),
(1447,143,o),
(1543,238,o),
(1613,359,cs),
(1684,480,o),
(1719,612,o),
(1719,755,cs),
(1719,898,o),
(1684,1029,o),
(1613,1150,cs),
(1543,1271,o),
(1447,1366,o),
(1326,1436,cs),
(1205,1507,o),
(1074,1542,o),
(931,1542,cs),
(788,1542,o),
(657,1507,o),
(536,1436,cs),
(415,1366,o),
(320,1271,o),
(249,1150,cs),
(179,1029,o),
(144,898,o),
(144,755,cs),
(144,612,o),
(179,480,o),
(249,359,cs)
);
},
{
closed = 1;
nodes = (
(367,1230,o),
(455,1318,o),
(566,1383,cs),
(677,1448,o),
(799,1481,o),
(931,1481,cs),
(1063,1481,o),
(1185,1448,o),
(1296,1383,cs),
(1407,1318,o),
(1495,1230,o),
(1560,1119,cs),
(1625,1008,o),
(1657,886,o),
(1657,754,cs),
(1657,623,o),
(1625,501,o),
(1560,390,cs),
(1495,279,o),
(1407,191,o),
(1296,126,cs),
(1185,61,o),
(1063,29,o),
(931,29,cs),
(799,29,o),
(677,61,o),
(566,126,cs),
(455,191,o),
(367,279,o),
(302,390,cs),
(237,501,o),
(205,623,o),
(205,754,cs),
(205,886,o),
(237,1008,o),
(302,1119,cs)
);
}
);
};
layerId = "12AF635E-66FE-4C90-B49C-8787585F2B73";
shapes = (
{
closed = 1;
nodes = (
(1342,-30,o),
(1699,325,o),
(1699,767,cs),
(1699,1209,o),
(1342,1568,o),
(900,1568,cs),
(457,1568,o),
(100,1209,o),
(100,767,cs),
(100,325,o),
(457,-30,o),
(900,-30,cs)
);
},
{
closed = 1;
nodes = (
(482,30,o),
(160,350,o),
(160,767,cs),
(160,1184,o),
(482,1508,o),
(900,1508,cs),
(1317,1508,o),
(1639,1184,o),
(1639,767,cs),
(1639,350,o),
(1317,30,o),
(900,30,cs)
);
}
);
width = 1799;
},
{
anchors = (
{
name = bottom;
pos = (900,0);
},
{
name = center;
pos = (900,769);
},
{
name = ogonek;
pos = (852,10);
},
{
name = top;
pos = (900,1538);
},
{
name = topleft;
pos = (20,1538);
},
{
name = topright;
pos = (1779,1538);
}
);
background = {
hints = (
{
horizontal = 1;
place = (-33, 62);
place = (-33, 62);
type = Stem;
},
{
horizontal = 1;
place = (1481, 61);
place = (1481, 61);
type = Stem;
},
{
place = (111, 61);
place = (111, 61);
type = Stem;
},
{
place = (1624, 62);
place = (1624, 62);
type = Stem;
}
);
shapes = (
{
closed = 1;
nodes = (
(320,238,o),
(415,143,o),
(536,72,cs),
(657,2,o),
(788,-33,o),
(931,-33,cs),
(1074,-33,o),
(1205,2,o),
(1326,72,cs),
(1447,143,o),
(1543,238,o),
(1613,359,cs),
(1684,480,o),
(1719,612,o),
(1719,755,cs),
(1719,898,o),
(1684,1029,o),
(1613,1150,cs),
(1543,1271,o),
(1447,1366,o),
(1326,1436,cs),
(1205,1507,o),
(1074,1542,o),
(931,1542,cs),
(788,1542,o),
(657,1507,o),
(536,1436,cs),
(415,1366,o),
(320,1271,o),
(249,1150,cs),
(179,1029,o),
(144,898,o),
(144,755,cs),
(144,612,o),
(179,480,o),
(249,359,cs)
);
},
{
closed = 1;
nodes = (
(367,1230,o),
(455,1318,o),
(566,1383,cs),
(677,1448,o),
(799,1481,o),
(931,1481,cs),
(1063,1481,o),
(1185,1448,o),
(1296,1383,cs),
(1407,1318,o),
(1495,1230,o),
(1560,1119,cs),
(1625,1008,o),
(1657,886,o),
(1657,754,cs),
(1657,623,o),
(1625,501,o),
(1560,390,cs),
(1495,279,o),
(1407,191,o),
(1296,126,cs),
(1185,61,o),
(1063,29,o),
(931,29,cs),
(799,29,o),
(677,61,o),
(566,126,cs),
(455,191,o),
(367,279,o),
(302,390,cs),
(237,501,o),
(205,623,o),
(205,754,cs),
(205,886,o),
(237,1008,o),
(302,1119,cs)
);
}
);
};
layerId = m004;
shapes = (
{
closed = 1;
nodes = (
(1342,-30,o),
(1699,325,o),
(1699,767,cs),
(1699,1209,o),
(1342,1568,o),
(900,1568,cs),
(457,1568,o),
(100,1209,o),
(100,767,cs),
(100,325,o),
(457,-30,o),
(900,-30,cs)
);
},
{
closed = 1;
nodes = (
(573,250,o),
(380,441,o),
(380,767,cs),
(380,1093,o),
(573,1288,o),
(900,1288,cs),
(1226,1288,o),
(1419,1093,o),
(1419,767,cs),
(1419,441,o),
(1226,250,o),
(900,250,cs)
);
}
);
width = 1799;
},
{
anchors = (
{
name = _bottom;
pos = (899,0);
},
{
name = _top;
pos = (899,1538);
},
{
name = top;
pos = (899,1538);
}
);
associatedMasterId = "12AF635E-66FE-4C90-B49C-8787585F2B73";
background = {
hints = (
{
horizontal = 1;
place = (-33, 62);
place = (-33, 62);
type = Stem;
},
{
horizontal = 1;
place = (1481, 61);
place = (1481, 61);
type = Stem;
},
{
place = (111, 61);
place = (111, 61);
type = Stem;
},
{
place = (1624, 62);
place = (1624, 62);
type = Stem;
}
);
shapes = (
{
closed = 1;
nodes = (
(320,238,o),
(415,143,o),
(536,72,cs),
(657,2,o),
(788,-33,o),
(931,-33,cs),
(1074,-33,o),
(1205,2,o),
(1326,72,cs),
(1447,143,o),
(1543,238,o),
(1613,359,cs),
(1684,480,o),
(1719,612,o),
(1719,755,cs),
(1719,898,o),
(1684,1029,o),
(1613,1150,cs),
(1543,1271,o),
(1447,1366,o),
(1326,1436,cs),
(1205,1507,o),
(1074,1542,o),
(931,1542,cs),
(788,1542,o),
(657,1507,o),
(536,1436,cs),
(415,1366,o),
(320,1271,o),
(249,1150,cs),
(179,1029,o),
(144,898,o),
(144,755,cs),
(144,612,o),
(179,480,o),
(249,359,cs)
);
},
{
closed = 1;
nodes = (
(367,1230,o),
(455,1318,o),
(566,1383,cs),
(677,1448,o),
(799,1481,o),
(931,1481,cs),
(1063,1481,o),
(1185,1448,o),
(1296,1383,cs),
(1407,1318,o),
(1495,1230,o),
(1560,1119,cs),
(1625,1008,o),
(1657,886,o),
(1657,754,cs),
(1657,623,o),
(1625,501,o),
(1560,390,cs),
(1495,279,o),
(1407,191,o),
(1296,126,cs),
(1185,61,o),
(1063,29,o),
(931,29,cs),
(799,29,o),
(677,61,o),
(566,126,cs),
(455,191,o),
(367,279,o),
(302,390,cs),
(237,501,o),
(205,623,o),
(205,754,cs),
(205,886,o),
(237,1008,o),
(302,1119,cs)
);
}
);
};
layerId = "3C20FD76-417B-44BF-B596-2506F5AD0F17";
name = "18 août 23 à 09:48";
shapes = (
{
closed = 1;
nodes = (
(1342,-30,o),
(1699,325,o),
(1699,767,cs),
(1699,1209,o),
(1342,1568,o),
(900,1568,cs),
(457,1568,o),
(100,1209,o),
(100,767,cs),
(100,325,o),
(457,-30,o),
(900,-30,cs)
);
}
);
width = 1799;
},
{
anchors = (
{
name = _bottom;
pos = (899,0);
},
{
name = _top;
pos = (899,1538);
},
{
name = top;
pos = (899,1538);
}
);
associatedMasterId = m004;
background = {
hints = (
{
horizontal = 1;
place = (-33, 62);
place = (-33, 62);
type = Stem;
},
{
horizontal = 1;
place = (1481, 61);
place = (1481, 61);
type = Stem;
},
{
place = (111, 61);
place = (111, 61);
type = Stem;
},
{
place = (1624, 62);
place = (1624, 62);
type = Stem;
}
);
shapes = (
{
closed = 1;
nodes = (
(320,238,o),
(415,143,o),
(536,72,cs),
(657,2,o),
(788,-33,o),
(931,-33,cs),
(1074,-33,o),
(1205,2,o),
(1326,72,cs),
(1447,143,o),
(1543,238,o),
(1613,359,cs),
(1684,480,o),
(1719,612,o),
(1719,755,cs),
(1719,898,o),
(1684,1029,o),
(1613,1150,cs),
(1543,1271,o),
(1447,1366,o),
(1326,1436,cs),
(1205,1507,o),
(1074,1542,o),
(931,1542,cs),
(788,1542,o),
(657,1507,o),
(536,1436,cs),
(415,1366,o),
(320,1271,o),
(249,1150,cs),
(179,1029,o),
(144,898,o),
(144,755,cs),
(144,612,o),
(179,480,o),
(249,359,cs)
);
},
{
closed = 1;
nodes = (
(367,1230,o),
(455,1318,o),
(566,1383,cs),
(677,1448,o),
(799,1481,o),
(931,1481,cs),
(1063,1481,o),
(1185,1448,o),
(1296,1383,cs),
(1407,1318,o),
(1495,1230,o),
(1560,1119,cs),
(1625,1008,o),
(1657,886,o),
(1657,754,cs),
(1657,623,o),
(1625,501,o),
(1560,390,cs),
(1495,279,o),
(1407,191,o),
(1296,126,cs),
(1185,61,o),
(1063,29,o),
(931,29,cs),
(799,29,o),
(677,61,o),
(566,126,cs),
(455,191,o),
(367,279,o),
(302,390,cs),
(237,501,o),
(205,623,o),
(205,754,cs),
(205,886,o),
(237,1008,o),
(302,1119,cs)
);
}
);
};
layerId = "EA0859D5-BDF6-465A-A6D9-8958477DF7EB";
name = "18 août 23 à 09:48";
shapes = (
{
closed = 1;
nodes = (
(1342,-30,o),
(1699,325,o),
(1699,767,cs),
(1699,1209,o),
(1342,1568,o),
(900,1568,cs),
(457,1568,o),
(100,1209,o),
(100,767,cs),
(100,325,o),
(457,-30,o),
(900,-30,cs)
);
}
);
width = 1799;
}
);
note = O;
unicode = 79;
},
{
glyphname = P;
kernLeft = H;
kernRight = P;
lastChange = "2023-09-14 04:35:09 +0000";
layers = (
{
anchors = (
{
name = bottom;
pos = (568,0);
},
{
name = top;
pos = (568,1538);
}
);
background = {
hints = (
{
horizontal = 1;
place = (-31, 21);
target = up;
type = BottomGhost;
},
{
horizontal = 1;
place = (526, 62);
place = (526, 62);
type = Stem;
},
{
horizontal = 1;
place = (1477, 61);
place = (1477, 61);
type = Stem;
},
{
place = (223, 62);
place = (223, 62);
type = Stem;
},
{
place = (1087, 62);
place = (1087, 62);
type = Stem;
}
);
shapes = (
{
closed = 1;
nodes = (
(159,0,ls),
(159,-21,o),
(169,-31,o),
(190,-31,cs),
(211,-31,o),
(221,-21,o),
(221,0,cs),
(221,526,l),
(579,526,ls),
(718,526,o),
(837,575,o),
(936,674,cs),
(1035,773,o),
(1085,893,o),
(1085,1032,cs),
(1085,1171,o),
(1035,1290,o),
(936,1389,cs),
(837,1488,o),
(718,1538,o),
(579,1538,cs),
(190,1538,ls),
(169,1538,o),
(159,1528,o),
(159,1507,cs)
);
},
{
closed = 1;
nodes = (
(221,588,l),
(221,1477,l),
(579,1477,ls),
(702,1477,o),
(806,1434,o),
(893,1347,cs),
(980,1260,o),
(1023,1155,o),
(1023,1032,cs),
(1023,909,o),
(980,805,o),
(893,718,cs),
(806,631,o),
(702,588,o),
(579,588,cs)
);
}
);
};
layerId = "12AF635E-66FE-4C90-B49C-8787585F2B73";
shapes = (
{
closed = 1;
nodes = (
(187,-1,o),
(200,12,o),
(200,29,cs),
(200,1478,l),
(531,1478,ls),
(785,1478,o),
(976,1287,o),
(976,1033,cs),
(976,778,o),
(785,587,o),
(531,587,cs),
(187,587,ls),
(170,587,o),
(157,574,o),
(157,557,cs),
(157,540,o),
(170,527,o),
(187,527,cs),
(531,527,ls),
(810,527,o),
(1036,753,o),
(1036,1033,cs),
(1036,1312,o),
(810,1538,o),
(531,1538,cs),
(172,1538,ls),
(154,1538,o),
(140,1524,o),
(140,1506,cs),
(140,29,ls),
(140,12,o),
(153,-1,o),
(170,-1,cs)
);
}
);
width = 1136;
},
{
anchors = (
{
name = bottom;
pos = (628,0);
},
{
name = top;
pos = (628,1538);
}
);
background = {
hints = (
{
horizontal = 1;
place = (-31, 21);
target = up;
type = BottomGhost;
},
{
horizontal = 1;
place = (526, 62);
place = (526, 62);
type = Stem;
},
{
horizontal = 1;
place = (1477, 61);
place = (1477, 61);
type = Stem;
},
{
place = (223, 62);
place = (223, 62);
type = Stem;
},
{
place = (1087, 62);
place = (1087, 62);
type = Stem;
}
);
shapes = (
{
closed = 1;
nodes = (
(159,0,ls),
(159,-21,o),
(169,-31,o),
(190,-31,cs),
(211,-31,o),
(221,-21,o),
(221,0,cs),
(221,526,l),
(579,526,ls),
(718,526,o),
(837,575,o),
(936,674,cs),
(1035,773,o),
(1085,893,o),
(1085,1032,cs),
(1085,1171,o),
(1035,1290,o),
(936,1389,cs),
(837,1488,o),
(718,1538,o),
(579,1538,cs),
(190,1538,ls),
(169,1538,o),
(159,1528,o),
(159,1507,cs)
);
},
{
closed = 1;
nodes = (
(221,588,l),
(221,1477,l),
(579,1477,ls),
(702,1477,o),
(806,1434,o),
(893,1347,cs),
(980,1260,o),
(1023,1155,o),
(1023,1032,cs),
(1023,909,o),
(980,805,o),
(893,718,cs),
(806,631,o),
(702,588,o),
(579,588,cs)
);
}
);
};
layerId = m004;
shapes = (
{
closed = 1;
nodes = (
(357,0,o),
(420,63,o),
(420,140,cs),
(420,1258,l),
(651,1258,ls),
(774,1258,o),
(876,1176,o),
(876,1033,cs),
(876,889,o),
(774,807,o),
(651,807,cs),
(386,807,ls),
(309,807,o),
(246,744,o),
(246,667,cs),
(246,590,o),
(309,527,o),
(386,527,cs),
(651,527,ls),
(930,527,o),
(1156,753,o),
(1156,1033,cs),
(1156,1312,o),
(930,1538,o),
(651,1538,cs),
(262,1538,ls),
(191,1538,o),
(140,1487,o),
(140,1416,cs),
(140,140,ls),
(140,63,o),
(203,0,o),
(280,0,cs)
);
}
);
width = 1256;
},
{
anchors = (
{
name = _bottom;
pos = (661,0);
},
{
name = _top;
pos = (661,1538);
},
{
name = top;
pos = (661,1538);
}
);
associatedMasterId = m004;
background = {
hints = (
{
horizontal = 1;
place = (-31, 21);
target = up;
type = BottomGhost;
},
{
horizontal = 1;
place = (526, 62);
place = (526, 62);
type = Stem;
},
{
horizontal = 1;
place = (1477, 61);
place = (1477, 61);
type = Stem;
},
{
place = (223, 62);
place = (223, 62);
type = Stem;
},
{
place = (1087, 62);
place = (1087, 62);
type = Stem;
}
);
shapes = (
{
closed = 1;
nodes = (
(223,0,ls),
(223,-21,o),
(233,-31,o),
(254,-31,cs),
(275,-31,o),
(285,-21,o),
(285,0,cs),
(285,526,l),
(643,526,ls),
(782,526,o),
(901,575,o),
(1000,674,cs),
(1099,773,o),
(1149,893,o),
(1149,1032,cs),
(1149,1171,o),
(1099,1290,o),
(1000,1389,cs),
(901,1488,o),
(782,1538,o),
(643,1538,cs),
(254,1538,ls),
(233,1538,o),
(223,1528,o),
(223,1507,cs)
);
},
{
closed = 1;
nodes = (
(285,588,l),
(285,1477,l),
(643,1477,ls),
(766,1477,o),
(870,1434,o),
(957,1347,cs),
(1044,1260,o),
(1087,1155,o),
(1087,1032,cs),
(1087,909,o),
(1044,805,o),
(957,718,cs),
(870,631,o),
(766,588,o),
(643,588,cs)
);
}
);
};
layerId = "CAB5FBC5-47EB-4E6C-BD36-1525ED66F332";
name = "18 août 23 à 09:48";
shapes = (
{
closed = 0;
nodes = (
(204,0,l),
(204,1538,l),
(595,1538,ls),
(874,1538,o),
(1100,1312,o),
(1100,1033,cs),
(1100,753,o),
(874,527,o),
(595,527,cs),
(204,527,l)
);
}
);
width = 1323;
},
{
anchors = (
{
name = _bottom;
pos = (661,0);
},
{
name = _top;
pos = (661,1538);
},
{
name = top;
pos = (661,1538);
}
);
associatedMasterId = "12AF635E-66FE-4C90-B49C-8787585F2B73";
background = {
hints = (
{
horizontal = 1;
place = (-31, 21);
target = up;
type = BottomGhost;
},
{
horizontal = 1;
place = (526, 62);
place = (526, 62);
type = Stem;
},
{
horizontal = 1;
place = (1477, 61);
place = (1477, 61);
type = Stem;
},
{
place = (223, 62);
place = (223, 62);
type = Stem;
},
{
place = (1087, 62);
place = (1087, 62);
type = Stem;
}
);
shapes = (
{
closed = 1;
nodes = (
(223,0,ls),
(223,-21,o),
(233,-31,o),
(254,-31,cs),
(275,-31,o),
(285,-21,o),
(285,0,cs),
(285,526,l),
(643,526,ls),
(782,526,o),
(901,575,o),
(1000,674,cs),
(1099,773,o),
(1149,893,o),
(1149,1032,cs),
(1149,1171,o),
(1099,1290,o),
(1000,1389,cs),
(901,1488,o),
(782,1538,o),
(643,1538,cs),
(254,1538,ls),
(233,1538,o),
(223,1528,o),
(223,1507,cs)
);
},
{
closed = 1;
nodes = (
(285,588,l),
(285,1477,l),
(643,1477,ls),
(766,1477,o),
(870,1434,o),
(957,1347,cs),
(1044,1260,o),
(1087,1155,o),
(1087,1032,cs),
(1087,909,o),
(1044,805,o),
(957,718,cs),
(870,631,o),
(766,588,o),
(643,588,cs)
);
}
);
};
layerId = "05823890-4C22-4B2A-996F-2213AF241B90";
name = "18 août 23 à 09:48";
shapes = (
{
closed = 0;
nodes = (
(204,0,l),
(204,1538,l),
(595,1538,ls),
(874,1538,o),
(1100,1312,o),
(1100,1033,cs),
(1100,753,o),
(874,527,o),
(595,527,cs),
(204,527,l)
);
}
);
width = 1323;
}
);
note = P;
unicode = 80;
},
{
glyphname = Thorn;
kernLeft = H;
kernRight = P;
lastChange = "2023-09-14 04:35:09 +0000";
layers = (
{
hints = (
{
horizontal = 1;
place = (526, 62);
place = (526, 62);
type = Stem;
},
{
horizontal = 1;
place = (1477, 61);
place = (1477, 61);
type = Stem;
},
{
place = (223, 62);
place = (223, 62);
type = Stem;
},
{
place = (961, 61);
place = (961, 61);
type = Stem;
}
);
layerId = "12AF635E-66FE-4C90-B49C-8787585F2B73";
shapes = (
{
closed = 1;
nodes = (
(567,321,ls),
(866,321,o),
(1108,563,o),
(1108,863,cs),
(1108,1162,o),
(866,1404,o),
(567,1404,cs),
(203,1404,ls),
(186,1404,o),
(173,1391,o),
(173,1374,cs),
(173,1357,o),
(186,1344,o),
(203,1344,cs),
(567,1344,ls),
(836,1344,o),
(1048,1132,o),
(1048,863,cs),
(1048,593,o),
(836,381,o),
(567,381,cs),
(203,381,ls),
(186,381,o),
(173,368,o),
(173,351,cs),
(173,334,o),
(186,321,o),
(203,321,cs)
);
},
{
closed = 1;
nodes = (
(187,0,o),
(200,13,o),
(200,30,cs),
(200,1508,ls),
(200,1525,o),
(187,1538,o),
(170,1538,cs),
(153,1538,o),
(140,1525,o),
(140,1508,cs),
(140,30,ls),
(140,13,o),
(153,0,o),
(170,0,cs)
);
}
);
width = 1208;
},
{
hints = (
{
horizontal = 1;
place = (526, 62);
place = (526, 62);
type = Stem;
},
{
horizontal = 1;
place = (1477, 61);
place = (1477, 61);
type = Stem;
},
{
place = (223, 62);
place = (223, 62);
type = Stem;
},
{
place = (961, 61);
place = (961, 61);
type = Stem;
}
);
layerId = m004;
shapes = (
{
closed = 1;
nodes = (
(741,157,ls),
(1097,157,o),
(1386,446,o),
(1386,803,cs),
(1386,1159,o),
(1097,1448,o),
(741,1448,cs),
(350,1448,ls),
(273,1448,o),
(210,1385,o),
(210,1308,cs),
(210,1231,o),
(273,1168,o),
(350,1168,cs),
(741,1168,ls),
(962,1168,o),
(1106,1024,o),
(1106,803,cs),
(1106,581,o),
(962,437,o),
(741,437,cs),
(350,437,ls),
(273,437,o),
(210,374,o),
(210,297,cs),
(210,220,o),
(273,157,o),
(350,157,cs)
);
},
{
closed = 1;
nodes = (
(357,0,o),
(420,63,o),
(420,140,cs),
(420,1398,ls),
(420,1475,o),
(357,1538,o),
(280,1538,cs),
(203,1538,o),
(140,1475,o),
(140,1398,cs),
(140,140,ls),
(140,63,o),
(203,0,o),
(280,0,cs)
);
}
);
width = 1486;
}
);
metricLeft = P;
metricRight = P;
note = Thorn;
unicode = 222;
},
{
glyphname = Q;
kernLeft = O;
kernRight = O;
lastChange = "2023-09-14 04:35:09 +0000";
layers = (
{
anchors = (
{
name = bottom;
pos = (900,0);
},
{
name = top;
pos = (900,1538);
}
);
background = {
hints = (
{
horizontal = 1;
place = (-33, 61);
place = (-33, 61);
type = Stem;
},
{
horizontal = 1;
place = (1481, 61);
place = (1481, 61);
type = Stem;
},
{
place = (61, 62);
place = (61, 62);
type = Stem;
},
{
place = (1575, 61);
place = (1575, 61);
type = Stem;
}
);
shapes = (
{
closed = 1;
nodes = (
(61,629,o),
(88,511,o),
(142,401,cs),
(196,291,o),
(287,191,o),
(414,101,cs),
(542,12,o),
(687,-33,o),
(849,-33,cs),
(1012,-33,o),
(1157,12,o),
(1286,101,cs),
(1415,191,o),
(1505,291,o),
(1557,401,cs),
(1610,511,o),
(1636,629,o),
(1636,754,cs),
(1636,897,o),
(1601,1029,o),
(1530,1150,cs),
(1460,1271,o),
(1365,1366,o),
(1244,1436,cs),
(1123,1507,o),
(992,1542,o),
(849,1542,cs),
(706,1542,o),
(574,1507,o),
(453,1436,cs),
(332,1366,o),
(237,1271,o),
(166,1150,cs),
(96,1029,o),
(61,897,o),
(61,754,cs)
);
},
{
closed = 1;
nodes = (
(879,815,l),
(864,834,o),
(838,834,o),
(827,815,c),
(401,184,l),
(315,253,o),
(247,336,o),
(197,435,cs),
(148,534,o),
(123,641,o),
(123,754,cs),
(123,887,o),
(155,1008,o),
(220,1119,cs),
(285,1230,o),
(373,1318,o),
(484,1383,cs),
(595,1448,o),
(717,1481,o),
(849,1481,cs),
(981,1481,o),
(1102,1448,o),
(1213,1383,cs),
(1324,1318,o),
(1412,1230,o),
(1477,1119,cs),
(1542,1008,o),
(1575,887,o),
(1575,754,cs),
(1575,641,o),
(1550,534,o),
(1501,435,cs),
(1452,336,o),
(1384,252,o),
(1298,184,c)
);
},
{
closed = 1;
nodes = (
(852,743,l),
(1249,147,l),
(1128,68,o),
(994,29,o),
(849,28,cs),
(704,28,o),
(571,68,o),
(451,147,c)
);
}
);
};
layerId = "12AF635E-66FE-4C90-B49C-8787585F2B73";
shapes = (
{
closed = 1;
nodes = (
(1342,-30,o),
(1699,325,o),
(1699,767,cs),
(1699,1209,o),
(1342,1568,o),
(900,1568,cs),
(457,1568,o),
(100,1209,o),
(100,767,cs),
(100,325,o),
(457,-30,o),
(900,-30,cs)
);
},
{
closed = 1;
nodes = (
(743,30,o),
(599,75,o),
(481,154,c),
(899,766,l),
(1319,154,l),
(1201,75,o),
(1057,30,o),
(900,30,cs)
);
},
{
closed = 1;
nodes = (
(265,323,o),
(160,529,o),
(160,767,cs),
(160,1184,o),
(482,1508,o),
(900,1508,cs),
(1317,1508,o),
(1639,1184,o),
(1639,767,cs),
(1639,529,o),
(1534,323,o),
(1367,190,c),
(929,829,ls),
(914,851,o),
(884,851,o),
(869,828,cs),
(432,190,l)
);
}
);
width = 1799;
},
{
anchors = (
{
name = bottom;
pos = (900,0);
},
{
name = top;
pos = (900,1538);
}
);
layerId = m004;
shapes = (
{
closed = 1;
nodes = (
(1342,-30,o),
(1699,325,o),
(1699,767,cs),
(1699,1209,o),
(1342,1568,o),
(900,1568,cs),
(457,1568,o),
(100,1209,o),
(100,767,cs),
(100,325,o),
(457,-30,o),
(900,-30,cs)
);
},
{
closed = 1;
nodes = (
(826,250,o),
(759,260,o),
(700,279,c),
(899,571,l),
(1100,279,l),
(1041,260,o),
(974,250,o),
(900,250,cs)
);
},
{
closed = 1;
nodes = (
(412,525,o),
(380,635,o),
(380,767,cs),
(380,1093,o),
(573,1288,o),
(900,1288,cs),
(1226,1288,o),
(1419,1093,o),
(1419,767,cs),
(1419,635,o),
(1387,526,o),
(1328,442,c),
(1015,899,ls),
(955,986,o),
(844,985,o),
(784,898,cs),
(471,441,l)
);
}
);
width = 1799;
},
{
anchors = (
{
name = _bottom;
pos = (850,0);
},
{
name = _top;
pos = (850,1538);
},
{
name = top;
pos = (850,1538);
}
);
associatedMasterId = "12AF635E-66FE-4C90-B49C-8787585F2B73";
background = {
hints = (
{
horizontal = 1;
place = (-33, 61);
place = (-33, 61);
type = Stem;
},
{
horizontal = 1;
place = (1481, 61);
place = (1481, 61);
type = Stem;
},
{
place = (61, 62);
place = (61, 62);
type = Stem;
},
{
place = (1575, 61);
place = (1575, 61);
type = Stem;
}
);
shapes = (
{
closed = 1;
nodes = (
(61,629,o),
(88,511,o),
(142,401,cs),
(196,291,o),
(287,191,o),
(414,101,cs),
(542,12,o),
(687,-33,o),
(849,-33,cs),
(1012,-33,o),
(1157,12,o),
(1286,101,cs),
(1415,191,o),
(1505,291,o),
(1557,401,cs),
(1610,511,o),
(1636,629,o),
(1636,754,cs),
(1636,897,o),
(1601,1029,o),
(1530,1150,cs),
(1460,1271,o),
(1365,1366,o),
(1244,1436,cs),
(1123,1507,o),
(992,1542,o),
(849,1542,cs),
(706,1542,o),
(574,1507,o),
(453,1436,cs),
(332,1366,o),
(237,1271,o),
(166,1150,cs),
(96,1029,o),
(61,897,o),
(61,754,cs)
);
},
{
closed = 1;
nodes = (
(879,815,l),
(864,834,o),
(838,834,o),
(827,815,c),
(401,184,l),
(315,253,o),
(247,336,o),
(197,435,cs),
(148,534,o),
(123,641,o),
(123,754,cs),
(123,887,o),
(155,1008,o),
(220,1119,cs),
(285,1230,o),
(373,1318,o),
(484,1383,cs),
(595,1448,o),
(717,1481,o),
(849,1481,cs),
(981,1481,o),
(1102,1448,o),
(1213,1383,cs),
(1324,1318,o),
(1412,1230,o),
(1477,1119,cs),
(1542,1008,o),
(1575,887,o),
(1575,754,cs),
(1575,641,o),
(1550,534,o),
(1501,435,cs),
(1452,336,o),
(1384,252,o),
(1298,184,c)
);
},
{
closed = 1;
nodes = (
(852,743,l),
(1249,147,l),
(1128,68,o),
(994,29,o),
(849,28,cs),
(704,28,o),
(571,68,o),
(451,147,c)
);
}
);
};
layerId = "316821DF-6EF1-4944-AFD5-0BD46F418953";
name = "18 août 23 à 09:48";
shapes = (
{
closed = 1;
nodes = (
(1342,-30,o),
(1699,325,o),
(1699,767,cs),
(1699,1209,o),
(1342,1568,o),
(900,1568,cs),
(457,1568,o),
(100,1209,o),
(100,767,cs),
(100,325,o),
(457,-30,o),
(900,-30,cs)
);
},
{
closed = 0;
nodes = (
(434,119,l),
(899,799,l),
(1366,119,l)
);
}
);
width = 1701;
},
{
anchors = (
{
name = _bottom;
pos = (850,0);
},
{
name = _top;
pos = (850,1538);
},
{
name = top;
pos = (850,1538);
}
);
associatedMasterId = m004;
background = {
hints = (
{
horizontal = 1;
place = (-33, 61);
place = (-33, 61);
type = Stem;
},
{
horizontal = 1;
place = (1481, 61);
place = (1481, 61);
type = Stem;
},
{
place = (61, 62);
place = (61, 62);
type = Stem;
},
{
place = (1575, 61);
place = (1575, 61);
type = Stem;
}
);
shapes = (
{
closed = 1;
nodes = (
(61,629,o),
(88,511,o),
(142,401,cs),
(196,291,o),
(287,191,o),
(414,101,cs),
(542,12,o),
(687,-33,o),
(849,-33,cs),
(1012,-33,o),
(1157,12,o),
(1286,101,cs),
(1415,191,o),
(1505,291,o),
(1557,401,cs),
(1610,511,o),
(1636,629,o),
(1636,754,cs),
(1636,897,o),
(1601,1029,o),
(1530,1150,cs),
(1460,1271,o),
(1365,1366,o),
(1244,1436,cs),
(1123,1507,o),
(992,1542,o),
(849,1542,cs),
(706,1542,o),
(574,1507,o),
(453,1436,cs),
(332,1366,o),
(237,1271,o),
(166,1150,cs),
(96,1029,o),
(61,897,o),
(61,754,cs)
);
},
{
closed = 1;
nodes = (
(879,815,l),
(864,834,o),
(838,834,o),
(827,815,c),
(401,184,l),
(315,253,o),
(247,336,o),
(197,435,cs),
(148,534,o),
(123,641,o),
(123,754,cs),
(123,887,o),
(155,1008,o),
(220,1119,cs),
(285,1230,o),
(373,1318,o),
(484,1383,cs),
(595,1448,o),
(717,1481,o),
(849,1481,cs),
(981,1481,o),
(1102,1448,o),
(1213,1383,cs),
(1324,1318,o),
(1412,1230,o),
(1477,1119,cs),
(1542,1008,o),
(1575,887,o),
(1575,754,cs),
(1575,641,o),
(1550,534,o),
(1501,435,cs),
(1452,336,o),
(1384,252,o),
(1298,184,c)
);
},
{
closed = 1;
nodes = (
(852,743,l),
(1249,147,l),
(1128,68,o),
(994,29,o),
(849,28,cs),
(704,28,o),
(571,68,o),
(451,147,c)
);
}
);
};
layerId = "B65FF986-711B-4514-A99D-423403320E64";
name = "18 août 23 à 09:48";
shapes = (
{
closed = 1;
nodes = (
(1342,-30,o),
(1699,325,o),
(1699,767,cs),
(1699,1209,o),
(1342,1568,o),
(900,1568,cs),
(457,1568,o),
(100,1209,o),
(100,767,cs),
(100,325,o),
(457,-30,o),
(900,-30,cs)
);
},
{
closed = 0;
nodes = (
(434,119,l),
(899,799,l),
(1366,119,l)
);
}
);
width = 1701;
},
{
anchors = (
{
name = bottom;
pos = (900,0);
},
{
name = top;
pos = (900,1538);
}
);
associatedMasterId = "12AF635E-66FE-4C90-B49C-8787585F2B73";
background = {
hints = (
{
horizontal = 1;
place = (-33, 61);
place = (-33, 61);
type = Stem;
},
{
horizontal = 1;
place = (1481, 61);
place = (1481, 61);
type = Stem;
},
{
place = (61, 62);
place = (61, 62);
type = Stem;
},
{
place = (1575, 61);
place = (1575, 61);
type = Stem;
}
);
shapes = (
{
closed = 1;
nodes = (
(61,629,o),
(88,511,o),
(142,401,cs),
(196,291,o),
(287,191,o),
(414,101,cs),
(542,12,o),
(687,-33,o),
(849,-33,cs),
(1012,-33,o),
(1157,12,o),
(1286,101,cs),
(1415,191,o),
(1505,291,o),
(1557,401,cs),
(1610,511,o),
(1636,629,o),
(1636,754,cs),
(1636,897,o),
(1601,1029,o),
(1530,1150,cs),
(1460,1271,o),
(1365,1366,o),
(1244,1436,cs),
(1123,1507,o),
(992,1542,o),
(849,1542,cs),
(706,1542,o),
(574,1507,o),
(453,1436,cs),
(332,1366,o),
(237,1271,o),
(166,1150,cs),
(96,1029,o),
(61,897,o),
(61,754,cs)
);
},
{
closed = 1;
nodes = (
(879,815,l),
(864,834,o),
(838,834,o),
(827,815,c),
(401,184,l),
(315,253,o),
(247,336,o),
(197,435,cs),
(148,534,o),
(123,641,o),
(123,754,cs),
(123,887,o),
(155,1008,o),
(220,1119,cs),
(285,1230,o),
(373,1318,o),
(484,1383,cs),
(595,1448,o),
(717,1481,o),
(849,1481,cs),
(981,1481,o),
(1102,1448,o),
(1213,1383,cs),
(1324,1318,o),
(1412,1230,o),
(1477,1119,cs),
(1542,1008,o),
(1575,887,o),
(1575,754,cs),
(1575,641,o),
(1550,534,o),
(1501,435,cs),
(1452,336,o),
(1384,252,o),
(1298,184,c)
);
},
{
closed = 1;
nodes = (
(852,743,l),
(1249,147,l),
(1128,68,o),
(994,29,o),
(849,28,cs),
(704,28,o),
(571,68,o),
(451,147,c)
);
}
);
};
layerId = "63130C77-2026-400C-BB8E-D163941B4D8D";
name = "18 août 23 à 16:49";
shapes = (
{
closed = 1;
nodes = (
(1342,-30,o),
(1699,325,o),
(1699,767,cs),
(1699,1209,o),
(1342,1568,o),
(900,1568,cs),
(457,1568,o),
(100,1209,o),
(100,767,cs),
(100,325,o),
(457,-30,o),
(900,-30,cs)
);
},
{
closed = 1;
nodes = (
(1326,144,ls),
(1332,136,o),
(1341,131,o),
(1351,131,cs),
(1367,131,o),
(1381,145,o),
(1381,161,cs),
(1381,168,o),
(1379,174,o),
(1375,179,cs),
(929,829,ls),
(914,851,o),
(884,851,o),
(869,828,cs),
(425,179,ls),
(421,174,o),
(419,168,o),
(419,161,cs),
(419,145,o),
(433,131,o),
(449,131,cs),
(459,131,o),
(468,136,o),
(474,144,cs),
(899,766,l)
);
},
{
closed = 1;
nodes = (
(482,30,o),
(160,350,o),
(160,767,cs),
(160,1184,o),
(482,1508,o),
(900,1508,cs),
(1317,1508,o),
(1639,1184,o),
(1639,767,cs),
(1639,350,o),
(1317,30,o),
(900,30,cs)
);
}
);
width = 1799;
},
{
anchors = (
{
name = bottom;
pos = (900,0);
},
{
name = top;
pos = (900,1538);
}
);
associatedMasterId = m004;
layerId = "B824C4A5-1527-49B1-8DA4-219FF8805D97";
name = "18 août 23 à 16:49";
shapes = (
{
closed = 1;
nodes = (
(1342,-30,o),
(1699,325,o),
(1699,767,cs),
(1699,1209,o),
(1342,1568,o),
(900,1568,cs),
(457,1568,o),
(100,1209,o),
(100,767,cs),
(100,325,o),
(457,-30,o),
(900,-30,cs)
);
},
{
closed = 1;
nodes = (
(1180,162,ls),
(1206,126,o),
(1247,103,o),
(1295,103,cs),
(1372,103,o),
(1435,166,o),
(1435,243,cs),
(1435,273,o),
(1425,301,o),
(1409,324,cs),
(1015,899,ls),
(955,986,o),
(844,985,o),
(784,898,cs),
(391,324,ls),
(375,301,o),
(365,273,o),
(365,243,cs),
(365,166,o),
(428,103,o),
(505,103,cs),
(552,103,o),
(594,127,o),
(620,162,cs),
(899,571,l)
);
},
{
closed = 1;
nodes = (
(573,250,o),
(380,441,o),
(380,767,cs),
(380,1093,o),
(573,1288,o),
(900,1288,cs),
(1226,1288,o),
(1419,1093,o),
(1419,767,cs),
(1419,441,o),
(1226,250,o),
(900,250,cs)
);
}
);
width = 1799;
}
);
note = Q;
unicode = 81;
},
{
glyphname = R;
kernLeft = H;
kernRight = R;
lastChange = "2023-09-14 04:35:09 +0000";
layers = (
{
anchors = (
{
name = bottom;
pos = (601,0);
},
{
name = top;
pos = (531,1538);
}
);
background = {
hints = (
{
horizontal = 1;
place = (-31, 21);
target = up;
type = BottomGhost;
},
{
horizontal = 1;
place = (526, 62);
place = (526, 62);
type = Stem;
},
{
horizontal = 1;
place = (1477, 61);
place = (1477, 61);
type = Stem;
},
{
place = (217, 62);
place = (217, 62);
type = Stem;
},
{
place = (1079, 62);
place = (1079, 62);
type = Stem;
},
{
horizontal = 1;
place = (-32, 21);
target = up;
type = BottomGhost;
}
);
shapes = (
{
closed = 1;
nodes = (
(153,0,ls),
(153,-16,o),
(168,-31,o),
(184,-31,cs),
(200,-31,o),
(215,-16,o),
(215,0,cs),
(215,526,l),
(571,526,ls),
(641,526,o),
(708,540,o),
(772,567,c),
(1161,-16,ls),
(1168,-27,o),
(1175,-32,o),
(1184,-32,cs),
(1190,-33,o),
(1196,-31,o),
(1203,-26,cs),
(1213,-19,o),
(1218,-12,o),
(1218,-3,cs),
(1218,3,o),
(1215,9,o),
(1210,16,cs),
(827,596,l),
(904,640,o),
(964,701,o),
(1009,778,cs),
(1054,856,o),
(1077,941,o),
(1077,1032,cs),
(1077,1171,o),
(1028,1290,o),
(929,1389,cs),
(831,1488,o),
(712,1538,o),
(571,1538,cs),
(182,1538,ls),
(181,1538,o),
(179,1537,o),
(176,1536,cs),
(161,1532,o),
(153,1522,o),
(153,1507,cs)
);
},
{
closed = 1;
nodes = (
(241,1477,l),
(571,1477,ls),
(694,1477,o),
(798,1433,o),
(885,1346,cs),
(972,1259,o),
(1015,1155,o),
(1015,1032,cs),
(1015,951,o),
(995,876,o),
(954,807,cs),
(914,738,o),
(860,685,o),
(792,647,c)
);
},
{
closed = 1;
nodes = (
(215,588,l),
(215,1405,l),
(737,618,l),
(684,598,o),
(628,588,o),
(571,588,cs)
);
}
);
};
layerId = "12AF635E-66FE-4C90-B49C-8787585F2B73";
shapes = (
{
closed = 1;
nodes = (
(187,0,o),
(200,13,o),
(200,30,cs),
(200,1478,l),
(531,1478,ls),
(785,1478,o),
(976,1287,o),
(976,1033,cs),
(976,778,o),
(785,587,o),
(531,587,cs),
(187,587,ls),
(170,587,o),
(157,574,o),
(157,557,cs),
(157,540,o),
(170,527,o),
(187,527,cs),
(531,527,ls),
(810,527,o),
(1036,753,o),
(1036,1033,cs),
(1036,1312,o),
(810,1538,o),
(531,1538,cs),
(171,1538,ls),
(151,1538,o),
(140,1527,o),
(140,1507,cs),
(140,30,ls),
(140,13,o),
(153,0,o),
(170,0,cs)
);
},
{
closed = 1;
nodes = (
(1210,0,o),
(1224,14,o),
(1224,30,cs),
(1224,36,o),
(1222,42,o),
(1217,50,cs),
(220,1519,ls),
(214,1527,o),
(205,1532,o),
(195,1532,cs),
(178,1532,o),
(165,1518,o),
(165,1502,cs),
(165,1495,o),
(167,1489,o),
(172,1482,cs),
(1169,13,ls),
(1174,5,o),
(1183,0,o),
(1194,0,cs)
);
}
);
width = 1324;
},
{
anchors = (
{
name = bottom;
pos = (715,0);
},
{
name = top;
pos = (671,1538);
}
);
background = {
hints = (
{
horizontal = 1;
place = (-31, 21);
target = up;
type = BottomGhost;
},
{
horizontal = 1;
place = (526, 62);
place = (526, 62);
type = Stem;
},
{
horizontal = 1;
place = (1477, 61);
place = (1477, 61);
type = Stem;
},
{
place = (217, 62);
place = (217, 62);
type = Stem;
},
{
place = (1079, 62);
place = (1079, 62);
type = Stem;
},
{
horizontal = 1;
place = (-32, 21);
target = up;
type = BottomGhost;
}
);
shapes = (
{
closed = 1;
nodes = (
(209,0,ls),
(209,-16,o),
(224,-31,o),
(240,-31,cs),
(256,-31,o),
(271,-16,o),
(271,0,cs),
(271,526,l),
(627,526,ls),
(697,526,o),
(764,540,o),
(828,567,c),
(1217,-16,ls),
(1224,-27,o),
(1231,-32,o),
(1240,-32,cs),
(1246,-33,o),
(1252,-31,o),
(1259,-26,cs),
(1269,-19,o),
(1274,-12,o),
(1274,-3,cs),
(1274,3,o),
(1271,9,o),
(1266,16,cs),
(883,596,l),
(960,640,o),
(1020,701,o),
(1065,778,cs),
(1110,856,o),
(1133,941,o),
(1133,1032,cs),
(1133,1171,o),
(1084,1290,o),
(985,1389,cs),
(887,1488,o),
(768,1538,o),
(627,1538,cs),
(238,1538,ls),
(237,1538,o),
(235,1537,o),
(232,1536,cs),
(217,1532,o),
(209,1522,o),
(209,1507,cs)
);
},
{
closed = 1;
nodes = (
(297,1477,l),
(627,1477,ls),
(750,1477,o),
(854,1433,o),
(941,1346,cs),
(1028,1259,o),
(1071,1155,o),
(1071,1032,cs),
(1071,951,o),
(1051,876,o),
(1010,807,cs),
(970,738,o),
(916,685,o),
(848,647,c)
);
},
{
closed = 1;
nodes = (
(271,588,l),
(271,1405,l),
(793,618,l),
(740,598,o),
(684,588,o),
(627,588,cs)
);
}
);
};
layerId = m004;
shapes = (
{
closed = 1;
nodes = (
(357,0,o),
(420,63,o),
(420,140,cs),
(420,1258,l),
(707,1258,ls),
(893,1258,o),
(988,1163,o),
(988,977,cs),
(988,790,o),
(893,695,o),
(707,695,cs),
(322,695,ls),
(245,695,o),
(182,632,o),
(182,555,cs),
(182,478,o),
(245,415,o),
(322,415,cs),
(707,415,ls),
(1017,415,o),
(1268,666,o),
(1268,977,cs),
(1268,1287,o),
(1017,1538,o),
(707,1538,cs),
(260,1538,ls),
(182,1538,o),
(140,1496,o),
(140,1418,cs),
(140,140,ls),
(140,63,o),
(203,0,o),
(280,0,cs)
);
},
{
closed = 1;
nodes = (
(1268,0,o),
(1330,63,o),
(1330,140,cs),
(1330,170,o),
(1321,198,o),
(1305,221,cs),
(456,1469,ls),
(431,1505,o),
(389,1528,o),
(341,1528,cs),
(264,1528,o),
(201,1465,o),
(201,1388,cs),
(201,1358,o),
(211,1331,o),
(227,1308,cs),
(1076,60,ls),
(1101,24,o),
(1143,0,o),
(1190,0,cs)
);
}
);
width = 1430;
},
{
anchors = (
{
name = _bottom;
pos = (721,0);
},
{
name = _top;
pos = (721,1538);
},
{
name = top;
pos = (721,1538);
}
);
associatedMasterId = m004;
background = {
hints = (
{
horizontal = 1;
place = (-31, 21);
target = up;
type = BottomGhost;
},
{
horizontal = 1;
place = (526, 62);
place = (526, 62);
type = Stem;
},
{
horizontal = 1;
place = (1477, 61);
place = (1477, 61);
type = Stem;
},
{
place = (217, 62);
place = (217, 62);
type = Stem;
},
{
place = (1079, 62);
place = (1079, 62);
type = Stem;
},
{
horizontal = 1;
place = (-32, 21);
target = up;
type = BottomGhost;
}
);
shapes = (
{
closed = 1;
nodes = (
(217,0,ls),
(217,-16,o),
(232,-31,o),
(248,-31,cs),
(264,-31,o),
(279,-16,o),
(279,0,cs),
(279,526,l),
(635,526,ls),
(705,526,o),
(772,540,o),
(836,567,c),
(1225,-16,ls),
(1232,-27,o),
(1239,-32,o),
(1248,-32,cs),
(1254,-33,o),
(1260,-31,o),
(1267,-26,cs),
(1277,-19,o),
(1282,-12,o),
(1282,-3,cs),
(1282,3,o),
(1279,9,o),
(1274,16,cs),
(891,596,l),
(968,640,o),
(1028,701,o),
(1073,778,cs),
(1118,856,o),
(1141,941,o),
(1141,1032,cs),
(1141,1171,o),
(1092,1290,o),
(993,1389,cs),
(895,1488,o),
(776,1538,o),
(635,1538,cs),
(246,1538,ls),
(245,1538,o),
(243,1537,o),
(240,1536,cs),
(225,1532,o),
(217,1522,o),
(217,1507,cs)
);
},
{
closed = 1;
nodes = (
(305,1477,l),
(635,1477,ls),
(758,1477,o),
(862,1433,o),
(949,1346,cs),
(1036,1259,o),
(1079,1155,o),
(1079,1032,cs),
(1079,951,o),
(1059,876,o),
(1018,807,cs),
(978,738,o),
(924,685,o),
(856,647,c)
);
},
{
closed = 1;
nodes = (
(279,588,l),
(279,1405,l),
(801,618,l),
(748,598,o),
(692,588,o),
(635,588,cs)
);
}
);
};
layerId = "C365BD1A-35CF-419C-B930-FCA97E79DC98";
name = "18 août 23 à 09:48";
shapes = (
{
closed = 0;
nodes = (
(204,0,l),
(204,1538,l),
(595,1538,ls),
(874,1538,o),
(1100,1312,o),
(1100,1033,cs),
(1100,753,o),
(874,527,o),
(595,527,cs),
(204,527,l)
);
},
{
closed = 0;
nodes = (
(1252,0,l),
(204,1538,l)
);
}
);
width = 1443;
},
{
anchors = (
{
name = _bottom;
pos = (721,0);
},
{
name = _top;
pos = (721,1538);
},
{
name = top;
pos = (721,1538);
}
);
associatedMasterId = "12AF635E-66FE-4C90-B49C-8787585F2B73";
background = {
hints = (
{
horizontal = 1;
place = (-31, 21);
target = up;
type = BottomGhost;
},
{
horizontal = 1;
place = (526, 62);
place = (526, 62);
type = Stem;
},
{
horizontal = 1;
place = (1477, 61);
place = (1477, 61);
type = Stem;
},
{
place = (217, 62);
place = (217, 62);
type = Stem;
},
{
place = (1079, 62);
place = (1079, 62);
type = Stem;
},
{
horizontal = 1;
place = (-32, 21);
target = up;
type = BottomGhost;
}
);
shapes = (
{
closed = 1;
nodes = (
(217,0,ls),
(217,-16,o),
(232,-31,o),
(248,-31,cs),
(264,-31,o),
(279,-16,o),
(279,0,cs),
(279,526,l),
(635,526,ls),
(705,526,o),
(772,540,o),
(836,567,c),
(1225,-16,ls),
(1232,-27,o),
(1239,-32,o),
(1248,-32,cs),
(1254,-33,o),
(1260,-31,o),
(1267,-26,cs),
(1277,-19,o),
(1282,-12,o),
(1282,-3,cs),
(1282,3,o),
(1279,9,o),
(1274,16,cs),
(891,596,l),
(968,640,o),
(1028,701,o),
(1073,778,cs),
(1118,856,o),
(1141,941,o),
(1141,1032,cs),
(1141,1171,o),
(1092,1290,o),
(993,1389,cs),
(895,1488,o),
(776,1538,o),
(635,1538,cs),
(246,1538,ls),
(245,1538,o),
(243,1537,o),
(240,1536,cs),
(225,1532,o),
(217,1522,o),
(217,1507,cs)
);
},
{
closed = 1;
nodes = (
(305,1477,l),
(635,1477,ls),
(758,1477,o),
(862,1433,o),
(949,1346,cs),
(1036,1259,o),
(1079,1155,o),
(1079,1032,cs),
(1079,951,o),
(1059,876,o),
(1018,807,cs),
(978,738,o),
(924,685,o),
(856,647,c)
);
},
{
closed = 1;
nodes = (
(279,588,l),
(279,1405,l),
(801,618,l),
(748,598,o),
(692,588,o),
(635,588,cs)
);
}
);
};
layerId = "403DAF1A-3D24-43C1-B79F-2A191AF1D4D9";
name = "18 août 23 à 09:48";
shapes = (
{
closed = 0;
nodes = (
(204,0,l),
(204,1538,l),
(595,1538,ls),
(874,1538,o),
(1100,1312,o),
(1100,1033,cs),
(1100,753,o),
(874,527,o),
(595,527,cs),
(204,527,l)
);
},
{
closed = 0;
nodes = (
(1252,0,l),
(204,1538,l)
);
}
);
width = 1443;
}
);
note = R;
unicode = 82;
},
{
glyphname = S;
kernLeft = S;
kernRight = S;
lastChange = "2023-09-14 04:35:09 +0000";
layers = (
{
anchors = (
{
name = bottom;
pos = (622,0);
},
{
name = top;
pos = (622,1538);
}
);
background = {
hints = (
{
horizontal = 1;
place = (-31, 62);
place = (-31, 62);
type = Stem;
},
{
horizontal = 1;
place = (1477, 61);
place = (1477, 61);
type = Stem;
},
{
place = (168, 61);
place = (168, 61);
type = Stem;
}
);
shapes = (
{
closed = 1;
nodes = (
(751,274,l),
(1006,31,l),
(181,31,ls),
(137,31,o),
(139,-31,o),
(181,-31,cs),
(1080,-31,l),
(1093,-30,o),
(1103,-24,o),
(1108,-11,cs),
(1110,-6,o),
(1111,-2,o),
(1111,2,cs),
(1111,10,o),
(1108,17,o),
(1102,23,cs),
(668,435,ls),
(493,597,o),
(381,707,o),
(332,766,c),
(1053,1485,ls),
(1062,1494,o),
(1064,1505,o),
(1059,1518,cs),
(1054,1531,o),
(1044,1538,o),
(1031,1538,cs),
(654,1538,ls),
(515,1538,o),
(395,1488,o),
(296,1389,cs),
(197,1290,o),
(148,1171,o),
(148,1032,cs),
(148,945,o),
(187,853,o),
(244,776,cs),
(273,738,o),
(315,691,o),
(370,634,cs),
(425,577,o),
(480,525,o),
(533,476,cs)
);
},
{
closed = 1;
nodes = (
(209,1034,ls),
(209,1156,o),
(252,1260,o),
(339,1347,cs),
(426,1434,o),
(531,1477,o),
(654,1477,cs),
(957,1477,l),
(293,813,l),
(240,886,o),
(212,955,o),
(209,1020,cs)
);
}
);
};
layerId = "12AF635E-66FE-4C90-B49C-8787585F2B73";
shapes = (
{
closed = 1;
nodes = (
(1074,0,ls),
(1120,0,o),
(1140,51,o),
(1105,80,cs),
(331,723,ls),
(217,818,o),
(177,934,o),
(177,1035,cs),
(177,1284,o),
(371,1478,o),
(620,1478,cs),
(984,1478,l),
(276,770,ls),
(270,764,o),
(267,757,o),
(267,749,cs),
(267,733,o),
(281,719,o),
(297,719,cs),
(305,719,o),
(312,722,o),
(318,728,cs),
(1052,1462,ls),
(1083,1493,o),
(1063,1538,o),
(1020,1538,cs),
(620,1538,ls),
(343,1538,o),
(117,1312,o),
(117,1035,cs),
(117,920,o),
(165,784,o),
(291,679,cs),
(1037,60,l),
(80,60,ls),
(63,60,o),
(50,47,o),
(50,30,cs),
(50,13,o),
(63,0,o),
(80,0,cs)
);
}
);
width = 1193;
},
{
anchors = (
{
name = bottom;
pos = (653,0);
},
{
name = top;
pos = (653,1538);
}
);
background = {
hints = (
{
horizontal = 1;
place = (-31, 62);
place = (-31, 62);
type = Stem;
},
{
horizontal = 1;
place = (1477, 61);
place = (1477, 61);
type = Stem;
},
{
place = (168, 61);
place = (168, 61);
type = Stem;
}
);
shapes = (
{
closed = 1;
nodes = (
(771,274,l),
(1026,31,l),
(201,31,ls),
(157,31,o),
(159,-31,o),
(201,-31,cs),
(1100,-31,l),
(1113,-30,o),
(1123,-24,o),
(1128,-11,cs),
(1130,-6,o),
(1131,-2,o),
(1131,2,cs),
(1131,10,o),
(1128,17,o),
(1122,23,cs),
(688,435,ls),
(513,597,o),
(401,707,o),
(352,766,c),
(1073,1485,ls),
(1082,1494,o),
(1084,1505,o),
(1079,1518,cs),
(1074,1531,o),
(1064,1538,o),
(1051,1538,cs),
(674,1538,ls),
(535,1538,o),
(415,1488,o),
(316,1389,cs),
(217,1290,o),
(168,1171,o),
(168,1032,cs),
(168,945,o),
(207,853,o),
(264,776,cs),
(293,738,o),
(335,691,o),
(390,634,cs),
(445,577,o),
(500,525,o),
(553,476,cs)
);
},
{
closed = 1;
nodes = (
(229,1034,ls),
(229,1156,o),
(272,1260,o),
(359,1347,cs),
(446,1434,o),
(551,1477,o),
(674,1477,cs),
(977,1477,l),
(313,813,l),
(260,886,o),
(232,955,o),
(229,1020,cs)
);
}
);
};
layerId = m004;
shapes = (
{
closed = 1;
nodes = (
(997,0,ls),
(1187,0,o),
(1262,209,o),
(1114,331,cs),
(482,852,ls),
(416,906,o),
(401,950,o),
(401,1014,cs),
(401,1168,o),
(491,1258,o),
(645,1258,cs),
(792,1258,l),
(422,895,ls),
(397,870,o),
(381,835,o),
(381,796,cs),
(381,719,o),
(444,656,o),
(521,656,cs),
(559,656,o),
(594,671,o),
(619,696,cs),
(1173,1243,ls),
(1294,1362,o),
(1220,1538,o),
(1051,1538,cs),
(645,1538,ls),
(356,1538,o),
(121,1303,o),
(121,1014,cs),
(121,894,o),
(172,746,o),
(306,634,cs),
(731,280,l),
(190,280,ls),
(113,280,o),
(50,217,o),
(50,140,cs),
(50,63,o),
(113,0,o),
(190,0,cs)
);
}
);
width = 1303;
},
{
anchors = (
{
name = _bottom;
pos = (652,0);
},
{
name = _top;
pos = (652,1538);
},
{
name = top;
pos = (652,1538);
}
);
associatedMasterId = "12AF635E-66FE-4C90-B49C-8787585F2B73";
background = {
hints = (
{
horizontal = 1;
place = (-31, 62);
place = (-31, 62);
type = Stem;
},
{
horizontal = 1;
place = (1477, 61);
place = (1477, 61);
type = Stem;
},
{
place = (168, 61);
place = (168, 61);
type = Stem;
}
);
shapes = (
{
closed = 1;
nodes = (
(771,274,l),
(1026,31,l),
(201,31,ls),
(157,31,o),
(159,-31,o),
(201,-31,cs),
(1100,-31,l),
(1113,-30,o),
(1123,-24,o),
(1128,-11,cs),
(1130,-6,o),
(1131,-2,o),
(1131,2,cs),
(1131,10,o),
(1128,17,o),
(1122,23,cs),
(688,435,ls),
(513,597,o),
(401,707,o),
(352,766,c),
(1073,1485,ls),
(1082,1494,o),
(1084,1505,o),
(1079,1518,cs),
(1074,1531,o),
(1064,1538,o),
(1051,1538,cs),
(674,1538,ls),
(535,1538,o),
(415,1488,o),
(316,1389,cs),
(217,1290,o),
(168,1171,o),
(168,1032,cs),
(168,945,o),
(207,853,o),
(264,776,cs),
(293,738,o),
(335,691,o),
(390,634,cs),
(445,577,o),
(500,525,o),
(553,476,cs)
);
},
{
closed = 1;
nodes = (
(229,1034,ls),
(229,1156,o),
(272,1260,o),
(359,1347,cs),
(446,1434,o),
(551,1477,o),
(674,1477,cs),
(977,1477,l),
(313,813,l),
(260,886,o),
(232,955,o),
(229,1020,cs)
);
}
);
};
layerId = "0D32DBB1-72D2-4365-BE0D-47839EF72A92";
name = "18 août 23 à 09:48";
shapes = (
{
closed = 0;
nodes = (
(139,0,l),
(1095,0,l),
(331,731,ls),
(219,839,o),
(167,958,o),
(167,1065,cs),
(167,1326,o),
(379,1538,o),
(640,1538,cs),
(1076,1538,l),
(301,763,l)
);
}
);
width = 1304;
},
{
anchors = (
{
name = _bottom;
pos = (652,0);
},
{
name = _top;
pos = (652,1538);
},
{
name = top;
pos = (652,1538);
}
);
associatedMasterId = "12AF635E-66FE-4C90-B49C-8787585F2B73";
background = {
hints = (
{
horizontal = 1;
place = (-31, 62);
place = (-31, 62);
type = Stem;
},
{
horizontal = 1;
place = (1477, 61);
place = (1477, 61);
type = Stem;
},
{
place = (168, 61);
place = (168, 61);
type = Stem;
}
);
shapes = (
{
closed = 1;
nodes = (
(771,274,l),
(1026,31,l),
(201,31,ls),
(157,31,o),
(159,-31,o),
(201,-31,cs),
(1100,-31,l),
(1113,-30,o),
(1123,-24,o),
(1128,-11,cs),
(1130,-6,o),
(1131,-2,o),
(1131,2,cs),
(1131,10,o),
(1128,17,o),
(1122,23,cs),
(688,435,ls),
(513,597,o),
(401,707,o),
(352,766,c),
(1073,1485,ls),
(1082,1494,o),
(1084,1505,o),
(1079,1518,cs),
(1074,1531,o),
(1064,1538,o),
(1051,1538,cs),
(674,1538,ls),
(535,1538,o),
(415,1488,o),
(316,1389,cs),
(217,1290,o),
(168,1171,o),
(168,1032,cs),
(168,945,o),
(207,853,o),
(264,776,cs),
(293,738,o),
(335,691,o),
(390,634,cs),
(445,577,o),
(500,525,o),
(553,476,cs)
);
},
{
closed = 1;
nodes = (
(229,1034,ls),
(229,1156,o),
(272,1260,o),
(359,1347,cs),
(446,1434,o),
(551,1477,o),
(674,1477,cs),
(977,1477,l),
(313,813,l),
(260,886,o),
(232,955,o),
(229,1020,cs)
);
}
);
};
layerId = "85C0BF5C-99FB-4165-A864-EBAB2E78C412";
name = "18 août 23 à 09:48";
shapes = (
{
closed = 0;
nodes = (
(139,0,l),
(1095,0,l),
(331,731,ls),
(219,839,o),
(167,958,o),
(167,1065,cs),
(167,1326,o),
(379,1538,o),
(640,1538,cs),
(1076,1538,l),
(301,763,l)
);
}
);
width = 1304;
},
{
anchors = (
{
name = _bottom;
pos = (652,0);
},
{
name = _top;
pos = (652,1538);
},
{
name = top;
pos = (652,1538);
}
);
associatedMasterId = m004;
background = {
hints = (
{
horizontal = 1;
place = (-31, 62);
place = (-31, 62);
type = Stem;
},
{
horizontal = 1;
place = (1477, 61);
place = (1477, 61);
type = Stem;
},
{
place = (168, 61);
place = (168, 61);
type = Stem;
}
);
shapes = (
{
closed = 1;
nodes = (
(771,274,l),
(1026,31,l),
(201,31,ls),
(157,31,o),
(159,-31,o),
(201,-31,cs),
(1100,-31,l),
(1113,-30,o),
(1123,-24,o),
(1128,-11,cs),
(1130,-6,o),
(1131,-2,o),
(1131,2,cs),
(1131,10,o),
(1128,17,o),
(1122,23,cs),
(688,435,ls),
(513,597,o),
(401,707,o),
(352,766,c),
(1073,1485,ls),
(1082,1494,o),
(1084,1505,o),
(1079,1518,cs),
(1074,1531,o),
(1064,1538,o),
(1051,1538,cs),
(674,1538,ls),
(535,1538,o),
(415,1488,o),
(316,1389,cs),
(217,1290,o),
(168,1171,o),
(168,1032,cs),
(168,945,o),
(207,853,o),
(264,776,cs),
(293,738,o),
(335,691,o),
(390,634,cs),
(445,577,o),
(500,525,o),
(553,476,cs)
);
},
{
closed = 1;
nodes = (
(229,1034,ls),
(229,1156,o),
(272,1260,o),
(359,1347,cs),
(446,1434,o),
(551,1477,o),
(674,1477,cs),
(977,1477,l),
(313,813,l),
(260,886,o),
(232,955,o),
(229,1020,cs)
);
}
);
};
layerId = "DB0479E1-A77D-463B-94B6-98DCAA4B4A0B";
name = "18 août 23 à 09:48";
shapes = (
{
closed = 0;
nodes = (
(139,0,l),
(1095,0,l),
(331,731,ls),
(219,839,o),
(167,958,o),
(167,1065,cs),
(167,1326,o),
(379,1538,o),
(640,1538,cs),
(1076,1538,l),
(301,763,l)
);
}
);
width = 1304;
}
);
note = S;
unicode = 83;
},
{
glyphname = Germandbls;
kernLeft = H;
kernRight = B;
lastChange = "2023-09-14 04:35:09 +0000";
layers = (
{
hints = (
{
horizontal = 1;
place = (-33, 62);
place = (-33, 62);
type = Stem;
},
{
horizontal = 1;
place = (756, 61);
place = (756, 61);
type = Stem;
},
{
horizontal = 1;
place = (924, 61);
place = (924, 61);
type = Stem;
},
{
horizontal = 1;
place = (1477, 61);
place = (1477, 61);
type = Stem;
},
{
place = (354, 62);
place = (354, 62);
type = Stem;
},
{
place = (551, 63);
place = (551, 63);
type = Stem;
},
{
place = (940, 61);
place = (940, 61);
type = Stem;
},
{
place = (1161, 62);
place = (1161, 62);
type = Stem;
},
{
horizontal = 1;
place = (-37, 62);
place = (-37, 62);
type = Stem;
}
);
layerId = "12AF635E-66FE-4C90-B49C-8787585F2B73";
shapes = (
{
closed = 1;
nodes = (
(187,0,o),
(200,13,o),
(200,30,cs),
(200,1478,l),
(1073,1478,l),
(159,617,ls),
(153,612,o),
(149,604,o),
(149,595,cs),
(149,579,o),
(163,565,o),
(179,565,cs),
(187,565,o),
(194,568,o),
(200,574,cs),
(1140,1459,ls),
(1173,1490,o),
(1154,1538,o),
(1109,1538,cs),
(172,1538,ls),
(154,1538,o),
(140,1524,o),
(140,1506,cs),
(140,30,ls),
(140,13,o),
(153,0,o),
(170,0,cs)
);
},
{
closed = 1;
nodes = (
(849,0,ls),
(1112,0,o),
(1325,213,o),
(1325,475,cs),
(1325,582,o),
(1273,702,o),
(1160,810,cs),
(800,1154,ls),
(795,1159,o),
(788,1163,o),
(780,1163,cs),
(763,1163,o),
(750,1149,o),
(750,1133,cs),
(750,1125,o),
(753,1117,o),
(758,1112,cs),
(1118,767,ls),
(1223,667,o),
(1265,569,o),
(1265,475,cs),
(1265,238,o),
(1087,60,o),
(849,60,cs),
(438,60,ls),
(421,60,o),
(408,47,o),
(408,30,cs),
(408,13,o),
(421,0,o),
(438,0,cs)
);
}
);
width = 1425;
},
{
hints = (
{
horizontal = 1;
place = (-33, 62);
place = (-33, 62);
type = Stem;
},
{
horizontal = 1;
place = (756, 61);
place = (756, 61);
type = Stem;
},
{
horizontal = 1;
place = (924, 61);
place = (924, 61);
type = Stem;
},
{
horizontal = 1;
place = (1477, 61);
place = (1477, 61);
type = Stem;
},
{
place = (354, 62);
place = (354, 62);
type = Stem;
},
{
place = (551, 63);
place = (551, 63);
type = Stem;
},
{
place = (940, 61);
place = (940, 61);
type = Stem;
},
{
place = (1161, 62);
place = (1161, 62);
type = Stem;
},
{
horizontal = 1;
place = (-37, 62);
place = (-37, 62);
type = Stem;
}
);
layerId = m004;
shapes = (
{
closed = 1;
nodes = (
(357,0,o),
(420,63,o),
(420,140,cs),
(420,1258,l),
(814,1258,l),
(190,671,ls),
(163,645,o),
(146,609,o),
(146,569,cs),
(146,492,o),
(209,429,o),
(286,429,cs),
(324,429,o),
(358,444,o),
(383,468,cs),
(1196,1233,ls),
(1324,1354,o),
(1250,1538,o),
(1075,1538,cs),
(262,1538,ls),
(191,1538,o),
(140,1487,o),
(140,1416,cs),
(140,140,ls),
(140,63,o),
(203,0,o),
(280,0,cs)
);
},
{
closed = 1;
nodes = (
(985,0,ls),
(1294,0,o),
(1545,251,o),
(1545,559,cs),
(1545,689,o),
(1483,831,o),
(1355,954,cs),
(1096,1204,ls),
(1071,1229,o),
(1037,1244,o),
(999,1244,cs),
(921,1244,o),
(859,1181,o),
(859,1104,cs),
(859,1065,o),
(875,1029,o),
(901,1004,cs),
(1159,753,ls),
(1244,671,o),
(1265,624,o),
(1265,559,cs),
(1265,378,o),
(1167,280,o),
(985,280,cs),
(673,280,ls),
(596,280,o),
(533,217,o),
(533,140,cs),
(533,63,o),
(596,0,o),
(673,0,cs)
);
}
);
width = 1645;
},
{
associatedMasterId = m004;
hints = (
{
horizontal = 1;
place = (-33, 62);
place = (-33, 62);
type = Stem;
},
{
horizontal = 1;
place = (756, 61);
place = (756, 61);
type = Stem;
},
{
horizontal = 1;
place = (924, 61);
place = (924, 61);
type = Stem;
},
{
horizontal = 1;
place = (1477, 61);
place = (1477, 61);
type = Stem;
},
{
place = (354, 62);
place = (354, 62);
type = Stem;
},
{
place = (551, 63);
place = (551, 63);
type = Stem;
},
{
place = (940, 61);
place = (940, 61);
type = Stem;
},
{
place = (1161, 62);
place = (1161, 62);
type = Stem;
},
{
horizontal = 1;
place = (-37, 62);
place = (-37, 62);
type = Stem;
}
);
layerId = "B2882C7C-30D1-44B8-A527-B560C92EA4FE";
name = "18 août 23 à 21:13";
shapes = (
{
closed = 0;
nodes = (
(1102,680,l),
(422,0,l),
(805,0,ls),
(1034,0,o),
(1220,186,o),
(1220,415,cs),
(1220,509,o),
(1175,613,o),
(1076,707,cs),
(740,1029,l),
(1254,1538,l),
(130,1538,l),
(130,0,l)
);
}
);
width = 1645;
}
);
unicode = 7838;
},
{
glyphname = T;
kernLeft = T;
kernRight = T;
lastChange = "2023-09-14 04:35:09 +0000";
layers = (
{
anchors = (
{
name = bottom;
pos = (713,0);
},
{
name = center;
pos = (741,769);
},
{
name = top;
pos = (713,1538);
}
);
background = {
hints = (
{
horizontal = 1;
place = (-31, 21);
target = up;
type = BottomGhost;
},
{
place = (731, 62);
place = (731, 62);
type = Stem;
}
);
shapes = (
{
closed = 1;
nodes = (
(704,1444,l),
(704,0,ls),
(704,-21,o),
(714,-31,o),
(735,-31,cs),
(756,-31,o),
(766,-21,o),
(766,0,cs),
(766,1444,l),
(1337,1001,ls),
(1354,989,o),
(1368,991,o),
(1380,1008,cs),
(1385,1015,o),
(1388,1022,o),
(1388,1028,cs),
(1388,1036,o),
(1383,1044,o),
(1374,1051,cs),
(753,1532,l),
(735,1539,l),
(728,1539,o),
(722,1537,o),
(716,1532,cs),
(96,1051,ls),
(87,1044,o),
(82,1037,o),
(82,1028,cs),
(82,1022,o),
(85,1015,o),
(90,1008,cs),
(102,991,o),
(116,989,o),
(133,1001,cs)
);
}
);
};
layerId = "12AF635E-66FE-4C90-B49C-8787585F2B73";
shapes = (
{
closed = 1;
nodes = (
(106,1013,o),
(113,1016,o),
(118,1020,cs),
(713,1469,l),
(1308,1020,ls),
(1313,1016,o),
(1320,1013,o),
(1326,1013,cs),
(1343,1013,o),
(1356,1027,o),
(1356,1043,cs),
(1356,1053,o),
(1352,1062,o),
(1345,1067,cs),
(731,1532,ls),
(721,1540,o),
(705,1540,o),
(695,1532,cs),
(81,1067,ls),
(74,1062,o),
(70,1053,o),
(70,1043,cs),
(70,1027,o),
(83,1013,o),
(100,1013,cs)
);
},
{
closed = 1;
nodes = (
(730,0,o),
(743,13,o),
(743,30,cs),
(743,1498,ls),
(743,1515,o),
(730,1528,o),
(713,1528,cs),
(696,1528,o),
(683,1515,o),
(683,1498,cs),
(683,30,ls),
(683,13,o),
(696,0,o),
(713,0,cs)
);
}
);
width = 1426;
},
{
anchors = (
{
name = bottom;
pos = (744,0);
},
{
name = center;
pos = (772,769);
},
{
name = top;
pos = (744,1538);
}
);
background = {
hints = (
{
horizontal = 1;
place = (-31, 21);
target = up;
type = BottomGhost;
},
{
place = (731, 62);
place = (731, 62);
type = Stem;
}
);
shapes = (
{
closed = 1;
nodes = (
(735,1444,l),
(735,0,ls),
(735,-21,o),
(745,-31,o),
(766,-31,cs),
(787,-31,o),
(797,-21,o),
(797,0,cs),
(797,1444,l),
(1368,1001,ls),
(1385,989,o),
(1399,991,o),
(1411,1008,cs),
(1416,1015,o),
(1419,1022,o),
(1419,1028,cs),
(1419,1036,o),
(1414,1044,o),
(1405,1051,cs),
(784,1532,l),
(766,1539,l),
(759,1539,o),
(753,1537,o),
(747,1532,cs),
(127,1051,ls),
(118,1044,o),
(113,1037,o),
(113,1028,cs),
(113,1022,o),
(116,1015,o),
(121,1008,cs),
(133,991,o),
(147,989,o),
(164,1001,cs)
);
}
);
};
layerId = m004;
shapes = (
{
closed = 1;
nodes = (
(242,846,o),
(271,857,o),
(295,875,cs),
(744,1215,l),
(1193,875,ls),
(1217,857,o),
(1246,846,o),
(1278,846,cs),
(1356,846,o),
(1418,909,o),
(1418,986,cs),
(1418,1031,o),
(1398,1072,o),
(1364,1097,cs),
(812,1514,ls),
(770,1546,o),
(718,1546,o),
(676,1514,cs),
(124,1097,ls),
(90,1072,o),
(70,1031,o),
(70,986,cs),
(70,909,o),
(132,846,o),
(210,846,cs)
);
},
{
closed = 1;
nodes = (
(821,0,o),
(884,63,o),
(884,140,cs),
(884,1378,ls),
(884,1455,o),
(821,1518,o),
(744,1518,cs),
(667,1518,o),
(604,1455,o),
(604,1378,cs),
(604,140,ls),
(604,63,o),
(667,0,o),
(744,0,cs)
);
}
);
width = 1488;
},
{
anchors = (
{
name = _bottom;
pos = (768,0);
},
{
name = _top;
pos = (768,1538);
},
{
name = top;
pos = (768,1538);
}
);
associatedMasterId = m004;
background = {
hints = (
{
horizontal = 1;
place = (-31, 21);
target = up;
type = BottomGhost;
},
{
place = (731, 62);
place = (731, 62);
type = Stem;
}
);
shapes = (
{
closed = 1;
nodes = (
(731,1444,l),
(731,0,ls),
(731,-21,o),
(741,-31,o),
(762,-31,cs),
(783,-31,o),
(793,-21,o),
(793,0,cs),
(793,1444,l),
(1364,1001,ls),
(1381,989,o),
(1395,991,o),
(1407,1008,cs),
(1412,1015,o),
(1415,1022,o),
(1415,1028,cs),
(1415,1036,o),
(1410,1044,o),
(1401,1051,cs),
(780,1532,l),
(762,1539,l),
(755,1539,o),
(749,1537,o),
(743,1532,cs),
(123,1051,ls),
(114,1044,o),
(109,1037,o),
(109,1028,cs),
(109,1022,o),
(112,1015,o),
(117,1008,cs),
(129,991,o),
(143,989,o),
(160,1001,cs)
);
}
);
};
layerId = "206210C0-7776-465B-8FEC-B418E9E0F89B";
name = "18 août 23 à 09:48";
shapes = (
{
closed = 0;
nodes = (
(740,0,l),
(740,1538,l)
);
},
{
closed = 0;
nodes = (
(105,1059,l),
(740,1539,l),
(1375,1059,l)
);
}
);
width = 1536;
},
{
anchors = (
{
name = _bottom;
pos = (768,0);
},
{
name = _top;
pos = (768,1538);
},
{
name = top;
pos = (768,1538);
}
);
associatedMasterId = "12AF635E-66FE-4C90-B49C-8787585F2B73";
background = {
hints = (
{
horizontal = 1;
place = (-31, 21);
target = up;
type = BottomGhost;
},
{
place = (731, 62);
place = (731, 62);
type = Stem;
}
);
shapes = (
{
closed = 1;
nodes = (
(731,1444,l),
(731,0,ls),
(731,-21,o),
(741,-31,o),
(762,-31,cs),
(783,-31,o),
(793,-21,o),
(793,0,cs),
(793,1444,l),
(1364,1001,ls),
(1381,989,o),
(1395,991,o),
(1407,1008,cs),
(1412,1015,o),
(1415,1022,o),
(1415,1028,cs),
(1415,1036,o),
(1410,1044,o),
(1401,1051,cs),
(780,1532,l),
(762,1539,l),
(755,1539,o),
(749,1537,o),
(743,1532,cs),
(123,1051,ls),
(114,1044,o),
(109,1037,o),
(109,1028,cs),
(109,1022,o),
(112,1015,o),
(117,1008,cs),
(129,991,o),
(143,989,o),
(160,1001,cs)
);
}
);
};
layerId = "BB49DD66-933E-43EC-8EBA-5896DFC60FF4";
name = "18 août 23 à 09:48";
shapes = (
{
closed = 0;
nodes = (
(740,0,l),
(740,1538,l)
);
},
{
closed = 0;
nodes = (
(105,1059,l),
(740,1539,l),
(1375,1059,l)
);
}
);
width = 1536;
}
);
note = T;
unicode = 84;
},
{
glyphname = Tbar;
kernLeft = T;
kernRight = T;
lastChange = "2023-09-14 04:35:09 +0000";
layers = (
{
layerId = "12AF635E-66FE-4C90-B49C-8787585F2B73";
shapes = (
{
closed = 1;
nodes = (
(1099,623,ls),
(1116,623,o),
(1129,636,o),
(1129,653,cs),
(1129,670,o),
(1116,683,o),
(1099,683,cs),
(381,683,ls),
(364,683,o),
(351,670,o),
(351,653,cs),
(351,636,o),
(364,623,o),
(381,623,cs)
);
},
{
ref = T;
}
);
width = 1536;
},
{
layerId = m004;
shapes = (
{
closed = 1;
nodes = (
(1099,491,ls),
(1176,491,o),
(1239,554,o),
(1239,631,cs),
(1239,708,o),
(1176,771,o),
(1099,771,cs),
(381,771,ls),
(304,771,o),
(241,708,o),
(241,631,cs),
(241,554,o),
(304,491,o),
(381,491,cs)
);
},
{
ref = T;
}
);
width = 1536;
}
);
unicode = 358;
},
{
glyphname = U;
kernLeft = H;
kernRight = H;
lastChange = "2023-09-14 04:35:09 +0000";
layers = (
{
anchors = (
{
name = bottom;
pos = (686,0);
},
{
name = ogonek;
pos = (791,10);
},
{
name = top;
pos = (686,1538);
},
{
name = topright;
pos = (1342,1538);
}
);
background = {
hints = (
{
horizontal = 1;
place = (-31, 62);
place = (-31, 62);
type = Stem;
},
{
place = (133, 62);
place = (133, 62);
type = Stem;
},
{
place = (1159, 62);
place = (1159, 62);
type = Stem;
}
);
shapes = (
{
closed = 1;
nodes = (
(142,479,ls),
(142,340,o),
(195,220,o),
(302,119,cs),
(409,19,o),
(536,-31,o),
(685,-31,cs),
(836,-31,o),
(965,17,o),
(1071,114,cs),
(1177,211,o),
(1230,333,o),
(1230,479,cs),
(1230,1509,ls),
(1230,1526,o),
(1215,1540,o),
(1198,1540,cs),
(1181,1540,o),
(1168,1525,o),
(1168,1509,cs),
(1168,479,ls),
(1168,350,o),
(1121,243,o),
(1028,158,cs),
(935,73,o),
(820,31,o),
(685,31,cs),
(552,31,o),
(439,75,o),
(345,164,cs),
(251,253,o),
(204,358,o),
(204,479,cs),
(204,1509,ls),
(205,1550,o),
(141,1548,o),
(142,1509,cs)
);
}
);
};
layerId = "12AF635E-66FE-4C90-B49C-8787585F2B73";
shapes = (
{
closed = 1;
nodes = (
(985,-31,o),
(1229,192,o),
(1229,493,cs),
(1229,1508,ls),
(1229,1525,o),
(1216,1538,o),
(1199,1538,cs),
(1182,1538,o),
(1169,1525,o),
(1169,1508,cs),
(1169,493,ls),
(1169,222,o),
(957,29,o),
(685,29,cs),
(412,29,o),
(200,222,o),
(200,493,cs),
(200,1508,ls),
(200,1525,o),
(187,1538,o),
(170,1538,cs),
(153,1538,o),
(140,1525,o),
(140,1508,cs),
(140,493,ls),
(140,192,o),
(384,-31,o),
(685,-31,cs)
);
}
);
width = 1369;
},
{
anchors = (
{
name = bottom;
pos = (796,0);
},
{
name = ogonek;
pos = (860,69);
},
{
name = top;
pos = (796,1538);
},
{
name = topright;
pos = (1452,1538);
}
);
background = {
hints = (
{
horizontal = 1;
place = (-31, 62);
place = (-31, 62);
type = Stem;
},
{
place = (133, 62);
place = (133, 62);
type = Stem;
},
{
place = (1159, 62);
place = (1159, 62);
type = Stem;
}
);
shapes = (
{
closed = 1;
nodes = (
(252,479,ls),
(252,340,o),
(305,220,o),
(412,119,cs),
(519,19,o),
(646,-31,o),
(795,-31,cs),
(946,-31,o),
(1075,17,o),
(1181,114,cs),
(1287,211,o),
(1340,333,o),
(1340,479,cs),
(1340,1509,ls),
(1340,1526,o),
(1325,1540,o),
(1308,1540,cs),
(1291,1540,o),
(1278,1525,o),
(1278,1509,cs),
(1278,479,ls),
(1278,350,o),
(1231,243,o),
(1138,158,cs),
(1045,73,o),
(930,31,o),
(795,31,cs),
(662,31,o),
(549,75,o),
(455,164,cs),
(361,253,o),
(314,358,o),
(314,479,cs),
(314,1509,ls),
(315,1550,o),
(251,1548,o),
(252,1509,cs)
);
}
);
};
layerId = m004;
shapes = (
{
closed = 1;
nodes = (
(1154,-31,o),
(1449,240,o),
(1449,603,cs),
(1449,1398,ls),
(1449,1475,o),
(1386,1538,o),
(1309,1538,cs),
(1232,1538,o),
(1169,1475,o),
(1169,1398,cs),
(1169,603,ls),
(1169,381,o),
(1025,249,o),
(795,249,cs),
(564,249,o),
(420,381,o),
(420,603,cs),
(420,1398,ls),
(420,1475,o),
(357,1538,o),
(280,1538,cs),
(203,1538,o),
(140,1475,o),
(140,1398,cs),
(140,603,ls),
(140,240,o),
(435,-31,o),
(795,-31,cs)
);
}
);
width = 1589;
},
{
anchors = (
{
name = _bottom;
pos = (676,0);
},
{
name = _top;
pos = (676,1538);
},
{
name = top;
pos = (676,1538);
}
);
associatedMasterId = "12AF635E-66FE-4C90-B49C-8787585F2B73";
background = {
hints = (
{
horizontal = 1;
place = (-31, 62);
place = (-31, 62);
type = Stem;
},
{
place = (133, 62);
place = (133, 62);
type = Stem;
},
{
place = (1159, 62);
place = (1159, 62);
type = Stem;
}
);
shapes = (
{
closed = 1;
nodes = (
(133,479,ls),
(133,340,o),
(186,220,o),
(293,119,cs),
(400,19,o),
(527,-31,o),
(676,-31,cs),
(827,-31,o),
(956,17,o),
(1062,114,cs),
(1168,211,o),
(1221,333,o),
(1221,479,cs),
(1221,1509,ls),
(1221,1526,o),
(1206,1540,o),
(1189,1540,cs),
(1172,1540,o),
(1159,1525,o),
(1159,1509,cs),
(1159,479,ls),
(1159,350,o),
(1112,243,o),
(1019,158,cs),
(926,73,o),
(811,31,o),
(676,31,cs),
(543,31,o),
(430,75,o),
(336,164,cs),
(242,253,o),
(195,358,o),
(195,479,cs),
(195,1509,ls),
(196,1550,o),
(132,1548,o),
(133,1509,cs)
);
}
);
};
layerId = "D0B95DC2-B6A0-4171-B0BC-4D892967D863";
name = "18 août 23 à 09:48";
shapes = (
{
closed = 0;
nodes = (
(163,1538,l),
(163,464,ls),
(163,180,o),
(393,-30,o),
(678,-30,cs),
(962,-30,o),
(1192,180,o),
(1192,464,cs),
(1192,1538,l)
);
}
);
width = 1353;
},
{
anchors = (
{
name = _bottom;
pos = (676,0);
},
{
name = _top;
pos = (676,1538);
},
{
name = top;
pos = (676,1538);
}
);
associatedMasterId = m004;
background = {
hints = (
{
horizontal = 1;
place = (-31, 62);
place = (-31, 62);
type = Stem;
},
{
place = (133, 62);
place = (133, 62);
type = Stem;
},
{
place = (1159, 62);
place = (1159, 62);
type = Stem;
}
);
shapes = (
{
closed = 1;
nodes = (
(133,479,ls),
(133,340,o),
(186,220,o),
(293,119,cs),
(400,19,o),
(527,-31,o),
(676,-31,cs),
(827,-31,o),
(956,17,o),
(1062,114,cs),
(1168,211,o),
(1221,333,o),
(1221,479,cs),
(1221,1509,ls),
(1221,1526,o),
(1206,1540,o),
(1189,1540,cs),
(1172,1540,o),
(1159,1525,o),
(1159,1509,cs),
(1159,479,ls),
(1159,350,o),
(1112,243,o),
(1019,158,cs),
(926,73,o),
(811,31,o),
(676,31,cs),
(543,31,o),
(430,75,o),
(336,164,cs),
(242,253,o),
(195,358,o),
(195,479,cs),
(195,1509,ls),
(196,1550,o),
(132,1548,o),
(133,1509,cs)
);
}
);
};
layerId = "86F0E3F6-F92B-45D5-B41F-2D5A3E198319";
name = "18 août 23 à 09:48";
shapes = (
{
closed = 0;
nodes = (
(163,1538,l),
(163,464,ls),
(163,180,o),
(393,-30,o),
(678,-30,cs),
(962,-30,o),
(1192,180,o),
(1192,464,cs),
(1192,1538,l)
);
}
);
width = 1353;
}
);
note = U;
unicode = 85;
},
{
glyphname = V;
kernLeft = V;
kernRight = V;
lastChange = "2023-09-14 04:35:09 +0000";
layers = (
{
anchors = (
{
name = _bottom;
pos = (676,0);
},
{
name = _top;
pos = (676,1538);
},
{
name = top;
pos = (676,1538);
}
);
associatedMasterId = "12AF635E-66FE-4C90-B49C-8787585F2B73";
background = {
hints = (
{
horizontal = 1;
place = (-10, 21);
target = up;
type = BottomGhost;
},
{
place = (133, 1087);
place = (133, 1087);
type = Stem;
}
);
shapes = (
{
closed = 1;
nodes = (
(647,-10,ls),
(651,-24,o),
(661,-31,o),
(676,-30,cs),
(691,-30,o),
(701,-23,o),
(705,-10,cs),
(1219,1499,ls),
(1220,1502,o),
(1220,1506,o),
(1220,1509,cs),
(1221,1514,o),
(1220,1518,o),
(1217,1523,cs),
(1212,1530,o),
(1206,1535,o),
(1199,1538,cs),
(1196,1539,o),
(1192,1540,o),
(1189,1540,cs),
(1185,1540,o),
(1181,1539,o),
(1176,1537,cs),
(1167,1534,o),
(1162,1528,o),
(1159,1520,cs),
(676,94,l),
(193,1520,ls),
(190,1528,o),
(184,1534,o),
(177,1537,cs),
(173,1539,o),
(169,1540,o),
(164,1540,cs),
(161,1540,o),
(157,1539,o),
(154,1538,cs),
(145,1535,o),
(139,1530,o),
(136,1523,cs),
(134,1519,o),
(133,1515,o),
(133,1510,cs),
(133,1506,o),
(134,1502,o),
(135,1499,cs)
);
}
);
};
layerId = "1C94A3A0-4028-4E4A-BBA2-72662F410E9D";
name = "21 août 23 à 05:26";
shapes = (
{
closed = 0;
nodes = (
(158,1538,l),
(673,0,l),
(1188,1538,l)
);
}
);
width = 1353;
},
{
anchors = (
{
name = _bottom;
pos = (676,0);
},
{
name = _top;
pos = (676,1538);
},
{
name = top;
pos = (676,1538);
}
);
associatedMasterId = m004;
background = {
hints = (
{
horizontal = 1;
place = (-10, 21);
target = up;
type = BottomGhost;
},
{
place = (133, 1087);
place = (133, 1087);
type = Stem;
}
);
shapes = (
{
closed = 1;
nodes = (
(647,-10,ls),
(651,-24,o),
(661,-31,o),
(676,-30,cs),
(691,-30,o),
(701,-23,o),
(705,-10,cs),
(1219,1499,ls),
(1220,1502,o),
(1220,1506,o),
(1220,1509,cs),
(1221,1514,o),
(1220,1518,o),
(1217,1523,cs),
(1212,1530,o),
(1206,1535,o),
(1199,1538,cs),
(1196,1539,o),
(1192,1540,o),
(1189,1540,cs),
(1185,1540,o),
(1181,1539,o),
(1176,1537,cs),
(1167,1534,o),
(1162,1528,o),
(1159,1520,cs),
(676,94,l),
(193,1520,ls),
(190,1528,o),
(184,1534,o),
(177,1537,cs),
(173,1539,o),
(169,1540,o),
(164,1540,cs),
(161,1540,o),
(157,1539,o),
(154,1538,cs),
(145,1535,o),
(139,1530,o),
(136,1523,cs),
(134,1519,o),
(133,1515,o),
(133,1510,cs),
(133,1506,o),
(134,1502,o),
(135,1499,cs)
);
}
);
};
layerId = "F79175A9-9A31-489D-A366-D9C703F82AAB";
name = "21 août 23 à 05:26";
shapes = (
{
closed = 0;
nodes = (
(158,1538,l),
(673,0,l),
(1188,1538,l)
);
}
);
width = 1353;
},
{
anchors = (
{
name = bottom;
pos = (659,0);
},
{
name = top;
pos = (659,1538);
}
);
associatedMasterId = m004;
background = {
hints = (
{
horizontal = 1;
place = (-10, 21);
target = up;
type = BottomGhost;
},
{
place = (133, 1087);
place = (133, 1087);
type = Stem;
}
);
shapes = (
{
closed = 1;
nodes = (
(629,-10,ls),
(633,-24,o),
(643,-31,o),
(658,-30,cs),
(673,-30,o),
(683,-23,o),
(687,-10,cs),
(1201,1499,ls),
(1202,1502,o),
(1202,1506,o),
(1202,1509,cs),
(1203,1514,o),
(1202,1518,o),
(1199,1523,cs),
(1194,1530,o),
(1188,1535,o),
(1181,1538,cs),
(1178,1539,o),
(1174,1540,o),
(1171,1540,cs),
(1167,1540,o),
(1163,1539,o),
(1158,1537,cs),
(1149,1534,o),
(1144,1528,o),
(1141,1520,cs),
(658,94,l),
(175,1520,ls),
(172,1528,o),
(166,1534,o),
(159,1537,cs),
(155,1539,o),
(151,1540,o),
(146,1540,cs),
(143,1540,o),
(139,1539,o),
(136,1538,cs),
(127,1535,o),
(121,1530,o),
(118,1523,cs),
(116,1519,o),
(115,1515,o),
(115,1510,cs),
(115,1506,o),
(116,1502,o),
(117,1499,cs)
);
}
);
};
layerId = "BF0951DB-7DC7-4CEF-82FE-A5F5B826E49D";
name = "21 août 23 à 05:27";
shapes = (
{
closed = 1;
nodes = (
(731,-31,o),
(806,13,o),
(836,100,cs),
(1264,1356,ls),
(1268,1369,o),
(1270,1383,o),
(1270,1398,cs),
(1270,1475,o),
(1207,1538,o),
(1130,1538,cs),
(1067,1538,o),
(1015,1496,o),
(996,1439,cs),
(655,420,l),
(314,1439,ls),
(295,1496,o),
(243,1538,o),
(180,1538,cs),
(103,1538,o),
(40,1475,o),
(40,1398,cs),
(40,1383,o),
(42,1369,o),
(46,1356,cs),
(474,100,ls),
(504,13,o),
(580,-31,o),
(655,-31,cs)
);
}
);
width = 1310;
},
{
anchors = (
{
name = _bottom;
pos = (798,0);
},
{
name = top;
pos = (798,1538);
}
);
layerId = m004;
name = Bold;
shapes = (
{
closed = 1;
nodes = (
(798,416,l),
(307,1458,ls),
(285,1505,o),
(236,1538,o),
(180,1538,cs),
(103,1538,o),
(40,1475,o),
(40,1398,cs),
(40,1377,o),
(45,1356,o),
(54,1338,cs),
(651,73,ls),
(684,4,o),
(741,-30,o),
(799,-30,cs),
(856,-30,o),
(913,4,o),
(946,73,cs),
(1544,1338,ls),
(1553,1356,o),
(1558,1377,o),
(1558,1398,cs),
(1558,1475,o),
(1495,1538,o),
(1418,1538,cs),
(1362,1538,o),
(1313,1505,o),
(1291,1458,cs)
);
}
);
width = 1598;
},
{
anchors = (
{
name = bottom;
pos = (580,0);
},
{
name = top;
pos = (580,1538);
}
);
associatedMasterId = "12AF635E-66FE-4C90-B49C-8787585F2B73";
background = {
hints = (
{
horizontal = 1;
place = (-10, 21);
target = up;
type = BottomGhost;
},
{
place = (133, 1087);
place = (133, 1087);
type = Stem;
}
);
shapes = (
{
closed = 1;
nodes = (
(550,-10,ls),
(554,-24,o),
(564,-31,o),
(579,-30,cs),
(594,-30,o),
(604,-23,o),
(608,-10,cs),
(1122,1499,ls),
(1123,1502,o),
(1123,1506,o),
(1123,1509,cs),
(1124,1514,o),
(1123,1518,o),
(1120,1523,cs),
(1115,1530,o),
(1109,1535,o),
(1102,1538,cs),
(1099,1539,o),
(1095,1540,o),
(1092,1540,cs),
(1088,1540,o),
(1084,1539,o),
(1079,1537,cs),
(1070,1534,o),
(1065,1528,o),
(1062,1520,cs),
(579,94,l),
(96,1520,ls),
(93,1528,o),
(87,1534,o),
(80,1537,cs),
(76,1539,o),
(72,1540,o),
(67,1540,cs),
(64,1540,o),
(60,1539,o),
(57,1538,cs),
(48,1535,o),
(42,1530,o),
(39,1523,cs),
(37,1519,o),
(36,1515,o),
(36,1510,cs),
(36,1506,o),
(37,1502,o),
(38,1499,cs)
);
}
);
};
layerId = "67E716B3-6FC7-4DA7-B9F4-6570F4E779E6";
name = "21 août 23 à 05:27";
shapes = (
{
closed = 1;
nodes = (
(596,-31,o),
(615,-18,o),
(623,6,cs),
(1111,1500,ls),
(1112,1503,o),
(1112,1506,o),
(1112,1509,cs),
(1112,1523,o),
(1100,1538,o),
(1082,1538,cs),
(1069,1538,o),
(1058,1530,o),
(1054,1517,cs),
(576,54,l),
(98,1517,ls),
(94,1530,o),
(83,1538,o),
(70,1538,cs),
(52,1538,o),
(40,1523,o),
(40,1509,cs),
(40,1506,o),
(40,1503,o),
(41,1500,cs),
(529,6,ls),
(537,-18,o),
(557,-31,o),
(576,-31,cs)
);
}
);
width = 1152;
},
{
anchors = (
{
name = _bottom;
pos = (789,-14);
},
{
name = top;
pos = (789,1524);
}
);
layerId = "12AF635E-66FE-4C90-B49C-8787585F2B73";
name = Light;
shapes = (
{
closed = 1;
nodes = (
(789,56,l),
(97,1521,ls),
(92,1531,o),
(82,1538,o),
(70,1538,cs),
(53,1538,o),
(40,1525,o),
(40,1508,cs),
(40,1503,o),
(41,1499,o),
(43,1495,cs),
(751,-3,ls),
(760,-21,o),
(774,-30,o),
(789,-30,cs),
(804,-30,o),
(819,-21,o),
(827,-3,cs),
(1536,1495,ls),
(1538,1499,o),
(1539,1503,o),
(1539,1508,cs),
(1539,1525,o),
(1526,1538,o),
(1509,1538,cs),
(1497,1538,o),
(1487,1531,o),
(1482,1521,cs)
);
}
);
width = 1579;
}
);
note = V;
unicode = 86;
},
{
glyphname = X;
kernLeft = X;
kernRight = X;
lastChange = "2023-09-14 04:35:09 +0000";
layers = (
{
anchors = (
{
name = bottom;
pos = (697,0);
},
{
name = top;
pos = (697,1538);
}
);
background = {
hints = (
{
horizontal = 1;
place = (-33, 62);
place = (-33, 62);
type = Stem;
},
{
place = (190, 1335);
place = (190, 1335);
type = Stem;
}
);
shapes = (
{
closed = 1;
nodes = (
(1337,-33,l),
(1350,-32,o),
(1359,-26,o),
(1365,-15,cs),
(1368,-10,o),
(1369,-6,o),
(1369,-1,cs),
(1369,6,o),
(1367,12,o),
(1362,18,cs),
(739,793,l),
(1296,1487,ls),
(1309,1504,o),
(1307,1518,o),
(1291,1530,cs),
(1284,1535,o),
(1278,1538,o),
(1271,1538,cs),
(1263,1538,o),
(1256,1534,o),
(1249,1526,cs),
(700,842,l),
(151,1526,ls),
(144,1534,o),
(136,1538,o),
(128,1538,cs),
(121,1538,o),
(114,1535,o),
(107,1530,cs),
(92,1518,o),
(90,1504,o),
(102,1487,c),
(661,793,l),
(41,18,ls),
(36,12,o),
(34,6,o),
(34,-1,cs),
(34,-6,o),
(35,-10,o),
(38,-15,cs),
(44,-26,o),
(53,-32,o),
(65,-33,c)
);
},
{
closed = 1;
nodes = (
(1274,29,l),
(129,29,l),
(700,743,l)
);
}
);
};
layerId = "12AF635E-66FE-4C90-B49C-8787585F2B73";
shapes = (
{
closed = 1;
nodes = (
(128,1501,o),
(131,1495,o),
(136,1488,cs),
(661,831,l),
(51,68,ls),
(26,37,o),
(46,0,o),
(84,0,cs),
(1314,0,ls),
(1352,0,o),
(1371,37,o),
(1347,68,cs),
(737,831,l),
(1264,1489,ls),
(1268,1494,o),
(1270,1501,o),
(1270,1508,cs),
(1270,1524,o),
(1257,1538,o),
(1240,1538,cs),
(1231,1538,o),
(1222,1534,o),
(1217,1527,cs),
(699,879,l),
(181,1527,ls),
(176,1534,o),
(167,1538,o),
(158,1538,cs),
(141,1538,o),
(128,1524,o),
(128,1508,cs)
);
},
{
closed = 1;
nodes = (
(699,783,l),
(1277,60,l),
(121,60,l)
);
}
);
width = 1398;
},
{
anchors = (
{
name = _bottom;
pos = (852,0);
},
{
name = _top;
pos = (852,1538);
},
{
name = top;
pos = (852,1538);
}
);
associatedMasterId = "12AF635E-66FE-4C90-B49C-8787585F2B73";
background = {
hints = (
{
horizontal = 1;
place = (-33, 62);
place = (-33, 62);
type = Stem;
},
{
place = (190, 1335);
place = (190, 1335);
type = Stem;
}
);
shapes = (
{
closed = 1;
nodes = (
(1493,-33,l),
(1506,-32,o),
(1515,-26,o),
(1521,-15,cs),
(1524,-10,o),
(1525,-6,o),
(1525,-1,cs),
(1525,6,o),
(1523,12,o),
(1518,18,cs),
(895,793,l),
(1452,1487,ls),
(1465,1504,o),
(1463,1518,o),
(1447,1530,cs),
(1440,1535,o),
(1434,1538,o),
(1427,1538,cs),
(1419,1538,o),
(1412,1534,o),
(1405,1526,cs),
(856,842,l),
(307,1526,ls),
(300,1534,o),
(292,1538,o),
(284,1538,cs),
(277,1538,o),
(270,1535,o),
(263,1530,cs),
(248,1518,o),
(246,1504,o),
(258,1487,c),
(817,793,l),
(197,18,ls),
(192,12,o),
(190,6,o),
(190,-1,cs),
(190,-6,o),
(191,-10,o),
(194,-15,cs),
(200,-26,o),
(209,-32,o),
(221,-33,c)
);
},
{
closed = 1;
nodes = (
(1430,29,l),
(285,29,l),
(856,743,l)
);
}
);
};
layerId = "33A70FA1-0528-42D8-820D-9EE224D5FFC5";
name = "18 août 23 à 09:49";
shapes = (
{
closed = 0;
nodes = (
(265,1538,l),
(1495,0,l),
(215,0,l),
(1445,1538,l)
);
}
);
width = 1705;
},
{
anchors = (
{
name = _bottom;
pos = (852,0);
},
{
name = _top;
pos = (852,1538);
},
{
name = top;
pos = (852,1538);
}
);
associatedMasterId = m004;
background = {
hints = (
{
horizontal = 1;
place = (-33, 62);
place = (-33, 62);
type = Stem;
},
{
place = (190, 1335);
place = (190, 1335);
type = Stem;
}
);
shapes = (
{
closed = 1;
nodes = (
(1493,-33,l),
(1506,-32,o),
(1515,-26,o),
(1521,-15,cs),
(1524,-10,o),
(1525,-6,o),
(1525,-1,cs),
(1525,6,o),
(1523,12,o),
(1518,18,cs),
(895,793,l),
(1452,1487,ls),
(1465,1504,o),
(1463,1518,o),
(1447,1530,cs),
(1440,1535,o),
(1434,1538,o),
(1427,1538,cs),
(1419,1538,o),
(1412,1534,o),
(1405,1526,cs),
(856,842,l),
(307,1526,ls),
(300,1534,o),
(292,1538,o),
(284,1538,cs),
(277,1538,o),
(270,1535,o),
(263,1530,cs),
(248,1518,o),
(246,1504,o),
(258,1487,c),
(817,793,l),
(197,18,ls),
(192,12,o),
(190,6,o),
(190,-1,cs),
(190,-6,o),
(191,-10,o),
(194,-15,cs),
(200,-26,o),
(209,-32,o),
(221,-33,c)
);
},
{
closed = 1;
nodes = (
(1430,29,l),
(285,29,l),
(856,743,l)
);
}
);
};
layerId = "563882F9-5B3C-4902-9514-C4D042122141";
name = "18 août 23 à 13:25";
shapes = (
{
closed = 1;
nodes = (
(1138,1517,o),
(1177,1538,o),
(1221,1538,cs),
(1299,1538,o),
(1361,1475,o),
(1361,1398,cs),
(1361,1364,o),
(1350,1333,o),
(1330,1309,cs),
(506,280,l),
(1204,280,l),
(380,1309,ls),
(360,1333,o),
(349,1364,o),
(349,1398,cs),
(349,1475,o),
(411,1538,o),
(489,1538,cs),
(533,1538,o),
(572,1517,o),
(597,1486,cs),
(1575,263,ls),
(1668,146,o),
(1598,0,o),
(1449,0,cs),
(261,0,ls),
(112,0,o),
(42,146,o),
(135,263,cs),
(1113,1486,ls)
);
}
);
width = 1705;
},
{
anchors = (
{
name = bottom;
pos = (718,0);
},
{
name = top;
pos = (718,1538);
}
);
background = {
hints = (
{
horizontal = 1;
place = (-33, 62);
place = (-33, 62);
type = Stem;
},
{
place = (190, 1335);
place = (190, 1335);
type = Stem;
}
);
shapes = (
{
closed = 1;
nodes = (
(1358,-33,l),
(1371,-32,o),
(1380,-26,o),
(1386,-15,cs),
(1389,-10,o),
(1390,-6,o),
(1390,-1,cs),
(1390,6,o),
(1388,12,o),
(1383,18,cs),
(760,793,l),
(1317,1487,ls),
(1330,1504,o),
(1328,1518,o),
(1312,1530,cs),
(1305,1535,o),
(1299,1538,o),
(1292,1538,cs),
(1284,1538,o),
(1277,1534,o),
(1270,1526,cs),
(721,842,l),
(172,1526,ls),
(165,1534,o),
(157,1538,o),
(149,1538,cs),
(142,1538,o),
(135,1535,o),
(128,1530,cs),
(113,1518,o),
(111,1504,o),
(123,1487,c),
(682,793,l),
(62,18,ls),
(57,12,o),
(55,6,o),
(55,-1,cs),
(55,-6,o),
(56,-10,o),
(59,-15,cs),
(65,-26,o),
(74,-32,o),
(86,-33,c)
);
},
{
closed = 1;
nodes = (
(1295,29,l),
(150,29,l),
(721,743,l)
);
}
);
};
layerId = m004;
name = Bold;
shapes = (
{
closed = 1;
nodes = (
(68,1360,o),
(85,1327,o),
(112,1296,cs),
(534,807,l),
(91,292,ls),
(-12,172,o),
(47,0,o),
(214,0,cs),
(1226,0,ls),
(1393,0,o),
(1458,165,o),
(1349,292,cs),
(903,808,l),
(1325,1300,ls),
(1347,1326,o),
(1365,1360,o),
(1365,1398,cs),
(1365,1475,o),
(1303,1538,o),
(1225,1538,cs),
(1188,1538,o),
(1151,1526,o),
(1129,1500,cs),
(718,1022,l),
(308,1496,ls),
(284,1523,o),
(247,1538,o),
(208,1538,cs),
(130,1538,o),
(68,1475,o),
(68,1398,cs)
);
},
{
closed = 1;
nodes = (
(719,593,l),
(989,280,l),
(450,280,l)
);
}
);
width = 1443;
},
{
anchors = (
{
name = bottom;
pos = (718,0);
},
{
name = top;
pos = (718,1538);
}
);
associatedMasterId = m004;
background = {
hints = (
{
horizontal = 1;
place = (-33, 62);
place = (-33, 62);
type = Stem;
},
{
place = (190, 1335);
place = (190, 1335);
type = Stem;
}
);
shapes = (
{
closed = 1;
nodes = (
(1358,-33,l),
(1371,-32,o),
(1380,-26,o),
(1386,-15,cs),
(1389,-10,o),
(1390,-6,o),
(1390,-1,cs),
(1390,6,o),
(1388,12,o),
(1383,18,cs),
(760,793,l),
(1317,1487,ls),
(1330,1504,o),
(1328,1518,o),
(1312,1530,cs),
(1305,1535,o),
(1299,1538,o),
(1292,1538,cs),
(1284,1538,o),
(1277,1534,o),
(1270,1526,cs),
(721,842,l),
(172,1526,ls),
(165,1534,o),
(157,1538,o),
(149,1538,cs),
(142,1538,o),
(135,1535,o),
(128,1530,cs),
(113,1518,o),
(111,1504,o),
(123,1487,c),
(682,793,l),
(62,18,ls),
(57,12,o),
(55,6,o),
(55,-1,cs),
(55,-6,o),
(56,-10,o),
(59,-15,cs),
(65,-26,o),
(74,-32,o),
(86,-33,c)
);
},
{
closed = 1;
nodes = (
(1295,29,l),
(150,29,l),
(721,743,l)
);
}
);
};
layerId = "E5DDEFD1-431F-4970-B628-33750AA2CA7A";
name = "21 août 23 à 13:19";
shapes = (
{
closed = 1;
nodes = (
(47,0,o),
(-12,172,o),
(91,292,cs),
(1129,1500,ls),
(1151,1526,o),
(1188,1538,o),
(1225,1538,cs),
(1303,1538,o),
(1365,1475,o),
(1365,1398,cs),
(1365,1360,o),
(1347,1326,o),
(1325,1300,cs),
(450,280,l),
(989,280,l),
(112,1296,ls),
(85,1327,o),
(68,1360,o),
(68,1398,cs),
(68,1475,o),
(130,1538,o),
(208,1538,cs),
(247,1538,o),
(284,1523,o),
(308,1496,cs),
(1349,292,ls),
(1458,165,o),
(1393,0,o),
(1226,0,cs),
(214,0,ls)
);
}
);
width = 1443;
},
{
anchors = (
{
name = bottom;
pos = (697,0);
},
{
name = top;
pos = (697,1538);
}
);
associatedMasterId = "12AF635E-66FE-4C90-B49C-8787585F2B73";
background = {
hints = (
{
horizontal = 1;
place = (-33, 62);
place = (-33, 62);
type = Stem;
},
{
place = (190, 1335);
place = (190, 1335);
type = Stem;
}
);
shapes = (
{
closed = 1;
nodes = (
(1337,-33,l),
(1350,-32,o),
(1359,-26,o),
(1365,-15,cs),
(1368,-10,o),
(1369,-6,o),
(1369,-1,cs),
(1369,6,o),
(1367,12,o),
(1362,18,cs),
(739,793,l),
(1296,1487,ls),
(1309,1504,o),
(1307,1518,o),
(1291,1530,cs),
(1284,1535,o),
(1278,1538,o),
(1271,1538,cs),
(1263,1538,o),
(1256,1534,o),
(1249,1526,cs),
(700,842,l),
(151,1526,ls),
(144,1534,o),
(136,1538,o),
(128,1538,cs),
(121,1538,o),
(114,1535,o),
(107,1530,cs),
(92,1518,o),
(90,1504,o),
(102,1487,c),
(661,793,l),
(41,18,ls),
(36,12,o),
(34,6,o),
(34,-1,cs),
(34,-6,o),
(35,-10,o),
(38,-15,cs),
(44,-26,o),
(53,-32,o),
(65,-33,c)
);
},
{
closed = 1;
nodes = (
(1274,29,l),
(129,29,l),
(700,743,l)
);
}
);
};
layerId = "894ED250-320F-4CE6-B650-ECF6DE6B008F";
name = "21 août 23 à 13:19";
shapes = (
{
closed = 1;
nodes = (
(46,0,o),
(26,37,o),
(51,68,cs),
(1217,1527,ls),
(1222,1534,o),
(1231,1538,o),
(1240,1538,cs),
(1257,1538,o),
(1270,1524,o),
(1270,1508,cs),
(1270,1501,o),
(1268,1494,o),
(1264,1489,cs),
(121,60,l),
(1277,60,l),
(136,1488,ls),
(131,1495,o),
(128,1501,o),
(128,1508,cs),
(128,1524,o),
(141,1538,o),
(158,1538,cs),
(167,1538,o),
(176,1534,o),
(181,1527,cs),
(1347,68,ls),
(1371,37,o),
(1352,0,o),
(1314,0,cs),
(84,0,ls)
);
}
);
width = 1398;
}
);
note = X;
unicode = 88;
},
{
glyphname = Y;
kernLeft = Y;
kernRight = Y;
lastChange = "2023-09-14 04:35:09 +0000";
layers = (
{
anchors = (
{
name = bottom;
pos = (757,0);
},
{
name = top;
pos = (757,1538);
},
{
name = topleft;
pos = (757,1538);
}
);
background = {
hints = (
{
horizontal = 1;
place = (-31, 21);
target = up;
type = BottomGhost;
},
{
horizontal = 1;
place = (1477, 61);
place = (1477, 61);
type = Stem;
},
{
place = (737, 62);
place = (737, 62);
type = Stem;
}
);
shapes = (
{
closed = 1;
nodes = (
(729,719,l),
(729,0,ls),
(729,-21,o),
(739,-31,o),
(760,-31,cs),
(781,-31,o),
(791,-21,o),
(791,0,cs),
(791,719,l),
(1473,1487,ls),
(1478,1493,o),
(1480,1499,o),
(1480,1506,cs),
(1480,1511,o),
(1479,1515,o),
(1477,1520,cs),
(1471,1532,o),
(1462,1538,o),
(1450,1538,cs),
(94,1538,ls),
(81,1538,o),
(71,1532,o),
(66,1521,cs),
(64,1516,o),
(63,1512,o),
(62,1507,c),
(63,1500,o),
(65,1494,o),
(70,1487,c)
);
},
{
closed = 1;
nodes = (
(760,778,l),
(160,1477,l),
(1381,1477,l)
);
}
);
};
layerId = "12AF635E-66FE-4C90-B49C-8787585F2B73";
shapes = (
{
closed = 1;
nodes = (
(1462,1467,ls),
(1489,1497,o),
(1469,1538,o),
(1429,1538,cs),
(85,1538,ls),
(45,1538,o),
(25,1497,o),
(52,1467,cs),
(757,662,l)
);
},
{
closed = 1;
nodes = (
(774,0,o),
(787,13,o),
(787,30,cs),
(787,711,ls),
(787,728,o),
(774,741,o),
(757,741,cs),
(740,741,o),
(727,728,o),
(727,711,cs),
(727,30,ls),
(727,13,o),
(740,0,o),
(757,0,cs)
);
},
{
closed = 1;
nodes = (
(122,1478,l),
(1392,1478,l),
(757,754,l)
);
}
);
width = 1514;
},
{
anchors = (
{
name = bottom;
pos = (857,0);
},
{
name = top;
pos = (857,1538);
},
{
name = topleft;
pos = (857,1538);
}
);
background = {
hints = (
{
horizontal = 1;
place = (-31, 21);
target = up;
type = BottomGhost;
},
{
horizontal = 1;
place = (1477, 61);
place = (1477, 61);
type = Stem;
},
{
place = (737, 62);
place = (737, 62);
type = Stem;
}
);
shapes = (
{
closed = 1;
nodes = (
(829,719,l),
(829,0,ls),
(829,-21,o),
(839,-31,o),
(860,-31,cs),
(881,-31,o),
(891,-21,o),
(891,0,cs),
(891,719,l),
(1573,1487,ls),
(1578,1493,o),
(1580,1499,o),
(1580,1506,cs),
(1580,1511,o),
(1579,1515,o),
(1577,1520,cs),
(1571,1532,o),
(1562,1538,o),
(1550,1538,cs),
(194,1538,ls),
(181,1538,o),
(171,1532,o),
(166,1521,cs),
(164,1516,o),
(163,1512,o),
(162,1507,c),
(163,1500,o),
(165,1494,o),
(170,1487,c)
);
},
{
closed = 1;
nodes = (
(860,778,l),
(260,1477,l),
(1481,1477,l)
);
}
);
};
layerId = m004;
shapes = (
{
closed = 1;
nodes = (
(1625,1262,ls),
(1729,1381,o),
(1657,1538,o),
(1500,1538,cs),
(214,1538,ls),
(57,1538,o),
(-15,1381,o),
(89,1262,cs),
(857,386,l)
);
},
{
closed = 1;
nodes = (
(934,0,o),
(997,63,o),
(997,140,cs),
(997,626,ls),
(997,703,o),
(934,766,o),
(857,766,cs),
(780,766,o),
(717,703,o),
(717,626,cs),
(717,140,ls),
(717,63,o),
(780,0,o),
(857,0,cs)
);
},
{
closed = 1;
nodes = (
(465,1258,l),
(1249,1258,l),
(857,810,l)
);
}
);
width = 1714;
},
{
anchors = (
{
name = _bottom;
pos = (766,0);
},
{
name = _top;
pos = (766,1538);
},
{
name = top;
pos = (766,1538);
}
);
associatedMasterId = "12AF635E-66FE-4C90-B49C-8787585F2B73";
background = {
hints = (
{
horizontal = 1;
place = (-31, 21);
target = up;
type = BottomGhost;
},
{
horizontal = 1;
place = (1477, 61);
place = (1477, 61);
type = Stem;
},
{
place = (737, 62);
place = (737, 62);
type = Stem;
}
);
shapes = (
{
closed = 1;
nodes = (
(737,719,l),
(737,0,ls),
(737,-21,o),
(747,-31,o),
(768,-31,cs),
(789,-31,o),
(799,-21,o),
(799,0,cs),
(799,719,l),
(1481,1487,ls),
(1486,1493,o),
(1488,1499,o),
(1488,1506,cs),
(1488,1511,o),
(1487,1515,o),
(1485,1520,cs),
(1479,1532,o),
(1470,1538,o),
(1458,1538,cs),
(102,1538,ls),
(89,1538,o),
(79,1532,o),
(74,1521,cs),
(72,1516,o),
(71,1512,o),
(70,1507,c),
(71,1500,o),
(73,1494,o),
(78,1487,c)
);
},
{
closed = 1;
nodes = (
(768,778,l),
(168,1477,l),
(1389,1477,l)
);
}
);
};
layerId = "8FD56F8D-68AE-4E08-BC08-3A87431EBD42";
name = "18 août 23 à 09:49";
shapes = (
{
closed = 1;
nodes = (
(64,1538,l),
(1466,1538,l),
(765,738,l)
);
},
{
closed = 0;
nodes = (
(765,0,l),
(765,738,l)
);
}
);
width = 1533;
},
{
anchors = (
{
name = _bottom;
pos = (766,0);
},
{
name = _top;
pos = (766,1538);
},
{
name = top;
pos = (766,1538);
}
);
associatedMasterId = m004;
background = {
hints = (
{
horizontal = 1;
place = (-31, 21);
target = up;
type = BottomGhost;
},
{
horizontal = 1;
place = (1477, 61);
place = (1477, 61);
type = Stem;
},
{
place = (737, 62);
place = (737, 62);
type = Stem;
}
);
shapes = (
{
closed = 1;
nodes = (
(737,719,l),
(737,0,ls),
(737,-21,o),
(747,-31,o),
(768,-31,cs),
(789,-31,o),
(799,-21,o),
(799,0,cs),
(799,719,l),
(1481,1487,ls),
(1486,1493,o),
(1488,1499,o),
(1488,1506,cs),
(1488,1511,o),
(1487,1515,o),
(1485,1520,cs),
(1479,1532,o),
(1470,1538,o),
(1458,1538,cs),
(102,1538,ls),
(89,1538,o),
(79,1532,o),
(74,1521,cs),
(72,1516,o),
(71,1512,o),
(70,1507,c),
(71,1500,o),
(73,1494,o),
(78,1487,c)
);
},
{
closed = 1;
nodes = (
(768,778,l),
(168,1477,l),
(1389,1477,l)
);
}
);
};
layerId = "6EA77859-CB55-42EB-81FF-FF91FB0C9CCC";
name = "18 août 23 à 09:49";
shapes = (
{
closed = 1;
nodes = (
(64,1538,l),
(1466,1538,l),
(765,738,l)
);
},
{
closed = 0;
nodes = (
(765,0,l),
(765,738,l)
);
}
);
width = 1533;
}
);
note = Y;
unicode = 89;
},
